{
  "version": "1.1.6",
  "modules": [
    {
      "id": 1,
      "plugin": "Core",
      "version": "1.1.6",
      "model": "AudioInterface",
      "params": [],
      "data": {
        "audio": {
          "driver": 1,
          "deviceName": "hw:HDA Intel,0",
          "offset": 0,
          "maxChannels": 8,
          "sampleRate": 48000,
          "blockSize": 1024
        }
      },
      "pos": [
        0,
        0
      ]
    },
    {
      "id": 10,
      "plugin": "AudibleInstruments",
      "version": "1.5.0",
      "model": "Rings",
      "params": [
        {
          "id": 0,
          "value": 0.0
        },
        {
          "id": 1,
          "value": 0.0
        },
        {
          "id": 2,
          "value": 19.9200058
        },
        {
          "id": 3,
          "value": 0.622478366
        },
        {
          "id": 4,
          "value": 0.763941288
        },
        {
          "id": 5,
          "value": 0.513499916
        },
        {
          "id": 6,
          "value": 0.587440968
        },
        {
          "id": 7,
          "value": 0.0
        },
        {
          "id": 8,
          "value": 0.0
        },
        {
          "id": 9,
          "value": 0.0
        },
        {
          "id": 10,
          "value": 1.0
        },
        {
          "id": 11,
          "value": 0.660999835
        }
      ],
      "leftModuleId": 11,
      "rightModuleId": 12,
      "data": {
        "polyphony": 0,
        "model": 1,
        "easterEgg": false
      },
      "pos": [
        27,
        0
      ]
    },
    {
      "id": 11,
      "plugin": "AudibleInstruments",
      "version": "1.5.0",
      "model": "Braids",
      "params": [
        {
          "id": 0,
          "value": 0.0
        },
        {
          "id": 1,
          "value": -3.53200054
        },
        {
          "id": 2,
          "value": -0.186999992
        },
        {
          "id": 3,
          "value": 0.640461862
        },
        {
          "id": 4,
          "value": 0.0
        },
        {
          "id": 5,
          "value": 0.762304604
        },
        {
          "id": 6,
          "value": 0.904884994
        }
      ],
      "rightModuleId": 10,
      "data": {
        "settings": [
          42,
          0,
          0,
          0,
          0,
          0,
          0,
          0,
          0,
          0,
          0,
          0,
          0,
          0,
          0,
          0,
          0,
          0,
          0,
          0
        ],
        "lowCpu": false
      },
      "pos": [
        11,
        0
      ]
    },
    {
      "id": 12,
      "plugin": "Bogaudio",
      "version": "1.1.37",
      "model": "Bogaudio-Mix2",
      "params": [
        {
          "id": 0,
          "value": 0.909090936
        },
        {
          "id": 1,
          "value": 0.0
        }
      ],
      "leftModuleId": 10,
      "rightModuleId": 13,
      "data": {},
      "pos": [
        41,
        0
      ]
    },
    {
      "id": 13,
      "plugin": "Bogaudio",
      "version": "1.1.37",
      "model": "Bogaudio-FourMan",
      "params": [
        {
          "id": 0,
          "value": 0.0
        },
        {
          "id": 1,
          "value": 0.0
        },
        {
          "id": 2,
          "value": 0.0
        },
        {
          "id": 3,
          "value": 0.0
        }
      ],
      "leftModuleId": 12,
      "data": {
        "triggerOnLoad": false,
        "shouldTriggerOnLoad": true,
        "output_scale": 1.0
      },
      "pos": [
        46,
        0
      ]
    }
  ],
  "cables": [
    {
      "id": 0,
      "outputModuleId": 11,
      "outputId": 0,
      "inputModuleId": 10,
      "inputId": 7,
      "color": "#c9b70e"
    },
    {
      "id": 1,
      "outputModuleId": 10,
      "outputId": 0,
      "inputModuleId": 12,
      "inputId": 2,
      "color": "#0c8e15"
    },
    {
      "id": 3,
      "outputModuleId": 12,
      "outputId": 0,
      "inputModuleId": 1,
      "inputId": 0,
      "color": "#0986ad"
    },
    {
      "id": 4,
      "outputModuleId": 12,
      "outputId": 1,
      "inputModuleId": 1,
      "inputId": 1,
      "color": "#c9b70e"
    },
    {
      "id": 7,
      "outputModuleId": 13,
      "outputId": 0,
      "inputModuleId": 10,
      "inputId": 3,
      "color": "#c9b70e"
    },
    {
      "id": 8,
      "outputModuleId": 13,
      "outputId": 1,
      "inputModuleId": 10,
      "inputId": 4,
      "color": "#0c8e15"
    },
    {
      "id": 9,
      "outputModuleId": 13,
      "outputId": 2,
      "inputModuleId": 11,
      "inputId": 4,
      "color": "#c91847"
    },
    {
      "id": 10,
      "outputModuleId": 13,
      "outputId": 3,
      "inputModuleId": 11,
      "inputId": 2,
      "color": "#0986ad"
    }
  ]
}