{
  "version": "1.1.6",
  "modules": [
    {
      "id": 1,
      "plugin": "Core",
      "version": "1.1.6",
      "model": "AudioInterface",
      "params": [],
      "data": {
        "audio": {
          "driver": 1,
          "deviceName": "hw:HDA Intel,0",
          "offset": 0,
          "maxChannels": 8,
          "sampleRate": 48000,
          "blockSize": 1024
        }
      },
      "pos": [
        6,
        0
      ]
    },
    {
      "id": 54,
      "plugin": "Dintree-Virtual",
      "version": "1.0.14",
      "model": "V103-Reverb_Delay",
      "params": [
        {
          "id": 0,
          "value": 0.281999975
        },
        {
          "id": 1,
          "value": 0.543137729
        },
        {
          "id": 2,
          "value": 0.370500237
        },
        {
          "id": 3,
          "value": 2.0
        },
        {
          "id": 4,
          "value": 1.0
        }
      ],
      "rightModuleId": 58,
      "pos": [
        37,
        0
      ]
    },
    {
      "id": 55,
      "plugin": "modular80",
      "version": "1.0.3",
      "model": "Logistiker",
      "params": [
        {
          "id": 0,
          "value": -0.364404112
        },
        {
          "id": 1,
          "value": 7.91932392
        },
        {
          "id": 2,
          "value": 0.211715996
        },
        {
          "id": 3,
          "value": 0.0
        }
      ],
      "leftModuleId": 56,
      "pos": [
        30,
        0
      ]
    },
    {
      "id": 56,
      "plugin": "modular80",
      "version": "1.0.3",
      "model": "Nosering",
      "params": [
        {
          "id": 0,
          "value": 2.82385159
        },
        {
          "id": 1,
          "value": -8.20809555
        },
        {
          "id": 2,
          "value": 5.39933062
        },
        {
          "id": 3,
          "value": 0.0
        }
      ],
      "leftModuleId": 66,
      "rightModuleId": 55,
      "pos": [
        24,
        0
      ]
    },
    {
      "id": 58,
      "plugin": "MosquitoLabs",
      "version": "1.1.1",
      "model": "PulseCzar",
      "params": [
        {
          "id": 0,
          "value": 1.06995583
        },
        {
          "id": 1,
          "value": 0.687454224
        },
        {
          "id": 2,
          "value": 6.58971071
        },
        {
          "id": 3,
          "value": 6.51475191
        },
        {
          "id": 4,
          "value": 0.421160519
        },
        {
          "id": 5,
          "value": 0.0
        },
        {
          "id": 6,
          "value": 0.0
        },
        {
          "id": 7,
          "value": 0.0
        },
        {
          "id": 8,
          "value": 0.0
        },
        {
          "id": 9,
          "value": 5.33123064
        }
      ],
      "leftModuleId": 54,
      "data": {
        "wave_link_toggle": true,
        "env_link_toggle": true,
        "interpolate_wave_toggle": false,
        "interpolate_env_toggle": false
      },
      "pos": [
        45,
        0
      ]
    },
    {
      "id": 66,
      "plugin": "Autodafe",
      "version": "1.0.1",
      "model": "ChorusFx",
      "params": [
        {
          "id": 0,
          "value": 0.37349996
        },
        {
          "id": 1,
          "value": 0.0
        },
        {
          "id": 2,
          "value": 0.715124846
        }
      ],
      "rightModuleId": 56,
      "pos": [
        18,
        0
      ]
    },
    {
      "id": 76,
      "plugin": "AlgoritmArte",
      "version": "1.6.2",
      "model": "Planetz",
      "params": [
        {
          "id": 0,
          "value": 0.0
        },
        {
          "id": 1,
          "value": 16.0
        },
        {
          "id": 2,
          "value": 10.0
        },
        {
          "id": 3,
          "value": 30.0
        },
        {
          "id": 4,
          "value": 8.0
        },
        {
          "id": 5,
          "value": -20.0
        },
        {
          "id": 6,
          "value": 90.0
        },
        {
          "id": 7,
          "value": 4.0
        },
        {
          "id": 8,
          "value": 15.0
        },
        {
          "id": 9,
          "value": 60.0
        },
        {
          "id": 10,
          "value": 2.0
        },
        {
          "id": 11,
          "value": 20.0
        },
        {
          "id": 12,
          "value": -60.0
        },
        {
          "id": 13,
          "value": 10.0
        },
        {
          "id": 14,
          "value": -5.0
        },
        {
          "id": 15,
          "value": 0.0
        },
        {
          "id": 16,
          "value": 1.0
        },
        {
          "id": 17,
          "value": 1.0
        },
        {
          "id": 18,
          "value": 3.0
        },
        {
          "id": 19,
          "value": 5.0
        },
        {
          "id": 20,
          "value": 0.0
        },
        {
          "id": 21,
          "value": 0.0
        }
      ],
      "data": {
        "mirrorx": false,
        "mirrory": false
      },
      "pos": [
        15,
        1
      ]
    },
    {
      "id": 85,
      "plugin": "VCV-Recorder",
      "version": "1.1.0",
      "model": "Recorder",
      "params": [
        {
          "id": 0,
          "value": 1.0
        },
        {
          "id": 1,
          "value": 0.0
        }
      ],
      "data": {
        "format": "wav",
        "path": "/home/gg/downloads/audio/recordings/vcv/vcv-session.wav",
        "incrementPath": true,
        "sampleRate": 48000,
        "depth": 16,
        "bitRate": 256000,
        "videoBitRate": 2048000
      },
      "pos": [
        0,
        0
      ]
    }
  ],
  "cables": [
    {
      "id": 3,
      "outputModuleId": 54,
      "outputId": 0,
      "inputModuleId": 1,
      "inputId": 0,
      "color": "#0986ad"
    },
    {
      "id": 13,
      "outputModuleId": 55,
      "outputId": 0,
      "inputModuleId": 56,
      "inputId": 2,
      "color": "#c91847"
    },
    {
      "id": 19,
      "outputModuleId": 56,
      "outputId": 1,
      "inputModuleId": 55,
      "inputId": 2,
      "color": "#c9b70e"
    },
    {
      "id": 6,
      "outputModuleId": 55,
      "outputId": 0,
      "inputModuleId": 58,
      "inputId": 0,
      "color": "#c91847"
    },
    {
      "id": 20,
      "outputModuleId": 56,
      "outputId": 1,
      "inputModuleId": 58,
      "inputId": 3,
      "color": "#0c8e15"
    },
    {
      "id": 21,
      "outputModuleId": 56,
      "outputId": 0,
      "inputModuleId": 58,
      "inputId": 4,
      "color": "#c91847"
    },
    {
      "id": 1,
      "outputModuleId": 58,
      "outputId": 0,
      "inputModuleId": 66,
      "inputId": 2,
      "color": "#0c8e15"
    },
    {
      "id": 29,
      "outputModuleId": 66,
      "outputId": 0,
      "inputModuleId": 54,
      "inputId": 0,
      "color": "#c91847"
    },
    {
      "id": 30,
      "outputModuleId": 66,
      "outputId": 0,
      "inputModuleId": 54,
      "inputId": 1,
      "color": "#0986ad"
    },
    {
      "id": 35,
      "outputModuleId": 76,
      "outputId": 0,
      "inputModuleId": 58,
      "inputId": 1,
      "color": "#0c8e15"
    },
    {
      "id": 36,
      "outputModuleId": 76,
      "outputId": 1,
      "inputModuleId": 58,
      "inputId": 2,
      "color": "#c91847"
    },
    {
      "id": 37,
      "outputModuleId": 76,
      "outputId": 2,
      "inputModuleId": 58,
      "inputId": 5,
      "color": "#0986ad"
    },
    {
      "id": 38,
      "outputModuleId": 76,
      "outputId": 3,
      "inputModuleId": 56,
      "inputId": 1,
      "color": "#c9b70e"
    },
    {
      "id": 4,
      "outputModuleId": 54,
      "outputId": 1,
      "inputModuleId": 1,
      "inputId": 1,
      "color": "#c9b70e"
    },
    {
      "id": 40,
      "outputModuleId": 54,
      "outputId": 1,
      "inputModuleId": 85,
      "inputId": 3,
      "color": "#c91847"
    },
    {
      "id": 39,
      "outputModuleId": 54,
      "outputId": 0,
      "inputModuleId": 85,
      "inputId": 2,
      "color": "#0c8e15"
    }
  ]
}