{
  "version": "1.1.6",
  "modules": [
    {
      "id": 1,
      "plugin": "Core",
      "version": "1.1.6",
      "model": "AudioInterface",
      "params": [],
      "data": {
        "audio": {
          "driver": 1,
          "deviceName": "hw:HDA Intel,0",
          "offset": 0,
          "maxChannels": 8,
          "sampleRate": 48000,
          "blockSize": 1024
        }
      },
      "pos": [
        0,
        0
      ]
    },
    {
      "id": 96,
      "plugin": "Fundamental",
      "version": "1.4.0",
      "model": "Delay",
      "params": [
        {
          "id": 0,
          "value": 0.92474246
        },
        {
          "id": 1,
          "value": 0.0
        },
        {
          "id": 2,
          "value": 0.5
        },
        {
          "id": 3,
          "value": 1.0
        }
      ],
      "rightModuleId": 97,
      "pos": [
        50,
        0
      ]
    },
    {
      "id": 97,
      "plugin": "Bogaudio",
      "version": "1.1.37",
      "model": "Bogaudio-FourMan",
      "params": [
        {
          "id": 0,
          "value": 0.0
        },
        {
          "id": 1,
          "value": 0.0
        },
        {
          "id": 2,
          "value": 0.0
        },
        {
          "id": 3,
          "value": 0.0
        }
      ],
      "leftModuleId": 96,
      "data": {
        "triggerOnLoad": false,
        "shouldTriggerOnLoad": true,
        "output_scale": 1.0
      },
      "pos": [
        58,
        0
      ]
    },
    {
      "id": 98,
      "plugin": "squinkylabs-plug1",
      "version": "1.0.17",
      "model": "squinkylabs-mixm",
      "params": [
        {
          "id": 0,
          "value": 0.949999988
        },
        {
          "id": 1,
          "value": 0.0
        },
        {
          "id": 2,
          "value": 0.699999988
        },
        {
          "id": 3,
          "value": 0.899999976
        },
        {
          "id": 4,
          "value": 0.699999988
        },
        {
          "id": 5,
          "value": 0.0
        },
        {
          "id": 6,
          "value": 0.0
        },
        {
          "id": 7,
          "value": 0.0
        },
        {
          "id": 8,
          "value": 0.0
        },
        {
          "id": 9,
          "value": 0.0
        },
        {
          "id": 10,
          "value": 0.0
        },
        {
          "id": 11,
          "value": 0.0
        },
        {
          "id": 12,
          "value": 0.0
        },
        {
          "id": 13,
          "value": 0.0
        },
        {
          "id": 14,
          "value": 0.0
        },
        {
          "id": 15,
          "value": 0.0
        },
        {
          "id": 16,
          "value": 0.0
        },
        {
          "id": 17,
          "value": 0.0
        },
        {
          "id": 18,
          "value": 0.0
        },
        {
          "id": 19,
          "value": 0.0
        },
        {
          "id": 20,
          "value": 0.0
        },
        {
          "id": 21,
          "value": 0.0
        },
        {
          "id": 22,
          "value": 0.0
        },
        {
          "id": 23,
          "value": 0.0
        },
        {
          "id": 24,
          "value": 0.0
        },
        {
          "id": 25,
          "value": 0.0
        },
        {
          "id": 26,
          "value": 0.0
        },
        {
          "id": 27,
          "value": 0.0
        },
        {
          "id": 28,
          "value": 0.0
        },
        {
          "id": 29,
          "value": 0.0
        },
        {
          "id": 30,
          "value": 0.0
        },
        {
          "id": 31,
          "value": 0.0
        },
        {
          "id": 32,
          "value": 0.0
        },
        {
          "id": 33,
          "value": 0.0
        },
        {
          "id": 34,
          "value": 0.0
        },
        {
          "id": 35,
          "value": 0.0
        },
        {
          "id": 36,
          "value": 0.0
        }
      ],
      "rightModuleId": 99,
      "pos": [
        13,
        0
      ]
    },
    {
      "id": 99,
      "plugin": "squinkylabs-plug1",
      "version": "1.0.17",
      "model": "squinkylabs-sines",
      "params": [
        {
          "id": 0,
          "value": 7.8747673
        },
        {
          "id": 1,
          "value": 3.44754601
        },
        {
          "id": 2,
          "value": 1.71731567
        },
        {
          "id": 3,
          "value": 1.6292901
        },
        {
          "id": 4,
          "value": 2.76330757
        },
        {
          "id": 5,
          "value": 5.47688866
        },
        {
          "id": 6,
          "value": 5.07937288
        },
        {
          "id": 7,
          "value": 1.85981607
        },
        {
          "id": 8,
          "value": 4.10369062
        },
        {
          "id": 9,
          "value": 6.05048943
        },
        {
          "id": 10,
          "value": 4.88789272
        },
        {
          "id": 11,
          "value": 1.0
        },
        {
          "id": 12,
          "value": 0.0
        },
        {
          "id": 13,
          "value": 25.7024651
        },
        {
          "id": 14,
          "value": 37.4928474
        }
      ],
      "leftModuleId": 98,
      "pos": [
        30,
        0
      ]
    },
    {
      "id": 100,
      "plugin": "squinkylabs-plug1",
      "version": "1.0.17",
      "model": "squinkylabs-sines",
      "params": [
        {
          "id": 0,
          "value": 3.65964651
        },
        {
          "id": 1,
          "value": 7.73850298
        },
        {
          "id": 2,
          "value": 6.45888042
        },
        {
          "id": 3,
          "value": 4.52880573
        },
        {
          "id": 4,
          "value": 0.776471138
        },
        {
          "id": 5,
          "value": 1.3253727
        },
        {
          "id": 6,
          "value": 5.62905836
        },
        {
          "id": 7,
          "value": 0.971855164
        },
        {
          "id": 8,
          "value": 4.21860695
        },
        {
          "id": 9,
          "value": 0.738383293
        },
        {
          "id": 10,
          "value": 6.74749231
        },
        {
          "id": 11,
          "value": 1.0
        },
        {
          "id": 12,
          "value": 0.0
        },
        {
          "id": 13,
          "value": 58.5968552
        },
        {
          "id": 14,
          "value": 70.7218628
        }
      ],
      "pos": [
        30,
        1
      ]
    },
    {
      "id": 101,
      "plugin": "ZZC",
      "version": "1.1.3",
      "model": "SRC",
      "params": [
        {
          "id": 0,
          "value": -0.0
        },
        {
          "id": 1,
          "value": 0.332999974
        },
        {
          "id": 2,
          "value": 0.0
        }
      ],
      "data": {
        "on": true,
        "mode": 0,
        "quantizeInput": false,
        "onHold": false
      },
      "pos": [
        52,
        1
      ]
    },
    {
      "id": 102,
      "plugin": "Fundamental",
      "version": "1.4.0",
      "model": "Noise",
      "params": [],
      "pos": [
        62,
        0
      ]
    },
    {
      "id": 103,
      "plugin": "Fundamental",
      "version": "1.4.0",
      "model": "VCA-1",
      "params": [
        {
          "id": 0,
          "value": 0.00100000005
        },
        {
          "id": 1,
          "value": 1.0
        }
      ],
      "pos": [
        67,
        0
      ]
    }
  ],
  "cables": [
    {
      "id": 0,
      "outputModuleId": 98,
      "outputId": 0,
      "inputModuleId": 1,
      "inputId": 0,
      "color": "#c9b70e"
    },
    {
      "id": 1,
      "outputModuleId": 98,
      "outputId": 1,
      "inputModuleId": 1,
      "inputId": 1,
      "color": "#0c8e15"
    },
    {
      "id": 2,
      "outputModuleId": 99,
      "outputId": 0,
      "inputModuleId": 98,
      "inputId": 0,
      "color": "#c91847"
    },
    {
      "id": 3,
      "outputModuleId": 97,
      "outputId": 0,
      "inputModuleId": 99,
      "inputId": 1,
      "color": "#0986ad"
    },
    {
      "id": 5,
      "outputModuleId": 96,
      "outputId": 0,
      "inputModuleId": 98,
      "inputId": 1,
      "color": "#0c8e15"
    },
    {
      "id": 6,
      "outputModuleId": 98,
      "outputId": 0,
      "inputModuleId": 96,
      "inputId": 4,
      "color": "#c91847"
    },
    {
      "id": 7,
      "outputModuleId": 101,
      "outputId": 0,
      "inputModuleId": 100,
      "inputId": 0,
      "color": "#0986ad"
    },
    {
      "id": 8,
      "outputModuleId": 100,
      "outputId": 0,
      "inputModuleId": 98,
      "inputId": 2,
      "color": "#c9b70e"
    },
    {
      "id": 9,
      "outputModuleId": 97,
      "outputId": 1,
      "inputModuleId": 100,
      "inputId": 1,
      "color": "#0c8e15"
    },
    {
      "id": 12,
      "outputModuleId": 103,
      "outputId": 0,
      "inputModuleId": 96,
      "inputId": 0,
      "color": "#c9b70e"
    },
    {
      "id": 10,
      "outputModuleId": 102,
      "outputId": 1,
      "inputModuleId": 103,
      "inputId": 1,
      "color": "#c91847"
    },
    {
      "id": 13,
      "outputModuleId": 97,
      "outputId": 2,
      "inputModuleId": 103,
      "inputId": 0,
      "color": "#0c8e15"
    }
  ]
}