{
  "version": "1.1.6",
  "modules": [
    {
      "id": 1,
      "plugin": "Core",
      "version": "1.1.6",
      "model": "AudioInterface",
      "params": [],
      "rightModuleId": 27,
      "data": {
        "audio": {
          "driver": 1,
          "deviceName": "hw:HDA Intel,0",
          "offset": 0,
          "maxChannels": 8,
          "sampleRate": 44100,
          "blockSize": 1024
        }
      },
      "pos": [
        0,
        0
      ]
    },
    {
      "id": 4,
      "plugin": "AudibleInstruments",
      "version": "1.3.1",
      "model": "Rings",
      "params": [
        {
          "id": 0,
          "value": 0.0
        },
        {
          "id": 1,
          "value": 0.0
        },
        {
          "id": 2,
          "value": 12.0899858
        },
        {
          "id": 3,
          "value": 0.320000112
        },
        {
          "id": 4,
          "value": 0.5
        },
        {
          "id": 5,
          "value": 0.360499948
        },
        {
          "id": 6,
          "value": 0.5
        },
        {
          "id": 7,
          "value": -0.270000219
        },
        {
          "id": 8,
          "value": 0.0
        },
        {
          "id": 9,
          "value": 0.327000022
        },
        {
          "id": 10,
          "value": 0.0
        },
        {
          "id": 11,
          "value": 0.306000024
        }
      ],
      "leftModuleId": 27,
      "rightModuleId": 26,
      "data": {
        "polyphony": 0,
        "model": 3,
        "easterEgg": false
      },
      "pos": [
        14,
        0
      ]
    },
    {
      "id": 26,
      "plugin": "RJModules",
      "version": "1.7.2",
      "model": "TwinLFO",
      "params": [
        {
          "id": 0,
          "value": 1.0
        },
        {
          "id": 1,
          "value": 1.0
        },
        {
          "id": 2,
          "value": 4.79600143
        },
        {
          "id": 3,
          "value": 1.07600009
        },
        {
          "id": 4,
          "value": 0.0
        },
        {
          "id": 5,
          "value": 0.658499956
        },
        {
          "id": 6,
          "value": 0.0
        }
      ],
      "leftModuleId": 4,
      "rightModuleId": 28,
      "pos": [
        28,
        0
      ]
    },
    {
      "id": 27,
      "plugin": "RJModules",
      "version": "1.7.2",
      "model": "Octo",
      "params": [
        {
          "id": 0,
          "value": 2.73499823
        },
        {
          "id": 1,
          "value": 1.0
        },
        {
          "id": 2,
          "value": 0.0
        }
      ],
      "leftModuleId": 1,
      "rightModuleId": 4,
      "wave": 0.0,
      "pos": [
        10,
        0
      ]
    },
    {
      "id": 28,
      "plugin": "Core",
      "version": "1.1.6",
      "model": "Notes",
      "params": [],
      "leftModuleId": 26,
      "text": "grammatica 002 - 2020-08-07\n\nUsing Rings as a percussion source, in FM voice mode. Rhythm generated by Twin LFO. Octo provides some variations.",
      "pos": [
        38,
        0
      ]
    }
  ],
  "cables": [
    {
      "id": 0,
      "outputModuleId": 4,
      "outputId": 0,
      "inputModuleId": 1,
      "inputId": 0,
      "color": "#c9b70e"
    },
    {
      "id": 3,
      "outputModuleId": 26,
      "outputId": 0,
      "inputModuleId": 4,
      "inputId": 5,
      "color": "#c9b70e"
    },
    {
      "id": 8,
      "outputModuleId": 27,
      "outputId": 7,
      "inputModuleId": 4,
      "inputId": 4,
      "color": "#c91847"
    },
    {
      "id": 9,
      "outputModuleId": 27,
      "outputId": 5,
      "inputModuleId": 4,
      "inputId": 2,
      "color": "#0986ad"
    },
    {
      "id": 10,
      "outputModuleId": 27,
      "outputId": 3,
      "inputModuleId": 4,
      "inputId": 0,
      "color": "#c9b70e"
    },
    {
      "id": 12,
      "outputModuleId": 4,
      "outputId": 0,
      "inputModuleId": 1,
      "inputId": 1,
      "color": "#c91847"
    }
  ]
}