{
  "version": "1.1.6",
  "modules": [
    {
      "id": 1,
      "plugin": "Core",
      "version": "1.1.6",
      "model": "AudioInterface",
      "params": [],
      "leftModuleId": 11,
      "data": {
        "audio": {
          "driver": 1,
          "deviceName": "hw:HDA Intel,0",
          "offset": 0,
          "maxChannels": 8,
          "sampleRate": 48000,
          "blockSize": 1024
        }
      },
      "pos": [
        39,
        0
      ]
    },
    {
      "id": 8,
      "plugin": "AudibleInstruments",
      "version": "1.3.0",
      "model": "Braids",
      "params": [
        {
          "id": 0,
          "value": 0.0
        },
        {
          "id": 1,
          "value": -3.39999986
        },
        {
          "id": 2,
          "value": 0.0
        },
        {
          "id": 3,
          "value": 0.311499655
        },
        {
          "id": 4,
          "value": 0.135000005
        },
        {
          "id": 5,
          "value": 0.5
        },
        {
          "id": 6,
          "value": 0.865502954
        }
      ],
      "leftModuleId": 12,
      "rightModuleId": 10,
      "data": {
        "settings": [
          40,
          0,
          0,
          0,
          0,
          0,
          0,
          0,
          0,
          0,
          0,
          0,
          0,
          0,
          0,
          0,
          0,
          0,
          0,
          0
        ],
        "lowCpu": true
      },
      "pos": [
        3,
        0
      ]
    },
    {
      "id": 10,
      "plugin": "Bogaudio",
      "version": "1.1.31",
      "model": "Bogaudio-LFO",
      "params": [
        {
          "id": 0,
          "value": -1.93850303
        },
        {
          "id": 1,
          "value": 1.0
        },
        {
          "id": 2,
          "value": 0.0
        },
        {
          "id": 3,
          "value": 0.0
        },
        {
          "id": 4,
          "value": 0.0
        },
        {
          "id": 5,
          "value": 1.0
        }
      ],
      "leftModuleId": 8,
      "rightModuleId": 11,
      "pos": [
        19,
        0
      ]
    },
    {
      "id": 11,
      "plugin": "RJModules",
      "version": "1.7.2",
      "model": "PingPong",
      "params": [
        {
          "id": 0,
          "value": 5.0
        },
        {
          "id": 1,
          "value": 0.5
        },
        {
          "id": 2,
          "value": 0.0
        },
        {
          "id": 3,
          "value": 0.5
        },
        {
          "id": 4,
          "value": 1.0
        }
      ],
      "leftModuleId": 10,
      "rightModuleId": 1,
      "pos": [
        29,
        0
      ]
    },
    {
      "id": 12,
      "plugin": "Bogaudio",
      "version": "1.1.31",
      "model": "Bogaudio-SampleHold",
      "params": [
        {
          "id": 0,
          "value": 0.0
        },
        {
          "id": 1,
          "value": 0.0
        },
        {
          "id": 2,
          "value": 0.0
        },
        {
          "id": 3,
          "value": 0.0
        },
        {
          "id": 4,
          "value": 0.0
        },
        {
          "id": 5,
          "value": 0.0
        }
      ],
      "rightModuleId": 8,
      "data": {
        "poly_input": 0,
        "noise_type": 0,
        "range_offset": 0.0,
        "range_scale": 1.0
      },
      "pos": [
        0,
        0
      ]
    }
  ],
  "cables": [
    {
      "id": 4,
      "outputModuleId": 10,
      "outputId": 4,
      "inputModuleId": 8,
      "inputId": 3,
      "color": "#c91847"
    },
    {
      "id": 1,
      "outputModuleId": 11,
      "outputId": 0,
      "inputModuleId": 1,
      "inputId": 0,
      "color": "#0c8e15"
    },
    {
      "id": 5,
      "outputModuleId": 11,
      "outputId": 1,
      "inputModuleId": 1,
      "inputId": 1,
      "color": "#0986ad"
    },
    {
      "id": 6,
      "outputModuleId": 8,
      "outputId": 0,
      "inputModuleId": 11,
      "inputId": 0,
      "color": "#c9b70e"
    },
    {
      "id": 7,
      "outputModuleId": 12,
      "outputId": 0,
      "inputModuleId": 8,
      "inputId": 1,
      "color": "#0c8e15"
    },
    {
      "id": 8,
      "outputModuleId": 10,
      "outputId": 0,
      "inputModuleId": 12,
      "inputId": 0,
      "color": "#c91847"
    }
  ]
}