{
  "version": "1.1.6",
  "modules": [
    {
      "id": 1,
      "plugin": "Core",
      "version": "1.1.6",
      "model": "AudioInterface",
      "params": [],
      "leftModuleId": 19,
      "data": {
        "audio": {
          "driver": 1,
          "deviceName": "hw:HDA Intel,0",
          "offset": 0,
          "maxChannels": 8,
          "sampleRate": 44100,
          "blockSize": 256
        }
      },
      "pos": [
        38,
        1
      ]
    },
    {
      "id": 17,
      "plugin": "AudibleInstruments",
      "version": "1.3.1",
      "model": "Plaits",
      "params": [
        {
          "id": 0,
          "value": 0.0
        },
        {
          "id": 1,
          "value": 0.0
        },
        {
          "id": 2,
          "value": -1.58333337
        },
        {
          "id": 3,
          "value": 0.602000117
        },
        {
          "id": 4,
          "value": 0.714500725
        },
        {
          "id": 5,
          "value": 0.5
        },
        {
          "id": 6,
          "value": 0.0
        },
        {
          "id": 7,
          "value": 0.0
        },
        {
          "id": 8,
          "value": 0.0
        },
        {
          "id": 9,
          "value": 0.5
        },
        {
          "id": 10,
          "value": 0.5
        }
      ],
      "leftModuleId": 18,
      "data": {
        "lowCpu": false,
        "model": 0
      },
      "pos": [
        36,
        0
      ]
    },
    {
      "id": 18,
      "plugin": "AudibleInstruments",
      "version": "1.3.1",
      "model": "Plaits",
      "params": [
        {
          "id": 0,
          "value": 0.0
        },
        {
          "id": 1,
          "value": 0.0
        },
        {
          "id": 2,
          "value": 1.0
        },
        {
          "id": 3,
          "value": 0.5
        },
        {
          "id": 4,
          "value": 0.585499883
        },
        {
          "id": 5,
          "value": 0.772999942
        },
        {
          "id": 6,
          "value": 0.0
        },
        {
          "id": 7,
          "value": 0.0
        },
        {
          "id": 8,
          "value": 0.0
        },
        {
          "id": 9,
          "value": 0.5
        },
        {
          "id": 10,
          "value": 0.5
        }
      ],
      "leftModuleId": 23,
      "rightModuleId": 17,
      "data": {
        "lowCpu": false,
        "model": 3
      },
      "pos": [
        24,
        0
      ]
    },
    {
      "id": 19,
      "plugin": "AudibleInstruments",
      "version": "1.3.1",
      "model": "Blinds",
      "params": [
        {
          "id": 0,
          "value": 0.606000066
        },
        {
          "id": 1,
          "value": 0.194999933
        },
        {
          "id": 2,
          "value": 0.0
        },
        {
          "id": 3,
          "value": 0.0
        },
        {
          "id": 4,
          "value": 0.0
        },
        {
          "id": 5,
          "value": 0.0
        },
        {
          "id": 6,
          "value": 0.0
        },
        {
          "id": 7,
          "value": 0.0
        }
      ],
      "leftModuleId": 25,
      "rightModuleId": 1,
      "pos": [
        26,
        1
      ]
    },
    {
      "id": 20,
      "plugin": "Bogaudio",
      "version": "1.1.32",
      "model": "Bogaudio-AddrSeq",
      "params": [
        {
          "id": 0,
          "value": 4.0
        },
        {
          "id": 1,
          "value": 1.0
        },
        {
          "id": 2,
          "value": 0.0
        },
        {
          "id": 3,
          "value": 0.372292757
        },
        {
          "id": 4,
          "value": -0.621270061
        },
        {
          "id": 5,
          "value": -0.939137816
        },
        {
          "id": 6,
          "value": -0.2898736
        },
        {
          "id": 7,
          "value": -0.338074923
        },
        {
          "id": 8,
          "value": 0.671108723
        },
        {
          "id": 9,
          "value": -0.636000395
        },
        {
          "id": 10,
          "value": -0.161097407
        }
      ],
      "leftModuleId": 22,
      "rightModuleId": 24,
      "data": {
        "poly_input": 0,
        "select_on_clock": false,
        "triggered_select": false,
        "reverse_on_negative_clock": false,
        "range_offset": 0.0,
        "range_scale": 1.0
      },
      "pos": [
        9,
        0
      ]
    },
    {
      "id": 21,
      "plugin": "JW-Modules",
      "version": "1.0.11",
      "model": "SimpleClock",
      "params": [
        {
          "id": 0,
          "value": 1.0
        },
        {
          "id": 1,
          "value": 0.0
        },
        {
          "id": 2,
          "value": -2.0
        },
        {
          "id": 3,
          "value": 0.0
        }
      ],
      "rightModuleId": 22,
      "data": {
        "running": true
      },
      "pos": [
        0,
        0
      ]
    },
    {
      "id": 22,
      "plugin": "Fundamental",
      "version": "1.4.0",
      "model": "Merge",
      "params": [],
      "leftModuleId": 21,
      "rightModuleId": 20,
      "data": {
        "channels": -1
      },
      "pos": [
        4,
        0
      ]
    },
    {
      "id": 23,
      "plugin": "Fundamental",
      "version": "1.4.0",
      "model": "Split",
      "params": [],
      "leftModuleId": 24,
      "rightModuleId": 18,
      "pos": [
        19,
        0
      ]
    },
    {
      "id": 24,
      "plugin": "JW-Modules",
      "version": "1.0.11",
      "model": "Quantizer",
      "params": [
        {
          "id": 0,
          "value": 0.0
        },
        {
          "id": 1,
          "value": 5.0
        }
      ],
      "leftModuleId": 20,
      "rightModuleId": 23,
      "data": {},
      "pos": [
        15,
        0
      ]
    },
    {
      "id": 25,
      "plugin": "Core",
      "version": "1.1.6",
      "model": "Notes",
      "params": [],
      "rightModuleId": 19,
      "text": "grammatica 001 - 2020-07-28\n\nSingle sequence played over with different clocks, thanks to polyphonic cables.",
      "pos": [
        10,
        1
      ]
    }
  ],
  "cables": [
    {
      "id": 0,
      "outputModuleId": 19,
      "outputId": 3,
      "inputModuleId": 1,
      "inputId": 0,
      "color": "#c9b70e"
    },
    {
      "id": 1,
      "outputModuleId": 19,
      "outputId": 3,
      "inputModuleId": 1,
      "inputId": 1,
      "color": "#0c8e15"
    },
    {
      "id": 2,
      "outputModuleId": 18,
      "outputId": 0,
      "inputModuleId": 19,
      "inputId": 0,
      "color": "#c91847"
    },
    {
      "id": 3,
      "outputModuleId": 17,
      "outputId": 0,
      "inputModuleId": 19,
      "inputId": 1,
      "color": "#0986ad"
    },
    {
      "id": 6,
      "outputModuleId": 22,
      "outputId": 0,
      "inputModuleId": 20,
      "inputId": 0,
      "color": "#c91847"
    },
    {
      "id": 7,
      "outputModuleId": 21,
      "outputId": 0,
      "inputModuleId": 22,
      "inputId": 0,
      "color": "#0986ad"
    },
    {
      "id": 9,
      "outputModuleId": 23,
      "outputId": 0,
      "inputModuleId": 18,
      "inputId": 7,
      "color": "#0c8e15"
    },
    {
      "id": 10,
      "outputModuleId": 23,
      "outputId": 1,
      "inputModuleId": 17,
      "inputId": 7,
      "color": "#c91847"
    },
    {
      "id": 11,
      "outputModuleId": 21,
      "outputId": 0,
      "inputModuleId": 18,
      "inputId": 5,
      "color": "#0986ad"
    },
    {
      "id": 4,
      "outputModuleId": 20,
      "outputId": 0,
      "inputModuleId": 24,
      "inputId": 2,
      "color": "#c9b70e"
    },
    {
      "id": 13,
      "outputModuleId": 24,
      "outputId": 0,
      "inputModuleId": 23,
      "inputId": 0,
      "color": "#0c8e15"
    },
    {
      "id": 8,
      "outputModuleId": 21,
      "outputId": 3,
      "inputModuleId": 22,
      "inputId": 1,
      "color": "#c9b70e"
    }
  ]
}
