{
  "version": "1.1.6",
  "modules": [
    {
      "id": 1,
      "plugin": "Core",
      "version": "1.1.6",
      "model": "AudioInterface",
      "params": [],
      "rightModuleId": 91,
      "data": {
        "audio": {
          "driver": 1,
          "deviceName": "hw:HDA Intel,0",
          "offset": 0,
          "maxChannels": 8,
          "sampleRate": 48000,
          "blockSize": 1024
        }
      },
      "pos": [
        0,
        0
      ]
    },
    {
      "id": 86,
      "plugin": "KautenjaDSP-PotatoChips",
      "version": "1.11.0",
      "model": "Blocks",
      "params": [
        {
          "id": 0,
          "value": -1.80545115
        },
        {
          "id": 1,
          "value": -1.64360344
        },
        {
          "id": 2,
          "value": -0.704740286
        },
        {
          "id": 3,
          "value": 1.31726074
        },
        {
          "id": 4,
          "value": -0.880650401
        },
        {
          "id": 5,
          "value": -0.861463189
        },
        {
          "id": 6,
          "value": -0.174983621
        },
        {
          "id": 7,
          "value": -0.00893247128
        },
        {
          "id": 8,
          "value": 245.0
        },
        {
          "id": 9,
          "value": 250.0
        },
        {
          "id": 10,
          "value": 220.0
        },
        {
          "id": 11,
          "value": 97.0
        },
        {
          "id": 12,
          "value": 0.0
        },
        {
          "id": 13,
          "value": 0.0
        },
        {
          "id": 14,
          "value": 0.0
        },
        {
          "id": 15,
          "value": 0.0
        }
      ],
      "leftModuleId": 91,
      "rightModuleId": 87,
      "data": {
        "shape1": 3,
        "shape2": 0,
        "shape3": 0,
        "shape4": 5
      },
      "pos": [
        20,
        0
      ]
    },
    {
      "id": 87,
      "plugin": "Fundamental",
      "version": "1.4.0",
      "model": "VCMixer",
      "params": [
        {
          "id": 0,
          "value": 1.0
        },
        {
          "id": 1,
          "value": 1.0
        },
        {
          "id": 2,
          "value": 1.0
        },
        {
          "id": 3,
          "value": 1.0
        },
        {
          "id": 4,
          "value": 1.0
        }
      ],
      "leftModuleId": 86,
      "rightModuleId": 92,
      "pos": [
        30,
        0
      ]
    },
    {
      "id": 91,
      "plugin": "VultModulesFree",
      "version": "1.18",
      "model": "Unstabile",
      "params": [
        {
          "id": 0,
          "value": 0.23149997
        },
        {
          "id": 1,
          "value": 0.370499998
        },
        {
          "id": 2,
          "value": 0.104999989
        },
        {
          "id": 3,
          "value": 0.42900002
        },
        {
          "id": 4,
          "value": 0.5
        },
        {
          "id": 5,
          "value": 0.0
        },
        {
          "id": 6,
          "value": 0.630000174
        },
        {
          "id": 7,
          "value": 0.306000024
        }
      ],
      "leftModuleId": 1,
      "rightModuleId": 86,
      "pos": [
        10,
        0
      ]
    },
    {
      "id": 92,
      "plugin": "RPJ",
      "version": "1.0.4",
      "model": "Grendel",
      "params": [
        {
          "id": 0,
          "value": -0.869000077
        },
        {
          "id": 1,
          "value": -1.9400003
        },
        {
          "id": 2,
          "value": -5.82499981
        },
        {
          "id": 3,
          "value": 1.0
        },
        {
          "id": 4,
          "value": 0.0
        }
      ],
      "leftModuleId": 87,
      "pos": [
        40,
        0
      ]
    }
  ],
  "cables": [
    {
      "id": 44,
      "outputModuleId": 86,
      "outputId": 3,
      "inputModuleId": 87,
      "inputId": 4,
      "color": "#0c8e15"
    },
    {
      "id": 45,
      "outputModuleId": 86,
      "outputId": 2,
      "inputModuleId": 87,
      "inputId": 3,
      "color": "#c91847"
    },
    {
      "id": 46,
      "outputModuleId": 86,
      "outputId": 1,
      "inputModuleId": 87,
      "inputId": 2,
      "color": "#0986ad"
    },
    {
      "id": 47,
      "outputModuleId": 86,
      "outputId": 0,
      "inputModuleId": 87,
      "inputId": 1,
      "color": "#c9b70e"
    },
    {
      "id": 59,
      "outputModuleId": 87,
      "outputId": 0,
      "inputModuleId": 91,
      "inputId": 0,
      "color": "#c9b70e"
    },
    {
      "id": 62,
      "outputModuleId": 92,
      "outputId": 8,
      "inputModuleId": 91,
      "inputId": 1,
      "color": "#0986ad"
    },
    {
      "id": 63,
      "outputModuleId": 92,
      "outputId": 5,
      "inputModuleId": 86,
      "inputId": 6,
      "color": "#c9b70e"
    },
    {
      "id": 64,
      "outputModuleId": 92,
      "outputId": 10,
      "inputModuleId": 86,
      "inputId": 5,
      "color": "#0c8e15"
    },
    {
      "id": 65,
      "outputModuleId": 92,
      "outputId": 3,
      "inputModuleId": 91,
      "inputId": 2,
      "color": "#c91847"
    },
    {
      "id": 66,
      "outputModuleId": 92,
      "outputId": 7,
      "inputModuleId": 91,
      "inputId": 4,
      "color": "#0986ad"
    },
    {
      "id": 61,
      "outputModuleId": 91,
      "outputId": 0,
      "inputModuleId": 1,
      "inputId": 1,
      "color": "#c91847"
    },
    {
      "id": 60,
      "outputModuleId": 91,
      "outputId": 0,
      "inputModuleId": 1,
      "inputId": 0,
      "color": "#0c8e15"
    }
  ]
}