{
  "version": "1.1.6",
  "modules": [
    {
      "id": 1,
      "plugin": "Core",
      "version": "1.1.6",
      "model": "AudioInterface",
      "params": [],
      "rightModuleId": 106,
      "data": {
        "audio": {
          "driver": 1,
          "deviceName": "hw:HDA Intel,0",
          "offset": 0,
          "maxChannels": 8,
          "sampleRate": 48000,
          "blockSize": 1024
        }
      },
      "pos": [
        0,
        0
      ]
    },
    {
      "id": 93,
      "plugin": "ImpromptuModular",
      "version": "1.1.12",
      "model": "Tact1",
      "params": [
        {
          "id": 0,
          "value": 2.35999942
        },
        {
          "id": 1,
          "value": 0.100000001
        },
        {
          "id": 2,
          "value": 0.00999999978
        },
        {
          "id": 3,
          "value": 1.0
        }
      ],
      "leftModuleId": 117,
      "rightModuleId": 101,
      "data": {
        "panelTheme": 0,
        "cv": 2.35999942,
        "rateMultiplier": 1.0,
        "autoReturn": -1
      },
      "pos": [
        50,
        0
      ]
    },
    {
      "id": 100,
      "plugin": "CountModula",
      "version": "1.15.1",
      "model": "BooleanXOR",
      "params": [
        {
          "id": 0,
          "value": 0.0
        }
      ],
      "leftModuleId": 101,
      "rightModuleId": 112,
      "data": {
        "moduleVersion": 1.29999995,
        "theme": 0
      },
      "pos": [
        59,
        0
      ]
    },
    {
      "id": 101,
      "plugin": "Bogaudio",
      "version": "1.1.37",
      "model": "Bogaudio-LLFO",
      "params": [
        {
          "id": 0,
          "value": 0.290565968
        },
        {
          "id": 1,
          "value": 0.0
        },
        {
          "id": 2,
          "value": 4.0
        },
        {
          "id": 3,
          "value": 0.0
        },
        {
          "id": 4,
          "value": 1.0
        }
      ],
      "leftModuleId": 93,
      "rightModuleId": 100,
      "data": {
        "output_sampling": 0.0,
        "pulse_width": -0.851063788,
        "smoothing": 0.0
      },
      "pos": [
        56,
        0
      ]
    },
    {
      "id": 102,
      "plugin": "Bogaudio",
      "version": "1.1.37",
      "model": "Bogaudio-LLFO",
      "params": [
        {
          "id": 0,
          "value": -2.14836264
        },
        {
          "id": 1,
          "value": 0.0
        },
        {
          "id": 2,
          "value": 4.0
        },
        {
          "id": 3,
          "value": 0.0
        },
        {
          "id": 4,
          "value": 1.0
        }
      ],
      "leftModuleId": 113,
      "rightModuleId": 115,
      "data": {
        "output_sampling": 0.0,
        "pulse_width": -0.851063788,
        "smoothing": 0.0
      },
      "pos": [
        71,
        0
      ]
    },
    {
      "id": 103,
      "plugin": "Fundamental",
      "version": "1.4.0",
      "model": "Quantizer",
      "params": [],
      "leftModuleId": 125,
      "rightModuleId": 120,
      "data": {
        "enabledNotes": [
          true,
          false,
          false,
          false,
          true,
          true,
          false,
          true,
          false,
          true,
          false,
          true
        ]
      },
      "pos": [
        30,
        0
      ]
    },
    {
      "id": 105,
      "plugin": "Fundamental",
      "version": "1.4.0",
      "model": "VCA-1",
      "params": [
        {
          "id": 0,
          "value": 1.0
        },
        {
          "id": 1,
          "value": 1.0
        }
      ],
      "leftModuleId": 122,
      "rightModuleId": 125,
      "pos": [
        21,
        0
      ]
    },
    {
      "id": 106,
      "plugin": "NYSTHI",
      "version": "1.0.17",
      "model": "AttackDecay",
      "params": [
        {
          "id": 0,
          "value": 0.0254999977
        },
        {
          "id": 1,
          "value": 0.176499993
        },
        {
          "id": 2,
          "value": 0.0
        },
        {
          "id": 3,
          "value": 0.54400003
        },
        {
          "id": 4,
          "value": 0.5
        },
        {
          "id": 5,
          "value": 0.0
        }
      ],
      "leftModuleId": 1,
      "rightModuleId": 123,
      "data": {
        "m_looped": false
      },
      "pos": [
        10,
        0
      ]
    },
    {
      "id": 112,
      "plugin": "CountModula",
      "version": "1.15.1",
      "model": "BooleanXOR",
      "params": [
        {
          "id": 0,
          "value": 0.0
        }
      ],
      "leftModuleId": 100,
      "rightModuleId": 113,
      "data": {
        "moduleVersion": 1.29999995,
        "theme": 0
      },
      "pos": [
        63,
        0
      ]
    },
    {
      "id": 113,
      "plugin": "CountModula",
      "version": "1.15.1",
      "model": "BooleanXOR",
      "params": [
        {
          "id": 0,
          "value": 0.0
        }
      ],
      "leftModuleId": 112,
      "rightModuleId": 102,
      "data": {
        "moduleVersion": 1.29999995,
        "theme": 0
      },
      "pos": [
        67,
        0
      ]
    },
    {
      "id": 115,
      "plugin": "Bogaudio",
      "version": "1.1.37",
      "model": "Bogaudio-LLFO",
      "params": [
        {
          "id": 0,
          "value": -2.52879071
        },
        {
          "id": 1,
          "value": 0.0
        },
        {
          "id": 2,
          "value": 4.0
        },
        {
          "id": 3,
          "value": 0.0
        },
        {
          "id": 4,
          "value": 1.0
        }
      ],
      "leftModuleId": 102,
      "rightModuleId": 116,
      "data": {
        "output_sampling": 0.0,
        "pulse_width": -0.851063788,
        "smoothing": 0.0
      },
      "pos": [
        74,
        0
      ]
    },
    {
      "id": 116,
      "plugin": "Bogaudio",
      "version": "1.1.37",
      "model": "Bogaudio-LLFO",
      "params": [
        {
          "id": 0,
          "value": -2.96329021
        },
        {
          "id": 1,
          "value": 0.0
        },
        {
          "id": 2,
          "value": 4.0
        },
        {
          "id": 3,
          "value": 0.0
        },
        {
          "id": 4,
          "value": 1.0
        }
      ],
      "leftModuleId": 115,
      "data": {
        "output_sampling": 0.0,
        "pulse_width": -0.851063788,
        "smoothing": 0.0
      },
      "pos": [
        77,
        0
      ]
    },
    {
      "id": 117,
      "plugin": "ImpromptuModular",
      "version": "1.1.12",
      "model": "Tact1",
      "params": [
        {
          "id": 0,
          "value": 3.9199996
        },
        {
          "id": 1,
          "value": 0.100000001
        },
        {
          "id": 2,
          "value": 0.00999999978
        },
        {
          "id": 3,
          "value": 1.0
        }
      ],
      "leftModuleId": 118,
      "rightModuleId": 93,
      "data": {
        "panelTheme": 0,
        "cv": 3.9199996,
        "rateMultiplier": 1.0,
        "autoReturn": -1
      },
      "pos": [
        44,
        0
      ]
    },
    {
      "id": 118,
      "plugin": "ImpromptuModular",
      "version": "1.1.12",
      "model": "Tact1",
      "params": [
        {
          "id": 0,
          "value": 0.0
        },
        {
          "id": 1,
          "value": 0.100000001
        },
        {
          "id": 2,
          "value": 0.00999999978
        },
        {
          "id": 3,
          "value": 1.0
        }
      ],
      "leftModuleId": 120,
      "rightModuleId": 117,
      "data": {
        "panelTheme": 0,
        "cv": 0.0,
        "rateMultiplier": 1.0,
        "autoReturn": -1
      },
      "pos": [
        38,
        0
      ]
    },
    {
      "id": 120,
      "plugin": "Fundamental",
      "version": "1.4.0",
      "model": "Merge",
      "params": [],
      "leftModuleId": 103,
      "rightModuleId": 118,
      "data": {
        "channels": -1
      },
      "pos": [
        33,
        0
      ]
    },
    {
      "id": 122,
      "plugin": "Fundamental",
      "version": "1.4.0",
      "model": "Merge",
      "params": [],
      "leftModuleId": 124,
      "rightModuleId": 105,
      "data": {
        "channels": -1
      },
      "pos": [
        16,
        0
      ]
    },
    {
      "id": 123,
      "plugin": "NYSTHI",
      "version": "1.0.17",
      "model": "AttackDecay",
      "params": [
        {
          "id": 0,
          "value": 0.0254999977
        },
        {
          "id": 1,
          "value": 0.176499993
        },
        {
          "id": 2,
          "value": 0.0
        },
        {
          "id": 3,
          "value": 0.549999833
        },
        {
          "id": 4,
          "value": 0.5
        },
        {
          "id": 5,
          "value": 0.0
        }
      ],
      "leftModuleId": 106,
      "rightModuleId": 124,
      "data": {
        "m_looped": false
      },
      "pos": [
        12,
        0
      ]
    },
    {
      "id": 124,
      "plugin": "NYSTHI",
      "version": "1.0.17",
      "model": "AttackDecay",
      "params": [
        {
          "id": 0,
          "value": 0.0254999977
        },
        {
          "id": 1,
          "value": 0.176499993
        },
        {
          "id": 2,
          "value": 0.0
        },
        {
          "id": 3,
          "value": 0.592000008
        },
        {
          "id": 4,
          "value": 0.5
        },
        {
          "id": 5,
          "value": 0.0
        }
      ],
      "leftModuleId": 123,
      "rightModuleId": 122,
      "data": {
        "m_looped": false
      },
      "pos": [
        14,
        0
      ]
    },
    {
      "id": 125,
      "plugin": "Fundamental",
      "version": "1.4.0",
      "model": "VCO2",
      "params": [
        {
          "id": 0,
          "value": 1.0
        },
        {
          "id": 1,
          "value": 1.0
        },
        {
          "id": 2,
          "value": -14.9999914
        },
        {
          "id": 3,
          "value": 0.96600008
        },
        {
          "id": 4,
          "value": 1.0
        }
      ],
      "leftModuleId": 105,
      "rightModuleId": 103,
      "pos": [
        24,
        0
      ]
    },
    {
      "id": 126,
      "plugin": "repelzen",
      "version": "1.1.0",
      "model": "refold",
      "params": [
        {
          "id": 0,
          "value": 4.7249999
        },
        {
          "id": 1,
          "value": 0.0
        },
        {
          "id": 2,
          "value": -0.371999979
        },
        {
          "id": 3,
          "value": 0.0
        },
        {
          "id": 4,
          "value": 2.0
        }
      ],
      "leftModuleId": 127,
      "data": {
        "alternativeMode": false
      },
      "pos": [
        18,
        1
      ]
    },
    {
      "id": 127,
      "plugin": "Fundamental",
      "version": "1.4.0",
      "model": "VCF",
      "params": [
        {
          "id": 0,
          "value": 0.563000143
        },
        {
          "id": 1,
          "value": 0.5
        },
        {
          "id": 2,
          "value": 0.508500099
        },
        {
          "id": 3,
          "value": 1.0
        },
        {
          "id": 4,
          "value": 0.175500005
        }
      ],
      "leftModuleId": 128,
      "rightModuleId": 126,
      "pos": [
        10,
        1
      ]
    },
    {
      "id": 128,
      "plugin": "Bogaudio",
      "version": "1.1.37",
      "model": "Bogaudio-XFade",
      "params": [
        {
          "id": 0,
          "value": 0.192000285
        },
        {
          "id": 1,
          "value": 0.5
        },
        {
          "id": 2,
          "value": 0.0
        }
      ],
      "rightModuleId": 127,
      "data": {},
      "pos": [
        7,
        1
      ]
    }
  ],
  "cables": [
    {
      "id": 74,
      "outputModuleId": 101,
      "outputId": 0,
      "inputModuleId": 100,
      "inputId": 0,
      "color": "#c9b70e"
    },
    {
      "id": 97,
      "outputModuleId": 101,
      "outputId": 0,
      "inputModuleId": 112,
      "inputId": 0,
      "color": "#0c8e15"
    },
    {
      "id": 98,
      "outputModuleId": 101,
      "outputId": 0,
      "inputModuleId": 113,
      "inputId": 0,
      "color": "#c91847"
    },
    {
      "id": 99,
      "outputModuleId": 102,
      "outputId": 0,
      "inputModuleId": 100,
      "inputId": 1,
      "color": "#0986ad"
    },
    {
      "id": 100,
      "outputModuleId": 115,
      "outputId": 0,
      "inputModuleId": 112,
      "inputId": 1,
      "color": "#c9b70e"
    },
    {
      "id": 101,
      "outputModuleId": 116,
      "outputId": 0,
      "inputModuleId": 113,
      "inputId": 1,
      "color": "#0c8e15"
    },
    {
      "id": 102,
      "outputModuleId": 118,
      "outputId": 0,
      "inputModuleId": 120,
      "inputId": 0,
      "color": "#0986ad"
    },
    {
      "id": 103,
      "outputModuleId": 117,
      "outputId": 0,
      "inputModuleId": 120,
      "inputId": 1,
      "color": "#c9b70e"
    },
    {
      "id": 104,
      "outputModuleId": 93,
      "outputId": 0,
      "inputModuleId": 120,
      "inputId": 2,
      "color": "#0c8e15"
    },
    {
      "id": 105,
      "outputModuleId": 120,
      "outputId": 0,
      "inputModuleId": 103,
      "inputId": 0,
      "color": "#c91847"
    },
    {
      "id": 107,
      "outputModuleId": 122,
      "outputId": 0,
      "inputModuleId": 105,
      "inputId": 0,
      "color": "#c9b70e"
    },
    {
      "id": 108,
      "outputModuleId": 106,
      "outputId": 0,
      "inputModuleId": 122,
      "inputId": 0,
      "color": "#0c8e15"
    },
    {
      "id": 109,
      "outputModuleId": 100,
      "outputId": 0,
      "inputModuleId": 106,
      "inputId": 3,
      "color": "#c91847"
    },
    {
      "id": 110,
      "outputModuleId": 112,
      "outputId": 0,
      "inputModuleId": 123,
      "inputId": 3,
      "color": "#0986ad"
    },
    {
      "id": 111,
      "outputModuleId": 113,
      "outputId": 0,
      "inputModuleId": 124,
      "inputId": 3,
      "color": "#c9b70e"
    },
    {
      "id": 106,
      "outputModuleId": 103,
      "outputId": 0,
      "inputModuleId": 125,
      "inputId": 0,
      "color": "#0986ad"
    },
    {
      "id": 78,
      "outputModuleId": 125,
      "outputId": 0,
      "inputModuleId": 105,
      "inputId": 1,
      "color": "#c9b70e"
    },
    {
      "id": 112,
      "outputModuleId": 123,
      "outputId": 0,
      "inputModuleId": 122,
      "inputId": 1,
      "color": "#0c8e15"
    },
    {
      "id": 113,
      "outputModuleId": 124,
      "outputId": 0,
      "inputModuleId": 122,
      "inputId": 2,
      "color": "#c91847"
    },
    {
      "id": 85,
      "outputModuleId": 105,
      "outputId": 0,
      "inputModuleId": 126,
      "inputId": 0,
      "color": "#c9b70e"
    },
    {
      "id": 115,
      "outputModuleId": 126,
      "outputId": 0,
      "inputModuleId": 127,
      "inputId": 3,
      "color": "#c9b70e"
    },
    {
      "id": 118,
      "outputModuleId": 103,
      "outputId": 0,
      "inputModuleId": 127,
      "inputId": 0,
      "color": "#0986ad"
    },
    {
      "id": 116,
      "outputModuleId": 127,
      "outputId": 0,
      "inputModuleId": 128,
      "inputId": 2,
      "color": "#0c8e15"
    },
    {
      "id": 119,
      "outputModuleId": 105,
      "outputId": 0,
      "inputModuleId": 128,
      "inputId": 1,
      "color": "#c9b70e"
    },
    {
      "id": 120,
      "outputModuleId": 128,
      "outputId": 0,
      "inputModuleId": 1,
      "inputId": 0,
      "color": "#0c8e15"
    },
    {
      "id": 121,
      "outputModuleId": 128,
      "outputId": 0,
      "inputModuleId": 1,
      "inputId": 1,
      "color": "#c91847"
    }
  ]
}