{
  "version": "1.1.6",
  "modules": [
    {
      "id": 1,
      "plugin": "Core",
      "version": "1.1.6",
      "model": "AudioInterface",
      "params": [],
      "leftModuleId": 19,
      "data": {
        "audio": {
          "driver": 1,
          "deviceName": "hw:HDA Intel,0",
          "offset": 0,
          "maxChannels": 8,
          "sampleRate": 48000,
          "blockSize": 1024
        }
      },
      "pos": [
        75,
        0
      ]
    },
    {
      "id": 18,
      "plugin": "NYSTHI",
      "version": "1.0.17",
      "model": "mix8",
      "params": [
        {
          "id": 0,
          "value": 0.0
        },
        {
          "id": 1,
          "value": 0.0
        },
        {
          "id": 2,
          "value": 0.0
        },
        {
          "id": 3,
          "value": 0.0
        },
        {
          "id": 4,
          "value": 0.0
        },
        {
          "id": 5,
          "value": 0.0
        },
        {
          "id": 6,
          "value": 0.0
        },
        {
          "id": 7,
          "value": 0.0
        },
        {
          "id": 8,
          "value": 0.0
        },
        {
          "id": 9,
          "value": 0.0
        },
        {
          "id": 10,
          "value": 0.0
        },
        {
          "id": 11,
          "value": 0.0
        },
        {
          "id": 12,
          "value": 0.0
        },
        {
          "id": 13,
          "value": 0.0
        },
        {
          "id": 14,
          "value": 0.0
        },
        {
          "id": 15,
          "value": 0.0
        },
        {
          "id": 16,
          "value": 0.0
        },
        {
          "id": 17,
          "value": 0.0
        },
        {
          "id": 18,
          "value": 0.0
        },
        {
          "id": 19,
          "value": 0.0
        },
        {
          "id": 20,
          "value": 0.0
        },
        {
          "id": 21,
          "value": 0.0
        },
        {
          "id": 22,
          "value": 0.0
        },
        {
          "id": 23,
          "value": 0.0
        },
        {
          "id": 24,
          "value": 0.0
        },
        {
          "id": 25,
          "value": 0.0
        },
        {
          "id": 26,
          "value": 0.0
        },
        {
          "id": 27,
          "value": 0.0
        },
        {
          "id": 28,
          "value": 0.0
        },
        {
          "id": 29,
          "value": 0.0
        },
        {
          "id": 30,
          "value": 0.0
        },
        {
          "id": 31,
          "value": 0.0
        },
        {
          "id": 32,
          "value": 0.0
        },
        {
          "id": 33,
          "value": 0.0
        },
        {
          "id": 34,
          "value": 0.0
        },
        {
          "id": 35,
          "value": 0.0
        },
        {
          "id": 36,
          "value": 0.0
        },
        {
          "id": 37,
          "value": 0.0
        },
        {
          "id": 38,
          "value": 0.0
        },
        {
          "id": 39,
          "value": 0.0
        }
      ],
      "leftModuleId": 48,
      "rightModuleId": 19,
      "data": {
        "m_channels": [
          0.990028143,
          0.5,
          false,
          false,
          0.610000014,
          0.5,
          false,
          false,
          1.0,
          0.5,
          false,
          false,
          1.0,
          0.5,
          false,
          false,
          1.0,
          0.5,
          false,
          false,
          1.0,
          0.5,
          false,
          false,
          1.0,
          0.5,
          false,
          false,
          1.0,
          0.5,
          false,
          false
        ],
        "m_master_volume": 1.0,
        "m_master_mute_trig": false,
        "m_low_power": false,
        "m_cvcompatible": false,
        "m_show_post_out": false,
        "m_post_outputs_unaffected_by_solo_mode": false,
        "m_attenuation": 1.0,
        "m_limiting_mode": 0,
        "m_poly_out": 8
      },
      "pos": [
        57,
        0
      ]
    },
    {
      "id": 19,
      "plugin": "VCV-Recorder",
      "version": "1.1.0",
      "model": "Recorder",
      "params": [
        {
          "id": 0,
          "value": 1.0
        },
        {
          "id": 1,
          "value": 0.0
        }
      ],
      "leftModuleId": 18,
      "rightModuleId": 1,
      "data": {
        "format": "flac",
        "path": "/home/gg/downloads/audio/recordings/vcv/vcv-session.flac",
        "incrementPath": true,
        "sampleRate": 48000,
        "depth": 16,
        "bitRate": 256000,
        "videoBitRate": 2048000
      },
      "pos": [
        70,
        0
      ]
    },
    {
      "id": 48,
      "plugin": "AudibleInstruments",
      "version": "1.5.0",
      "model": "Clouds",
      "params": [
        {
          "id": 0,
          "value": 0.0
        },
        {
          "id": 1,
          "value": 0.0
        },
        {
          "id": 2,
          "value": 0.0
        },
        {
          "id": 3,
          "value": 0.564500093
        },
        {
          "id": 4,
          "value": 0.311378568
        },
        {
          "id": 5,
          "value": -0.333000004
        },
        {
          "id": 6,
          "value": 0.785000324
        },
        {
          "id": 7,
          "value": 0.801499903
        },
        {
          "id": 8,
          "value": 0.5
        },
        {
          "id": 9,
          "value": 0.672000051
        },
        {
          "id": 10,
          "value": 0.966094136
        },
        {
          "id": 11,
          "value": 0.200000003
        },
        {
          "id": 12,
          "value": 0.400000006
        }
      ],
      "leftModuleId": 52,
      "rightModuleId": 18,
      "data": {
        "playback": 0,
        "quality": 2,
        "blendMode": 2
      },
      "pos": [
        39,
        0
      ]
    },
    {
      "id": 52,
      "plugin": "repelzen",
      "version": "1.1.0",
      "model": "refold",
      "params": [
        {
          "id": 0,
          "value": 1.52499866
        },
        {
          "id": 1,
          "value": 0.0
        },
        {
          "id": 2,
          "value": 0.0
        },
        {
          "id": 3,
          "value": -0.521831632
        },
        {
          "id": 4,
          "value": 1.0
        }
      ],
      "leftModuleId": 54,
      "rightModuleId": 48,
      "data": {
        "alternativeMode": false
      },
      "pos": [
        35,
        0
      ]
    },
    {
      "id": 54,
      "plugin": "FehlerFabrik-Suite",
      "version": "1.1.2",
      "model": "PSIOP",
      "params": [
        {
          "id": 0,
          "value": -1.56998503
        },
        {
          "id": 1,
          "value": 0.0613757223
        },
        {
          "id": 2,
          "value": -2.37567925
        },
        {
          "id": 3,
          "value": 11.0
        },
        {
          "id": 4,
          "value": 33.0
        },
        {
          "id": 5,
          "value": 4.0
        },
        {
          "id": 6,
          "value": 0.541883707
        },
        {
          "id": 7,
          "value": 0.34199062
        },
        {
          "id": 8,
          "value": 0.612881362
        },
        {
          "id": 9,
          "value": 0.473831356
        },
        {
          "id": 10,
          "value": 0.580711126
        },
        {
          "id": 11,
          "value": 1.0
        },
        {
          "id": 12,
          "value": 1.0
        }
      ],
      "leftModuleId": 57,
      "rightModuleId": 52,
      "data": {
        "DC Blocking": true,
        "Speed Looping": false,
        "FM Index Modulation": false,
        "Operator Resyncing": false
      },
      "pos": [
        17,
        0
      ]
    },
    {
      "id": 57,
      "plugin": "RJModules",
      "version": "1.7.2",
      "model": "Euclidian",
      "params": [
        {
          "id": 0,
          "value": 5.0
        },
        {
          "id": 1,
          "value": 16.0
        },
        {
          "id": 2,
          "value": 0.0
        },
        {
          "id": 3,
          "value": 1.0
        }
      ],
      "rightModuleId": 54,
      "data": {},
      "pos": [
        7,
        0
      ]
    },
    {
      "id": 62,
      "plugin": "JW-Modules",
      "version": "1.0.30",
      "model": "SimpleClock",
      "params": [
        {
          "id": 0,
          "value": 1.0
        },
        {
          "id": 1,
          "value": 0.0
        },
        {
          "id": 2,
          "value": -2.0
        },
        {
          "id": 3,
          "value": 0.0
        }
      ],
      "data": {
        "clockMult": 1,
        "running": false
      },
      "pos": [
        0,
        0
      ]
    },
    {
      "id": 63,
      "plugin": "TinyTricks",
      "version": "1.5.0",
      "model": "SH16",
      "params": [],
      "data": {
        "skin": 0,
        "forcebright": false
      },
      "pos": [
        41,
        1
      ]
    },
    {
      "id": 64,
      "plugin": "TinyTricks",
      "version": "1.5.0",
      "model": "SH16",
      "params": [],
      "leftModuleId": 65,
      "data": {
        "skin": 0,
        "forcebright": false
      },
      "pos": [
        18,
        1
      ]
    },
    {
      "id": 65,
      "plugin": "CountModula",
      "version": "1.16.0",
      "model": "ClockDivider",
      "params": [
        {
          "id": 0,
          "value": 0.0
        },
        {
          "id": 1,
          "value": 0.0
        },
        {
          "id": 2,
          "value": 0.0
        }
      ],
      "rightModuleId": 64,
      "data": {
        "moduleVersion": 2,
        "count": 347,
        "mode": 0,
        "doTrigs": false,
        "countUp": false,
        "theme": 0
      },
      "pos": [
        10,
        1
      ]
    },
    {
      "id": 66,
      "plugin": "AlrightDevices",
      "version": "1.0.3",
      "model": "Chronoblob2",
      "params": [
        {
          "id": 0,
          "value": 0.235210896
        },
        {
          "id": 1,
          "value": 0.663609564
        },
        {
          "id": 2,
          "value": 0.582506001
        },
        {
          "id": 3,
          "value": -0.0312430859
        },
        {
          "id": 4,
          "value": -0.251144081
        },
        {
          "id": 5,
          "value": 0.499766946
        },
        {
          "id": 6,
          "value": 0.191521287
        },
        {
          "id": 7,
          "value": 0.0
        },
        {
          "id": 8,
          "value": 1.0
        },
        {
          "id": 9,
          "value": 0.0
        }
      ],
      "data": {
        "delay_mode": 1,
        "hold_behavior": 0,
        "sync_prescaler": 6
      },
      "pos": [
        49,
        1
      ]
    }
  ],
  "cables": [
    {
      "id": 32,
      "outputModuleId": 18,
      "outputId": 0,
      "inputModuleId": 19,
      "inputId": 2,
      "color": "#c9b70e"
    },
    {
      "id": 33,
      "outputModuleId": 18,
      "outputId": 1,
      "inputModuleId": 19,
      "inputId": 3,
      "color": "#0c8e15"
    },
    {
      "id": 34,
      "outputModuleId": 18,
      "outputId": 0,
      "inputModuleId": 1,
      "inputId": 0,
      "color": "#0986ad"
    },
    {
      "id": 35,
      "outputModuleId": 18,
      "outputId": 1,
      "inputModuleId": 1,
      "inputId": 1,
      "color": "#c9b70e"
    },
    {
      "id": 68,
      "outputModuleId": 48,
      "outputId": 1,
      "inputModuleId": 18,
      "inputId": 9,
      "color": "#0c8e15"
    },
    {
      "id": 67,
      "outputModuleId": 48,
      "outputId": 0,
      "inputModuleId": 18,
      "inputId": 0,
      "color": "#c9b70e"
    },
    {
      "id": 74,
      "outputModuleId": 52,
      "outputId": 0,
      "inputModuleId": 48,
      "inputId": 6,
      "color": "#0986ad"
    },
    {
      "id": 78,
      "outputModuleId": 54,
      "outputId": 0,
      "inputModuleId": 52,
      "inputId": 0,
      "color": "#c9b70e"
    },
    {
      "id": 83,
      "outputModuleId": 57,
      "outputId": 0,
      "inputModuleId": 54,
      "inputId": 9,
      "color": "#0c8e15"
    },
    {
      "id": 88,
      "outputModuleId": 62,
      "outputId": 0,
      "inputModuleId": 57,
      "inputId": 0,
      "color": "#c91847"
    },
    {
      "id": 86,
      "outputModuleId": 57,
      "outputId": 0,
      "inputModuleId": 63,
      "inputId": 0,
      "color": "#c9b70e"
    },
    {
      "id": 89,
      "outputModuleId": 63,
      "outputId": 8,
      "inputModuleId": 48,
      "inputId": 3,
      "color": "#0986ad"
    },
    {
      "id": 90,
      "outputModuleId": 63,
      "outputId": 9,
      "inputModuleId": 48,
      "inputId": 9,
      "color": "#c9b70e"
    },
    {
      "id": 91,
      "outputModuleId": 63,
      "outputId": 1,
      "inputModuleId": 48,
      "inputId": 4,
      "color": "#0c8e15"
    },
    {
      "id": 87,
      "outputModuleId": 63,
      "outputId": 0,
      "inputModuleId": 48,
      "inputId": 2,
      "color": "#0c8e15"
    },
    {
      "id": 94,
      "outputModuleId": 64,
      "outputId": 0,
      "inputModuleId": 54,
      "inputId": 2,
      "color": "#0c8e15"
    },
    {
      "id": 92,
      "outputModuleId": 64,
      "outputId": 8,
      "inputModuleId": 54,
      "inputId": 3,
      "color": "#0986ad"
    },
    {
      "id": 93,
      "outputModuleId": 64,
      "outputId": 1,
      "inputModuleId": 54,
      "inputId": 5,
      "color": "#c9b70e"
    },
    {
      "id": 95,
      "outputModuleId": 64,
      "outputId": 9,
      "inputModuleId": 54,
      "inputId": 6,
      "color": "#c91847"
    },
    {
      "id": 96,
      "outputModuleId": 64,
      "outputId": 2,
      "inputModuleId": 54,
      "inputId": 7,
      "color": "#0986ad"
    },
    {
      "id": 97,
      "outputModuleId": 57,
      "outputId": 0,
      "inputModuleId": 65,
      "inputId": 0,
      "color": "#c9b70e"
    },
    {
      "id": 98,
      "outputModuleId": 65,
      "outputId": 1,
      "inputModuleId": 64,
      "inputId": 0,
      "color": "#c91847"
    },
    {
      "id": 102,
      "outputModuleId": 65,
      "outputId": 3,
      "inputModuleId": 48,
      "inputId": 0,
      "color": "#0986ad"
    },
    {
      "id": 103,
      "outputModuleId": 52,
      "outputId": 0,
      "inputModuleId": 66,
      "inputId": 5,
      "color": "#0c8e15"
    },
    {
      "id": 104,
      "outputModuleId": 66,
      "outputId": 0,
      "inputModuleId": 18,
      "inputId": 1,
      "color": "#c91847"
    },
    {
      "id": 105,
      "outputModuleId": 66,
      "outputId": 1,
      "inputModuleId": 18,
      "inputId": 10,
      "color": "#0986ad"
    },
    {
      "id": 106,
      "outputModuleId": 62,
      "outputId": 0,
      "inputModuleId": 66,
      "inputId": 7,
      "color": "#c9b70e"
    },
    {
      "id": 107,
      "outputModuleId": 64,
      "outputId": 10,
      "inputModuleId": 54,
      "inputId": 4,
      "color": "#0c8e15"
    }
  ]
}