{
  "version": "1.1.6",
  "modules": [
    {
      "id": 1,
      "plugin": "Core",
      "version": "1.1.6",
      "model": "AudioInterface",
      "params": [],
      "data": {
        "audio": {
          "driver": 1,
          "deviceName": "hw:HDA Intel,0",
          "offset": 0,
          "maxChannels": 8,
          "sampleRate": 48000,
          "blockSize": 1024
        }
      },
      "pos": [
        0,
        0
      ]
    },
    {
      "id": 105,
      "plugin": "Fundamental",
      "version": "1.4.0",
      "model": "LFO",
      "params": [
        {
          "id": 0,
          "value": 1.0
        },
        {
          "id": 1,
          "value": 1.0
        },
        {
          "id": 2,
          "value": -0.890002668
        },
        {
          "id": 3,
          "value": 0.0
        },
        {
          "id": 4,
          "value": 0.0
        },
        {
          "id": 5,
          "value": 0.111429922
        },
        {
          "id": 6,
          "value": 0.0
        }
      ],
      "leftModuleId": 107,
      "pos": [
        53,
        0
      ]
    },
    {
      "id": 107,
      "plugin": "Fundamental",
      "version": "1.4.0",
      "model": "VCF",
      "params": [
        {
          "id": 0,
          "value": 0.446000636
        },
        {
          "id": 1,
          "value": 0.5
        },
        {
          "id": 2,
          "value": 0.973000169
        },
        {
          "id": 3,
          "value": 0.200000003
        },
        {
          "id": 4,
          "value": 0.561000347
        }
      ],
      "leftModuleId": 108,
      "rightModuleId": 105,
      "pos": [
        45,
        0
      ]
    },
    {
      "id": 108,
      "plugin": "LindenbergResearch",
      "version": "1.3.3",
      "model": "Sangster",
      "params": [
        {
          "id": 0,
          "value": 0.493000001
        },
        {
          "id": 1,
          "value": 0.50850004
        },
        {
          "id": 2,
          "value": 0.408000052
        },
        {
          "id": 3,
          "value": 0.611000001
        },
        {
          "id": 4,
          "value": 0.0
        },
        {
          "id": 5,
          "value": 0.464399934
        },
        {
          "id": 6,
          "value": 0.0
        },
        {
          "id": 7,
          "value": 0.0
        },
        {
          "id": 8,
          "value": 0.0
        }
      ],
      "leftModuleId": 110,
      "rightModuleId": 107,
      "gestaltID": 1,
      "gradient": true,
      "patina": false,
      "patina_i_x": false,
      "patina_i_y": true,
      "patina_a_x": 546.150757,
      "patina_a_y": 44.8022842,
      "overlay": false,
      "overlay_r": 0.102147579,
      "overlay_g": 0.0705456734,
      "overlay_b": 0.993393362,
      "overlay_a": 0.281410307,
      "pos": [
        26,
        0
      ]
    },
    {
      "id": 109,
      "plugin": "Bogaudio",
      "version": "1.1.38",
      "model": "Bogaudio-Mult",
      "params": [],
      "data": {},
      "pos": [
        11,
        0
      ]
    },
    {
      "id": 110,
      "plugin": "Befaco",
      "version": "1.2.0",
      "model": "SpringReverb",
      "params": [
        {
          "id": 0,
          "value": 0.262999952
        },
        {
          "id": 1,
          "value": 0.91599977
        },
        {
          "id": 2,
          "value": 0.0
        },
        {
          "id": 3,
          "value": 0.5
        }
      ],
      "rightModuleId": 108,
      "pos": [
        18,
        0
      ]
    },
    {
      "id": 111,
      "plugin": "Fundamental",
      "version": "1.4.0",
      "model": "LFO",
      "params": [
        {
          "id": 0,
          "value": 0.0
        },
        {
          "id": 1,
          "value": 1.0
        },
        {
          "id": 2,
          "value": -3.39200377
        },
        {
          "id": 3,
          "value": 0.0
        },
        {
          "id": 4,
          "value": 0.0
        },
        {
          "id": 5,
          "value": 0.111429922
        },
        {
          "id": 6,
          "value": 0.0
        }
      ],
      "leftModuleId": 112,
      "pos": [
        67,
        0
      ]
    },
    {
      "id": 112,
      "plugin": "Bogaudio",
      "version": "1.1.38",
      "model": "Bogaudio-SampleHold",
      "params": [
        {
          "id": 0,
          "value": 0.0
        },
        {
          "id": 1,
          "value": 0.0
        },
        {
          "id": 2,
          "value": 0.0
        },
        {
          "id": 3,
          "value": 0.0
        },
        {
          "id": 4,
          "value": 0.0
        },
        {
          "id": 5,
          "value": 0.0
        }
      ],
      "rightModuleId": 111,
      "data": {
        "poly_input": 0,
        "noise_type": 0,
        "range_offset": 1.0,
        "range_scale": 5.0,
        "smoothing_ms": 0.0
      },
      "pos": [
        64,
        0
      ]
    }
  ],
  "cables": [
    {
      "id": 106,
      "outputModuleId": 107,
      "outputId": 0,
      "inputModuleId": 108,
      "inputId": 0,
      "color": "#c91847"
    },
    {
      "id": 105,
      "outputModuleId": 105,
      "outputId": 3,
      "inputModuleId": 107,
      "inputId": 3,
      "color": "#0c8e15"
    },
    {
      "id": 107,
      "outputModuleId": 108,
      "outputId": 0,
      "inputModuleId": 110,
      "inputId": 2,
      "color": "#0986ad"
    },
    {
      "id": 110,
      "outputModuleId": 110,
      "outputId": 0,
      "inputModuleId": 109,
      "inputId": 0,
      "color": "#c91847"
    },
    {
      "id": 111,
      "outputModuleId": 109,
      "outputId": 0,
      "inputModuleId": 1,
      "inputId": 0,
      "color": "#0986ad"
    },
    {
      "id": 112,
      "outputModuleId": 109,
      "outputId": 1,
      "inputModuleId": 1,
      "inputId": 1,
      "color": "#c9b70e"
    },
    {
      "id": 117,
      "outputModuleId": 112,
      "outputId": 0,
      "inputModuleId": 107,
      "inputId": 0,
      "color": "#0986ad"
    },
    {
      "id": 116,
      "outputModuleId": 111,
      "outputId": 3,
      "inputModuleId": 112,
      "inputId": 0,
      "color": "#c91847"
    },
    {
      "id": 114,
      "outputModuleId": 112,
      "outputId": 1,
      "inputModuleId": 108,
      "inputId": 2,
      "color": "#0986ad"
    }
  ]
}