{
  "version": "1.1.6",
  "modules": [
    {
      "id": 1,
      "plugin": "Core",
      "version": "1.1.6",
      "model": "AudioInterface",
      "params": [],
      "rightModuleId": 9,
      "data": {
        "audio": {
          "driver": 1,
          "deviceName": "hw:HDA Intel,0",
          "offset": 0,
          "maxChannels": 8,
          "sampleRate": 48000,
          "blockSize": 1024
        }
      },
      "pos": [
        0,
        0
      ]
    },
    {
      "id": 3,
      "plugin": "AudibleInstruments",
      "version": "1.5.0",
      "model": "Braids",
      "params": [
        {
          "id": 0,
          "value": -0.228583336
        },
        {
          "id": 1,
          "value": -0.757287979
        },
        {
          "id": 2,
          "value": 0.7586025
        },
        {
          "id": 3,
          "value": 0.172293365
        },
        {
          "id": 4,
          "value": -0.995956421
        },
        {
          "id": 5,
          "value": 0.769284666
        },
        {
          "id": 6,
          "value": 0.370176017
        }
      ],
      "leftModuleId": 6,
      "data": {
        "settings": [
          17,
          0,
          0,
          0,
          0,
          0,
          0,
          0,
          0,
          0,
          0,
          0,
          0,
          0,
          0,
          0,
          0,
          0,
          0,
          0
        ],
        "lowCpu": false
      },
      "pos": [
        62,
        0
      ]
    },
    {
      "id": 4,
      "plugin": "AudibleInstruments",
      "version": "1.5.0",
      "model": "Tides2",
      "params": [
        {
          "id": 0,
          "value": 0.0
        },
        {
          "id": 1,
          "value": 0.0
        },
        {
          "id": 2,
          "value": 0.0
        },
        {
          "id": 3,
          "value": 47.4651108
        },
        {
          "id": 4,
          "value": 0.650764406
        },
        {
          "id": 5,
          "value": 0.676968753
        },
        {
          "id": 6,
          "value": 0.0542567372
        },
        {
          "id": 7,
          "value": 0.507999837
        },
        {
          "id": 8,
          "value": -0.169096589
        },
        {
          "id": 9,
          "value": 0.645753384
        },
        {
          "id": 10,
          "value": 0.775352597
        },
        {
          "id": 11,
          "value": 0.0166482925
        },
        {
          "id": 12,
          "value": 1.0
        }
      ],
      "leftModuleId": 7,
      "rightModuleId": 6,
      "data": {
        "range": 1,
        "output": 1,
        "ramp": 1
      },
      "pos": [
        36,
        0
      ]
    },
    {
      "id": 6,
      "plugin": "AudibleInstruments",
      "version": "1.5.0",
      "model": "Veils",
      "params": [
        {
          "id": 0,
          "value": 0.525000095
        },
        {
          "id": 1,
          "value": 0.513000071
        },
        {
          "id": 2,
          "value": 0.50850004
        },
        {
          "id": 3,
          "value": 0.488999993
        },
        {
          "id": 4,
          "value": 0.315826058
        },
        {
          "id": 5,
          "value": 0.793760121
        },
        {
          "id": 6,
          "value": 0.145750761
        },
        {
          "id": 7,
          "value": 0.0853689313
        }
      ],
      "leftModuleId": 4,
      "rightModuleId": 3,
      "pos": [
        50,
        0
      ]
    },
    {
      "id": 7,
      "plugin": "AudibleInstruments",
      "version": "1.5.0",
      "model": "Tides2",
      "params": [
        {
          "id": 0,
          "value": 0.0
        },
        {
          "id": 1,
          "value": 0.0
        },
        {
          "id": 2,
          "value": 0.0
        },
        {
          "id": 3,
          "value": 0.0
        },
        {
          "id": 4,
          "value": 0.94912684
        },
        {
          "id": 5,
          "value": 0.344963133
        },
        {
          "id": 6,
          "value": 0.745095074
        },
        {
          "id": 7,
          "value": 0.00754582882
        },
        {
          "id": 8,
          "value": -0.499502778
        },
        {
          "id": 9,
          "value": 0.589078546
        },
        {
          "id": 10,
          "value": -0.89948988
        },
        {
          "id": 11,
          "value": 0.154823422
        },
        {
          "id": 12,
          "value": 0.738043189
        }
      ],
      "leftModuleId": 9,
      "rightModuleId": 4,
      "data": {
        "range": 0,
        "output": 3,
        "ramp": 1
      },
      "pos": [
        22,
        0
      ]
    },
    {
      "id": 9,
      "plugin": "AlrightDevices",
      "version": "1.0.3",
      "model": "Chronoblob2",
      "params": [
        {
          "id": 0,
          "value": 0.5
        },
        {
          "id": 1,
          "value": 0.534500003
        },
        {
          "id": 2,
          "value": 0.5
        },
        {
          "id": 3,
          "value": 0.0
        },
        {
          "id": 4,
          "value": 0.0
        },
        {
          "id": 5,
          "value": 0.0
        },
        {
          "id": 6,
          "value": 0.0
        },
        {
          "id": 7,
          "value": 0.0
        },
        {
          "id": 8,
          "value": 0.0
        },
        {
          "id": 9,
          "value": 0.0
        }
      ],
      "leftModuleId": 1,
      "rightModuleId": 7,
      "data": {
        "delay_mode": 0,
        "hold_behavior": 0,
        "sync_prescaler": 6
      },
      "pos": [
        10,
        0
      ]
    }
  ],
  "cables": [
    {
      "id": 7,
      "outputModuleId": 4,
      "outputId": 0,
      "inputModuleId": 6,
      "inputId": 0,
      "color": "#c9b70e"
    },
    {
      "id": 9,
      "outputModuleId": 6,
      "outputId": 0,
      "inputModuleId": 3,
      "inputId": 1,
      "color": "#c91847"
    },
    {
      "id": 2,
      "outputModuleId": 4,
      "outputId": 1,
      "inputModuleId": 6,
      "inputId": 1,
      "color": "#0986ad"
    },
    {
      "id": 10,
      "outputModuleId": 6,
      "outputId": 1,
      "inputModuleId": 3,
      "inputId": 2,
      "color": "#0986ad"
    },
    {
      "id": 3,
      "outputModuleId": 4,
      "outputId": 2,
      "inputModuleId": 6,
      "inputId": 2,
      "color": "#c9b70e"
    },
    {
      "id": 11,
      "outputModuleId": 6,
      "outputId": 2,
      "inputModuleId": 3,
      "inputId": 3,
      "color": "#c9b70e"
    },
    {
      "id": 8,
      "outputModuleId": 4,
      "outputId": 3,
      "inputModuleId": 6,
      "inputId": 3,
      "color": "#0c8e15"
    },
    {
      "id": 12,
      "outputModuleId": 6,
      "outputId": 3,
      "inputModuleId": 3,
      "inputId": 4,
      "color": "#0c8e15"
    },
    {
      "id": 15,
      "outputModuleId": 7,
      "outputId": 0,
      "inputModuleId": 4,
      "inputId": 0,
      "color": "#0c8e15"
    },
    {
      "id": 16,
      "outputModuleId": 7,
      "outputId": 1,
      "inputModuleId": 4,
      "inputId": 1,
      "color": "#c91847"
    },
    {
      "id": 17,
      "outputModuleId": 7,
      "outputId": 2,
      "inputModuleId": 4,
      "inputId": 4,
      "color": "#0986ad"
    },
    {
      "id": 18,
      "outputModuleId": 7,
      "outputId": 3,
      "inputModuleId": 4,
      "inputId": 5,
      "color": "#c9b70e"
    },
    {
      "id": 6,
      "outputModuleId": 3,
      "outputId": 0,
      "inputModuleId": 9,
      "inputId": 5,
      "color": "#0986ad"
    },
    {
      "id": 19,
      "outputModuleId": 9,
      "outputId": 0,
      "inputModuleId": 1,
      "inputId": 1,
      "color": "#0c8e15"
    },
    {
      "id": 20,
      "outputModuleId": 9,
      "outputId": 1,
      "inputModuleId": 1,
      "inputId": 0,
      "color": "#c91847"
    }
  ]
}