{
  "version": "1.1.6",
  "modules": [
    {
      "id": 1,
      "plugin": "Core",
      "version": "1.1.6",
      "model": "AudioInterface",
      "params": [],
      "rightModuleId": 12,
      "data": {
        "audio": {
          "driver": 1,
          "deviceName": "hw:HDA Intel,0",
          "offset": 0,
          "maxChannels": 8,
          "sampleRate": 48000,
          "blockSize": 1024
        }
      },
      "pos": [
        0,
        0
      ]
    },
    {
      "id": 4,
      "plugin": "CountModula",
      "version": "1.13.0",
      "model": "AnalogueShiftRegister",
      "params": [],
      "leftModuleId": 13,
      "rightModuleId": 5,
      "data": {
        "moduleVersion": 2,
        "theme": 0
      },
      "pos": [
        30,
        0
      ]
    },
    {
      "id": 5,
      "plugin": "HetrickCV",
      "version": "1.0.0",
      "model": "DigitalToAnalog",
      "params": [
        {
          "id": 0,
          "value": 1.0
        },
        {
          "id": 1,
          "value": 0.0
        },
        {
          "id": 2,
          "value": 0.0
        },
        {
          "id": 3,
          "value": 0.0
        }
      ],
      "leftModuleId": 4,
      "rightModuleId": 9,
      "data": {
        "mode": 1,
        "rectMode": 0
      },
      "pos": [
        38,
        0
      ]
    },
    {
      "id": 9,
      "plugin": "Fundamental",
      "version": "1.4.0",
      "model": "Scope",
      "params": [
        {
          "id": 0,
          "value": 0.0
        },
        {
          "id": 1,
          "value": 0.0
        },
        {
          "id": 2,
          "value": 0.0
        },
        {
          "id": 3,
          "value": -10.0
        },
        {
          "id": 4,
          "value": 8.02999878
        },
        {
          "id": 5,
          "value": 0.0
        },
        {
          "id": 6,
          "value": 0.0
        },
        {
          "id": 7,
          "value": 0.0
        }
      ],
      "leftModuleId": 5,
      "data": {
        "lissajous": 0,
        "external": 0
      },
      "pos": [
        50,
        0
      ]
    },
    {
      "id": 10,
      "plugin": "squinkylabs-plug1",
      "version": "1.0.15",
      "model": "squinkylabs-mixm",
      "params": [
        {
          "id": 0,
          "value": 0.75
        },
        {
          "id": 1,
          "value": 0.0
        },
        {
          "id": 2,
          "value": 0.0524999909
        },
        {
          "id": 3,
          "value": 0.544499993
        },
        {
          "id": 4,
          "value": 0.0
        },
        {
          "id": 5,
          "value": 0.0
        },
        {
          "id": 6,
          "value": 0.0
        },
        {
          "id": 7,
          "value": 0.0
        },
        {
          "id": 8,
          "value": 0.0
        },
        {
          "id": 9,
          "value": 0.0
        },
        {
          "id": 10,
          "value": 0.0
        },
        {
          "id": 11,
          "value": 0.0
        },
        {
          "id": 12,
          "value": 0.0
        },
        {
          "id": 13,
          "value": 0.0
        },
        {
          "id": 14,
          "value": 0.0
        },
        {
          "id": 15,
          "value": 0.0
        },
        {
          "id": 16,
          "value": 0.0
        },
        {
          "id": 17,
          "value": 0.0
        },
        {
          "id": 18,
          "value": 0.0
        },
        {
          "id": 19,
          "value": 0.0
        },
        {
          "id": 20,
          "value": 0.0
        },
        {
          "id": 21,
          "value": 0.0
        },
        {
          "id": 22,
          "value": 0.0
        },
        {
          "id": 23,
          "value": 0.0479999594
        },
        {
          "id": 24,
          "value": 0.0
        },
        {
          "id": 25,
          "value": 0.0
        },
        {
          "id": 26,
          "value": 0.0
        },
        {
          "id": 27,
          "value": 0.0
        },
        {
          "id": 28,
          "value": 0.0
        },
        {
          "id": 29,
          "value": 0.0
        },
        {
          "id": 30,
          "value": 0.0
        },
        {
          "id": 31,
          "value": 0.0
        },
        {
          "id": 32,
          "value": 0.0
        },
        {
          "id": 33,
          "value": 0.0
        },
        {
          "id": 34,
          "value": 0.0
        },
        {
          "id": 35,
          "value": 0.0
        },
        {
          "id": 36,
          "value": 0.0
        }
      ],
      "rightModuleId": 14,
      "pos": [
        10,
        1
      ]
    },
    {
      "id": 12,
      "plugin": "Fundamental",
      "version": "1.4.0",
      "model": "VCO",
      "params": [
        {
          "id": 0,
          "value": 1.0
        },
        {
          "id": 1,
          "value": 1.0
        },
        {
          "id": 2,
          "value": -10.3320408
        },
        {
          "id": 3,
          "value": 0.0
        },
        {
          "id": 4,
          "value": 0.458999842
        },
        {
          "id": 5,
          "value": 0.5
        },
        {
          "id": 6,
          "value": 0.0
        }
      ],
      "leftModuleId": 1,
      "rightModuleId": 13,
      "pos": [
        10,
        0
      ]
    },
    {
      "id": 13,
      "plugin": "Fundamental",
      "version": "1.4.0",
      "model": "VCO",
      "params": [
        {
          "id": 0,
          "value": 1.0
        },
        {
          "id": 1,
          "value": 1.0
        },
        {
          "id": 2,
          "value": -36.7740288
        },
        {
          "id": 3,
          "value": 0.0
        },
        {
          "id": 4,
          "value": 0.426000386
        },
        {
          "id": 5,
          "value": 0.5
        },
        {
          "id": 6,
          "value": 0.0
        }
      ],
      "leftModuleId": 12,
      "rightModuleId": 4,
      "pos": [
        20,
        0
      ]
    },
    {
      "id": 14,
      "plugin": "Core",
      "version": "1.1.6",
      "model": "Notes",
      "params": [],
      "leftModuleId": 10,
      "text": "frantume 014 - 2020-12-05\n\nA rungler circuit clone",
      "pos": [
        27,
        1
      ]
    }
  ],
  "cables": [
    {
      "id": 8,
      "outputModuleId": 5,
      "outputId": 0,
      "inputModuleId": 9,
      "inputId": 0,
      "color": "#0c8e15"
    },
    {
      "id": 7,
      "outputModuleId": 4,
      "outputId": 2,
      "inputModuleId": 5,
      "inputId": 7,
      "color": "#c9b70e"
    },
    {
      "id": 6,
      "outputModuleId": 4,
      "outputId": 1,
      "inputModuleId": 5,
      "inputId": 6,
      "color": "#0986ad"
    },
    {
      "id": 5,
      "outputModuleId": 4,
      "outputId": 0,
      "inputModuleId": 5,
      "inputId": 5,
      "color": "#c91847"
    },
    {
      "id": 15,
      "outputModuleId": 10,
      "outputId": 0,
      "inputModuleId": 1,
      "inputId": 0,
      "color": "#c9b70e"
    },
    {
      "id": 16,
      "outputModuleId": 10,
      "outputId": 1,
      "inputModuleId": 1,
      "inputId": 1,
      "color": "#0c8e15"
    },
    {
      "id": 12,
      "outputModuleId": 12,
      "outputId": 1,
      "inputModuleId": 10,
      "inputId": 1,
      "color": "#0c8e15"
    },
    {
      "id": 11,
      "outputModuleId": 12,
      "outputId": 3,
      "inputModuleId": 10,
      "inputId": 0,
      "color": "#c9b70e"
    },
    {
      "id": 3,
      "outputModuleId": 12,
      "outputId": 3,
      "inputModuleId": 4,
      "inputId": 0,
      "color": "#c9b70e"
    },
    {
      "id": 9,
      "outputModuleId": 5,
      "outputId": 0,
      "inputModuleId": 12,
      "inputId": 1,
      "color": "#c91847"
    },
    {
      "id": 13,
      "outputModuleId": 13,
      "outputId": 3,
      "inputModuleId": 10,
      "inputId": 2,
      "color": "#c91847"
    },
    {
      "id": 4,
      "outputModuleId": 13,
      "outputId": 3,
      "inputModuleId": 4,
      "inputId": 1,
      "color": "#0c8e15"
    },
    {
      "id": 14,
      "outputModuleId": 13,
      "outputId": 1,
      "inputModuleId": 10,
      "inputId": 3,
      "color": "#0986ad"
    },
    {
      "id": 10,
      "outputModuleId": 5,
      "outputId": 0,
      "inputModuleId": 13,
      "inputId": 1,
      "color": "#0986ad"
    }
  ]
}