{
  "version": "1.1.6",
  "modules": [
    {
      "id": 1,
      "plugin": "Core",
      "version": "1.1.6",
      "model": "AudioInterface",
      "params": [],
      "rightModuleId": 17,
      "data": {
        "audio": {
          "driver": 1,
          "deviceName": "hw:HDA Intel,0",
          "offset": 0,
          "maxChannels": 8,
          "sampleRate": 48000,
          "blockSize": 1024
        }
      },
      "pos": [
        0,
        0
      ]
    },
    {
      "id": 17,
      "plugin": "SurgeRack",
      "version": "1.7.1.2",
      "model": "SurgeReverb2",
      "params": [
        {
          "id": 0,
          "value": 0.0
        },
        {
          "id": 1,
          "value": 0.5
        },
        {
          "id": 2,
          "value": 0.474999994
        },
        {
          "id": 3,
          "value": 1.0
        },
        {
          "id": 4,
          "value": 1.0
        },
        {
          "id": 5,
          "value": 0.5
        },
        {
          "id": 6,
          "value": 0.200000003
        },
        {
          "id": 7,
          "value": 0.200000003
        },
        {
          "id": 8,
          "value": 0.5
        },
        {
          "id": 9,
          "value": 0.330000013
        },
        {
          "id": 10,
          "value": 0.0
        },
        {
          "id": 11,
          "value": 0.0
        },
        {
          "id": 12,
          "value": 1.0
        },
        {
          "id": 13,
          "value": 0.518499851
        },
        {
          "id": 14,
          "value": 0.0
        },
        {
          "id": 15,
          "value": 0.0
        },
        {
          "id": 16,
          "value": 0.0
        },
        {
          "id": 17,
          "value": 0.0
        },
        {
          "id": 18,
          "value": 0.0
        },
        {
          "id": 19,
          "value": 0.0
        },
        {
          "id": 20,
          "value": 0.0
        },
        {
          "id": 21,
          "value": 0.0
        },
        {
          "id": 22,
          "value": 0.0
        },
        {
          "id": 23,
          "value": 0.0
        },
        {
          "id": 24,
          "value": 0.0
        },
        {
          "id": 25,
          "value": 0.0
        },
        {
          "id": 26,
          "value": 1.0
        },
        {
          "id": 27,
          "value": 0.0
        },
        {
          "id": 28,
          "value": 0.0
        },
        {
          "id": 29,
          "value": 0.0
        },
        {
          "id": 30,
          "value": 0.0
        },
        {
          "id": 31,
          "value": 0.0
        },
        {
          "id": 32,
          "value": 0.0
        },
        {
          "id": 33,
          "value": 0.0
        },
        {
          "id": 34,
          "value": 0.0
        },
        {
          "id": 35,
          "value": 0.0
        },
        {
          "id": 36,
          "value": 0.0
        },
        {
          "id": 37,
          "value": 0.0
        },
        {
          "id": 38,
          "value": 0.0
        },
        {
          "id": 39,
          "value": 0.0
        },
        {
          "id": 40,
          "value": 0.0
        },
        {
          "id": 41,
          "value": 0.0
        },
        {
          "id": 42,
          "value": 0.0
        },
        {
          "id": 43,
          "value": 0.0
        },
        {
          "id": 44,
          "value": 0.0
        },
        {
          "id": 45,
          "value": 0.0
        },
        {
          "id": 46,
          "value": 0.0
        },
        {
          "id": 47,
          "value": 0.0
        },
        {
          "id": 48,
          "value": 0.0
        },
        {
          "id": 49,
          "value": 0.0
        },
        {
          "id": 50,
          "value": 0.0
        }
      ],
      "leftModuleId": 1,
      "data": {
        "comment": "No Comment",
        "buildInfo": "os:linux pluggit: surgegit: buildtime=Sep 10 2020 14:28:13"
      },
      "pos": [
        10,
        0
      ]
    },
    {
      "id": 18,
      "plugin": "FehlerFabrik-Suite",
      "version": "1.1.0",
      "model": "PSIOP",
      "params": [
        {
          "id": 0,
          "value": 2.69509459
        },
        {
          "id": 1,
          "value": -0.13864401
        },
        {
          "id": 2,
          "value": 2.88681412
        },
        {
          "id": 3,
          "value": 12.0
        },
        {
          "id": 4,
          "value": 50.0
        },
        {
          "id": 5,
          "value": 3.0
        },
        {
          "id": 6,
          "value": 0.953559875
        },
        {
          "id": 7,
          "value": 0.920867145
        },
        {
          "id": 8,
          "value": 0.551067173
        },
        {
          "id": 9,
          "value": 0.494809806
        },
        {
          "id": 10,
          "value": -0.519142032
        },
        {
          "id": 11,
          "value": 0.438803911
        },
        {
          "id": 12,
          "value": 0.753011107
        }
      ],
      "rightModuleId": 24,
      "data": {
        "DC Blocking": true,
        "Speed Looping": false
      },
      "pos": [
        30,
        0
      ]
    },
    {
      "id": 21,
      "plugin": "Bogaudio",
      "version": "1.1.35",
      "model": "Bogaudio-LLFO",
      "params": [
        {
          "id": 0,
          "value": 0.968637943
        },
        {
          "id": 1,
          "value": 0.0
        },
        {
          "id": 2,
          "value": 4.0
        },
        {
          "id": 3,
          "value": 0.0
        },
        {
          "id": 4,
          "value": 1.0
        }
      ],
      "leftModuleId": 24,
      "rightModuleId": 23,
      "data": {},
      "pos": [
        51,
        0
      ]
    },
    {
      "id": 23,
      "plugin": "SynthKit",
      "version": "1.0.1",
      "model": "ClockDivider",
      "params": [],
      "leftModuleId": 21,
      "rightModuleId": 27,
      "pos": [
        54,
        0
      ]
    },
    {
      "id": 24,
      "plugin": "Stoermelder-P1",
      "version": "1.7.1",
      "model": "Strip",
      "params": [
        {
          "id": 0,
          "value": 0.0
        },
        {
          "id": 1,
          "value": 0.0
        },
        {
          "id": 2,
          "value": 0.0
        },
        {
          "id": 3,
          "value": 0.0
        },
        {
          "id": 4,
          "value": 0.0
        }
      ],
      "leftModuleId": 18,
      "rightModuleId": 21,
      "data": {
        "panelTheme": 0,
        "mode": 2,
        "onMode": 0,
        "excludedParams": [],
        "randomExcl": 1,
        "randomParamsOnly": false
      },
      "pos": [
        48,
        0
      ]
    },
    {
      "id": 27,
      "plugin": "rackwindows",
      "version": "1.1.2",
      "model": "chorus",
      "params": [
        {
          "id": 0,
          "value": 0.516499937
        },
        {
          "id": 1,
          "value": 0.596999943
        },
        {
          "id": 2,
          "value": 1.0
        },
        {
          "id": 3,
          "value": 0.0
        }
      ],
      "leftModuleId": 23,
      "rightModuleId": 28,
      "data": {
        "quality": 0
      },
      "pos": [
        57,
        0
      ]
    },
    {
      "id": 28,
      "plugin": "Core",
      "version": "1.1.6",
      "model": "Notes",
      "params": [],
      "leftModuleId": 27,
      "text": "frantume 008 - 2020-10-29\n\nDrum sound generator",
      "pos": [
        63,
        0
      ]
    }
  ],
  "cables": [
    {
      "id": 17,
      "outputModuleId": 21,
      "outputId": 0,
      "inputModuleId": 18,
      "inputId": 9,
      "color": "#0986ad"
    },
    {
      "id": 18,
      "outputModuleId": 17,
      "outputId": 0,
      "inputModuleId": 1,
      "inputId": 0,
      "color": "#c9b70e"
    },
    {
      "id": 19,
      "outputModuleId": 17,
      "outputId": 1,
      "inputModuleId": 1,
      "inputId": 1,
      "color": "#0c8e15"
    },
    {
      "id": 21,
      "outputModuleId": 21,
      "outputId": 0,
      "inputModuleId": 23,
      "inputId": 0,
      "color": "#0986ad"
    },
    {
      "id": 22,
      "outputModuleId": 23,
      "outputId": 3,
      "inputModuleId": 24,
      "inputId": 2,
      "color": "#c9b70e"
    },
    {
      "id": 23,
      "outputModuleId": 21,
      "outputId": 0,
      "inputModuleId": 17,
      "inputId": 14,
      "color": "#0c8e15"
    },
    {
      "id": 27,
      "outputModuleId": 27,
      "outputId": 0,
      "inputModuleId": 17,
      "inputId": 0,
      "color": "#0c8e15"
    },
    {
      "id": 28,
      "outputModuleId": 18,
      "outputId": 0,
      "inputModuleId": 27,
      "inputId": 2,
      "color": "#c91847"
    }
  ]
}