{
  "version": "1.1.6",
  "modules": [
    {
      "id": 1,
      "plugin": "Core",
      "version": "1.1.6",
      "model": "AudioInterface",
      "params": [],
      "rightModuleId": 187,
      "data": {
        "audio": {
          "driver": 1,
          "deviceName": "hw:HDA Intel,0",
          "offset": 0,
          "maxChannels": 8,
          "sampleRate": 48000,
          "blockSize": 1024
        }
      },
      "pos": [
        0,
        0
      ]
    },
    {
      "id": 183,
      "plugin": "AudibleInstruments",
      "version": "1.5.0",
      "model": "Ripples",
      "params": [
        {
          "id": 0,
          "value": 0.390000045
        },
        {
          "id": 1,
          "value": 6.39480925
        },
        {
          "id": 2,
          "value": 0.0
        }
      ],
      "leftModuleId": 185,
      "rightModuleId": 184,
      "pos": [
        19,
        0
      ]
    },
    {
      "id": 184,
      "plugin": "AudibleInstruments",
      "version": "1.5.0",
      "model": "Braids",
      "params": [
        {
          "id": 0,
          "value": 0.0
        },
        {
          "id": 1,
          "value": -1.0
        },
        {
          "id": 2,
          "value": 0.0
        },
        {
          "id": 3,
          "value": 0.5
        },
        {
          "id": 4,
          "value": 0.0
        },
        {
          "id": 5,
          "value": 0.5
        },
        {
          "id": 6,
          "value": 0.105000027
        }
      ],
      "leftModuleId": 183,
      "rightModuleId": 191,
      "data": {
        "settings": [
          5,
          0,
          0,
          0,
          0,
          0,
          0,
          0,
          0,
          0,
          0,
          0,
          0,
          0,
          0,
          0,
          0,
          0,
          0,
          0
        ],
        "lowCpu": false
      },
      "pos": [
        27,
        0
      ]
    },
    {
      "id": 185,
      "plugin": "Bogaudio",
      "version": "1.1.35",
      "model": "Bogaudio-LLFO",
      "params": [
        {
          "id": 0,
          "value": 0.0
        },
        {
          "id": 1,
          "value": 0.0
        },
        {
          "id": 2,
          "value": 0.0
        },
        {
          "id": 3,
          "value": 0.0
        },
        {
          "id": 4,
          "value": 1.0
        }
      ],
      "leftModuleId": 186,
      "rightModuleId": 183,
      "data": {},
      "pos": [
        16,
        0
      ]
    },
    {
      "id": 186,
      "plugin": "Bogaudio",
      "version": "1.1.35",
      "model": "Bogaudio-LLFO",
      "params": [
        {
          "id": 0,
          "value": -1.03136253
        },
        {
          "id": 1,
          "value": 0.0
        },
        {
          "id": 2,
          "value": 0.0
        },
        {
          "id": 3,
          "value": 0.0
        },
        {
          "id": 4,
          "value": 1.0
        }
      ],
      "leftModuleId": 187,
      "rightModuleId": 185,
      "data": {},
      "pos": [
        13,
        0
      ]
    },
    {
      "id": 187,
      "plugin": "Bogaudio",
      "version": "1.1.35",
      "model": "Bogaudio-LLFO",
      "params": [
        {
          "id": 0,
          "value": -5.0
        },
        {
          "id": 1,
          "value": 0.0
        },
        {
          "id": 2,
          "value": 0.0
        },
        {
          "id": 3,
          "value": 0.200000003
        },
        {
          "id": 4,
          "value": 0.100000001
        }
      ],
      "leftModuleId": 1,
      "rightModuleId": 186,
      "data": {},
      "pos": [
        10,
        0
      ]
    },
    {
      "id": 190,
      "plugin": "Bogaudio",
      "version": "1.1.35",
      "model": "Bogaudio-LLFO",
      "params": [
        {
          "id": 0,
          "value": -5.0
        },
        {
          "id": 1,
          "value": 0.0
        },
        {
          "id": 2,
          "value": 4.0
        },
        {
          "id": 3,
          "value": 0.0
        },
        {
          "id": 4,
          "value": 1.0
        }
      ],
      "leftModuleId": 191,
      "rightModuleId": 193,
      "data": {},
      "pos": [
        46,
        0
      ]
    },
    {
      "id": 191,
      "plugin": "Fundamental",
      "version": "1.4.0",
      "model": "SequentialSwitch2",
      "params": [
        {
          "id": 0,
          "value": 2.0
        }
      ],
      "leftModuleId": 184,
      "rightModuleId": 190,
      "pos": [
        43,
        0
      ]
    },
    {
      "id": 193,
      "plugin": "Hora-ProcessorsFree",
      "version": "1.0.3",
      "model": "Vacuum",
      "params": [
        {
          "id": 0,
          "value": 3.0
        },
        {
          "id": 1,
          "value": 37018.25
        },
        {
          "id": 2,
          "value": 0.190999925
        },
        {
          "id": 3,
          "value": 0.899999976
        }
      ],
      "leftModuleId": 190,
      "rightModuleId": 194,
      "pos": [
        49,
        0
      ]
    },
    {
      "id": 194,
      "plugin": "Core",
      "version": "1.1.6",
      "model": "Notes",
      "params": [],
      "leftModuleId": 193,
      "text": "frantume 012 - 2020-11-13\n\nA heavy distorted bass track becomes a thunmping kick track. Driven by multiple LLFOs.",
      "pos": [
        57,
        0
      ]
    }
  ],
  "cables": [
    {
      "id": 48,
      "outputModuleId": 184,
      "outputId": 0,
      "inputModuleId": 183,
      "inputId": 3,
      "color": "#c9b70e"
    },
    {
      "id": 51,
      "outputModuleId": 185,
      "outputId": 0,
      "inputModuleId": 183,
      "inputId": 0,
      "color": "#0986ad"
    },
    {
      "id": 52,
      "outputModuleId": 186,
      "outputId": 0,
      "inputModuleId": 184,
      "inputId": 4,
      "color": "#c9b70e"
    },
    {
      "id": 56,
      "outputModuleId": 187,
      "outputId": 0,
      "inputModuleId": 191,
      "inputId": 2,
      "color": "#c9b70e"
    },
    {
      "id": 57,
      "outputModuleId": 190,
      "outputId": 0,
      "inputModuleId": 191,
      "inputId": 0,
      "color": "#0c8e15"
    },
    {
      "id": 58,
      "outputModuleId": 191,
      "outputId": 0,
      "inputModuleId": 183,
      "inputId": 1,
      "color": "#c91847"
    },
    {
      "id": 50,
      "outputModuleId": 183,
      "outputId": 0,
      "inputModuleId": 193,
      "inputId": 2,
      "color": "#c91847"
    },
    {
      "id": 59,
      "outputModuleId": 193,
      "outputId": 0,
      "inputModuleId": 1,
      "inputId": 1,
      "color": "#c9b70e"
    },
    {
      "id": 60,
      "outputModuleId": 193,
      "outputId": 0,
      "inputModuleId": 1,
      "inputId": 0,
      "color": "#0c8e15"
    }
  ]
}