{
  "version": "1.1.6",
  "modules": [
    {
      "id": 1,
      "plugin": "Core",
      "version": "1.1.6",
      "model": "AudioInterface",
      "params": [],
      "rightModuleId": 35,
      "data": {
        "audio": {
          "driver": 1,
          "deviceName": "hw:HDA Intel,0",
          "offset": 0,
          "maxChannels": 8,
          "sampleRate": 48000,
          "blockSize": 1024
        }
      },
      "pos": [
        0,
        0
      ]
    },
    {
      "id": 27,
      "plugin": "AudibleInstruments",
      "version": "1.3.1",
      "model": "Tides2",
      "params": [
        {
          "id": 0,
          "value": 0.0
        },
        {
          "id": 1,
          "value": 0.0
        },
        {
          "id": 2,
          "value": 0.0
        },
        {
          "id": 3,
          "value": 0.0
        },
        {
          "id": 4,
          "value": 0.5
        },
        {
          "id": 5,
          "value": 0.5
        },
        {
          "id": 6,
          "value": 0.5
        },
        {
          "id": 7,
          "value": 1.0
        },
        {
          "id": 8,
          "value": 0.0
        },
        {
          "id": 9,
          "value": 0.0
        },
        {
          "id": 10,
          "value": 1.0
        },
        {
          "id": 11,
          "value": 0.0
        },
        {
          "id": 12,
          "value": 1.0
        }
      ],
      "leftModuleId": 29,
      "rightModuleId": 32,
      "data": {
        "range": 0,
        "output": 3,
        "ramp": 1
      },
      "pos": [
        33,
        0
      ]
    },
    {
      "id": 28,
      "plugin": "AudibleInstruments",
      "version": "1.3.1",
      "model": "Tides2",
      "params": [
        {
          "id": 0,
          "value": 0.0
        },
        {
          "id": 1,
          "value": 0.0
        },
        {
          "id": 2,
          "value": 0.0
        },
        {
          "id": 3,
          "value": 0.0
        },
        {
          "id": 4,
          "value": 0.379999757
        },
        {
          "id": 5,
          "value": 0.5
        },
        {
          "id": 6,
          "value": 0.699500144
        },
        {
          "id": 7,
          "value": 0.5
        },
        {
          "id": 8,
          "value": 0.0
        },
        {
          "id": 9,
          "value": 0.0
        },
        {
          "id": 10,
          "value": 1.0
        },
        {
          "id": 11,
          "value": 0.0
        },
        {
          "id": 12,
          "value": 1.0
        }
      ],
      "leftModuleId": 34,
      "rightModuleId": 31,
      "data": {
        "range": 2,
        "output": 3,
        "ramp": 1
      },
      "pos": [
        53,
        0
      ]
    },
    {
      "id": 29,
      "plugin": "squinkylabs-plug1",
      "version": "1.0.12",
      "model": "squinkylabs-mixm",
      "params": [
        {
          "id": 0,
          "value": 0.75
        },
        {
          "id": 1,
          "value": 0.0
        },
        {
          "id": 2,
          "value": 0.699999988
        },
        {
          "id": 3,
          "value": 0.699999988
        },
        {
          "id": 4,
          "value": 0.699999988
        },
        {
          "id": 5,
          "value": 0.699999988
        },
        {
          "id": 6,
          "value": -0.335999995
        },
        {
          "id": 7,
          "value": -0.131999984
        },
        {
          "id": 8,
          "value": 0.153000027
        },
        {
          "id": 9,
          "value": 0.222000003
        },
        {
          "id": 10,
          "value": 0.0
        },
        {
          "id": 11,
          "value": 0.0
        },
        {
          "id": 12,
          "value": 0.0
        },
        {
          "id": 13,
          "value": 0.0
        },
        {
          "id": 14,
          "value": 0.0
        },
        {
          "id": 15,
          "value": 0.0
        },
        {
          "id": 16,
          "value": 0.0
        },
        {
          "id": 17,
          "value": 0.0
        },
        {
          "id": 18,
          "value": 0.0
        },
        {
          "id": 19,
          "value": 1.0
        },
        {
          "id": 20,
          "value": 1.0
        },
        {
          "id": 21,
          "value": 1.0
        },
        {
          "id": 22,
          "value": 1.0
        },
        {
          "id": 23,
          "value": 0.0
        },
        {
          "id": 24,
          "value": 0.0
        },
        {
          "id": 25,
          "value": 0.0
        },
        {
          "id": 26,
          "value": 0.0
        },
        {
          "id": 27,
          "value": 0.0
        },
        {
          "id": 28,
          "value": 0.0
        },
        {
          "id": 29,
          "value": 0.996000171
        },
        {
          "id": 30,
          "value": 0.0
        },
        {
          "id": 31,
          "value": 0.0
        },
        {
          "id": 32,
          "value": 0.0
        },
        {
          "id": 33,
          "value": 0.0
        },
        {
          "id": 34,
          "value": 0.0
        },
        {
          "id": 35,
          "value": 0.0
        },
        {
          "id": 36,
          "value": 0.0
        }
      ],
      "leftModuleId": 35,
      "rightModuleId": 27,
      "pos": [
        16,
        0
      ]
    },
    {
      "id": 31,
      "plugin": "Bogaudio",
      "version": "1.1.34",
      "model": "Bogaudio-Walk",
      "params": [
        {
          "id": 0,
          "value": 0.100000001
        },
        {
          "id": 1,
          "value": 0.0
        },
        {
          "id": 2,
          "value": 1.0
        }
      ],
      "leftModuleId": 28,
      "rightModuleId": 33,
      "data": {
        "poly_input": 0,
        "jump_mode": "jump"
      },
      "pos": [
        67,
        0
      ]
    },
    {
      "id": 32,
      "plugin": "Bogaudio",
      "version": "1.1.34",
      "model": "Bogaudio-Walk",
      "params": [
        {
          "id": 0,
          "value": 0.30400008
        },
        {
          "id": 1,
          "value": 0.0
        },
        {
          "id": 2,
          "value": 1.0
        }
      ],
      "leftModuleId": 27,
      "rightModuleId": 34,
      "data": {
        "poly_input": 0,
        "jump_mode": "jump"
      },
      "pos": [
        47,
        0
      ]
    },
    {
      "id": 33,
      "plugin": "Bogaudio",
      "version": "1.1.34",
      "model": "Bogaudio-LLFO",
      "params": [
        {
          "id": 0,
          "value": 0.0
        },
        {
          "id": 1,
          "value": 1.0
        },
        {
          "id": 2,
          "value": 0.0
        },
        {
          "id": 3,
          "value": 0.0
        },
        {
          "id": 4,
          "value": 1.0
        }
      ],
      "leftModuleId": 31,
      "rightModuleId": 36,
      "data": {},
      "pos": [
        70,
        0
      ]
    },
    {
      "id": 34,
      "plugin": "Bogaudio",
      "version": "1.1.34",
      "model": "Bogaudio-LLFO",
      "params": [
        {
          "id": 0,
          "value": -0.975000083
        },
        {
          "id": 1,
          "value": 1.0
        },
        {
          "id": 2,
          "value": 0.0
        },
        {
          "id": 3,
          "value": 0.0
        },
        {
          "id": 4,
          "value": 1.0
        }
      ],
      "leftModuleId": 32,
      "rightModuleId": 28,
      "data": {},
      "pos": [
        50,
        0
      ]
    },
    {
      "id": 35,
      "plugin": "AS",
      "version": "1.0.4",
      "model": "ReverbStereoFx",
      "params": [
        {
          "id": 0,
          "value": 0.927500188
        },
        {
          "id": 1,
          "value": 1.0
        },
        {
          "id": 2,
          "value": 0.616999924
        },
        {
          "id": 3,
          "value": 0.0
        }
      ],
      "leftModuleId": 1,
      "rightModuleId": 29,
      "data": {
        "as_FxBypass": [
          false
        ]
      },
      "pos": [
        10,
        0
      ]
    },
    {
      "id": 36,
      "plugin": "Core",
      "version": "1.1.6",
      "model": "Notes",
      "params": [],
      "leftModuleId": 33,
      "text": "frantume 005 - 2020-10-11\n\nOne Tidal Modulator is the conductor. The other Tidal Modulator is the orchestra.",
      "pos": [
        73,
        0
      ]
    }
  ],
  "cables": [
    {
      "id": 11,
      "outputModuleId": 28,
      "outputId": 0,
      "inputModuleId": 29,
      "inputId": 0,
      "color": "#0986ad"
    },
    {
      "id": 12,
      "outputModuleId": 28,
      "outputId": 1,
      "inputModuleId": 29,
      "inputId": 1,
      "color": "#c9b70e"
    },
    {
      "id": 13,
      "outputModuleId": 28,
      "outputId": 2,
      "inputModuleId": 29,
      "inputId": 2,
      "color": "#0c8e15"
    },
    {
      "id": 14,
      "outputModuleId": 28,
      "outputId": 3,
      "inputModuleId": 29,
      "inputId": 3,
      "color": "#c91847"
    },
    {
      "id": 15,
      "outputModuleId": 29,
      "outputId": 0,
      "inputModuleId": 1,
      "inputId": 0,
      "color": "#c9b70e"
    },
    {
      "id": 16,
      "outputModuleId": 29,
      "outputId": 1,
      "inputModuleId": 1,
      "inputId": 1,
      "color": "#0c8e15"
    },
    {
      "id": 17,
      "outputModuleId": 27,
      "outputId": 0,
      "inputModuleId": 29,
      "inputId": 4,
      "color": "#c91847"
    },
    {
      "id": 18,
      "outputModuleId": 27,
      "outputId": 1,
      "inputModuleId": 29,
      "inputId": 5,
      "color": "#0986ad"
    },
    {
      "id": 19,
      "outputModuleId": 27,
      "outputId": 2,
      "inputModuleId": 29,
      "inputId": 6,
      "color": "#c9b70e"
    },
    {
      "id": 20,
      "outputModuleId": 27,
      "outputId": 3,
      "inputModuleId": 29,
      "inputId": 7,
      "color": "#0c8e15"
    },
    {
      "id": 22,
      "outputModuleId": 31,
      "outputId": 0,
      "inputModuleId": 28,
      "inputId": 5,
      "color": "#c9b70e"
    },
    {
      "id": 23,
      "outputModuleId": 32,
      "outputId": 0,
      "inputModuleId": 27,
      "inputId": 5,
      "color": "#0c8e15"
    },
    {
      "id": 24,
      "outputModuleId": 33,
      "outputId": 0,
      "inputModuleId": 28,
      "inputId": 3,
      "color": "#c91847"
    },
    {
      "id": 25,
      "outputModuleId": 34,
      "outputId": 0,
      "inputModuleId": 27,
      "inputId": 3,
      "color": "#0986ad"
    },
    {
      "id": 26,
      "outputModuleId": 29,
      "outputId": 6,
      "inputModuleId": 35,
      "inputId": 0,
      "color": "#c9b70e"
    },
    {
      "id": 27,
      "outputModuleId": 29,
      "outputId": 7,
      "inputModuleId": 35,
      "inputId": 1,
      "color": "#0c8e15"
    },
    {
      "id": 28,
      "outputModuleId": 35,
      "outputId": 0,
      "inputModuleId": 29,
      "inputId": 16,
      "color": "#0c8e15"
    },
    {
      "id": 29,
      "outputModuleId": 35,
      "outputId": 1,
      "inputModuleId": 29,
      "inputId": 17,
      "color": "#c91847"
    }
  ]
}