{
  "version": "1.1.6",
  "modules": [
    {
      "id": 1,
      "plugin": "Core",
      "version": "1.1.6",
      "model": "AudioInterface",
      "params": [],
      "rightModuleId": 13,
      "data": {
        "audio": {
          "driver": 1,
          "deviceName": "hw:HDA Intel,0",
          "offset": 0,
          "maxChannels": 8,
          "sampleRate": 48000,
          "blockSize": 1024
        }
      },
      "pos": [
        0,
        0
      ]
    },
    {
      "id": 4,
      "plugin": "Bogaudio",
      "version": "1.1.35",
      "model": "Bogaudio-FMOp",
      "params": [
        {
          "id": 0,
          "value": -0.75
        },
        {
          "id": 1,
          "value": 0.0
        },
        {
          "id": 2,
          "value": 0.0739210099
        },
        {
          "id": 3,
          "value": 0.316229999
        },
        {
          "id": 4,
          "value": 1.0
        },
        {
          "id": 5,
          "value": 0.316229999
        },
        {
          "id": 6,
          "value": 0.0
        },
        {
          "id": 7,
          "value": 0.0
        },
        {
          "id": 8,
          "value": 0.695499957
        },
        {
          "id": 9,
          "value": 1.0
        },
        {
          "id": 10,
          "value": 1.0
        },
        {
          "id": 11,
          "value": 1.0
        }
      ],
      "leftModuleId": 7,
      "rightModuleId": 5,
      "data": {
        "linearLevel": false
      },
      "pos": [
        49,
        0
      ]
    },
    {
      "id": 5,
      "plugin": "HetrickCV",
      "version": "1.0.0",
      "model": "Dust",
      "params": [
        {
          "id": 0,
          "value": 0.149999931
        },
        {
          "id": 1,
          "value": 0.0
        }
      ],
      "leftModuleId": 4,
      "rightModuleId": 6,
      "pos": [
        59,
        0
      ]
    },
    {
      "id": 6,
      "plugin": "Bogaudio",
      "version": "1.1.35",
      "model": "Bogaudio-RGate",
      "params": [
        {
          "id": 0,
          "value": 0.132499993
        },
        {
          "id": 1,
          "value": 0.0
        },
        {
          "id": 2,
          "value": 0.0
        }
      ],
      "leftModuleId": 5,
      "rightModuleId": 14,
      "data": {
        "reset_mode": 0,
        "initial_clock_seconds": 0.5,
        "poly_input": 4
      },
      "pos": [
        65,
        0
      ]
    },
    {
      "id": 7,
      "plugin": "FehlerFabrik-Suite",
      "version": "1.1.0",
      "model": "Planck",
      "params": [
        {
          "id": 0,
          "value": 16.0
        },
        {
          "id": 1,
          "value": 0.0
        }
      ],
      "leftModuleId": 9,
      "rightModuleId": 4,
      "pos": [
        41,
        0
      ]
    },
    {
      "id": 8,
      "plugin": "ChowDSP",
      "version": "1.4.0",
      "model": "Warp",
      "params": [
        {
          "id": 0,
          "value": 0.276500016
        },
        {
          "id": 1,
          "value": 0.5
        },
        {
          "id": 2,
          "value": 0.5
        },
        {
          "id": 3,
          "value": 0.0
        },
        {
          "id": 4,
          "value": 3.0
        }
      ],
      "leftModuleId": 11,
      "rightModuleId": 10,
      "pos": [
        27,
        0
      ]
    },
    {
      "id": 9,
      "plugin": "Bogaudio",
      "version": "1.1.35",
      "model": "Bogaudio-Walk",
      "params": [
        {
          "id": 0,
          "value": 0.100000001
        },
        {
          "id": 1,
          "value": 1.0
        },
        {
          "id": 2,
          "value": 1.0
        }
      ],
      "leftModuleId": 10,
      "rightModuleId": 7,
      "data": {
        "poly_input": 0,
        "jump_mode": "jump"
      },
      "pos": [
        38,
        0
      ]
    },
    {
      "id": 10,
      "plugin": "Bogaudio",
      "version": "1.1.35",
      "model": "Bogaudio-Walk",
      "params": [
        {
          "id": 0,
          "value": 0.100000001
        },
        {
          "id": 1,
          "value": 1.0
        },
        {
          "id": 2,
          "value": 1.0
        }
      ],
      "leftModuleId": 8,
      "rightModuleId": 9,
      "data": {
        "poly_input": 0,
        "jump_mode": "jump"
      },
      "pos": [
        35,
        0
      ]
    },
    {
      "id": 11,
      "plugin": "ChowDSP",
      "version": "1.4.0",
      "model": "ChowDer",
      "params": [
        {
          "id": 0,
          "value": 0.216000021
        },
        {
          "id": 1,
          "value": -0.663000047
        },
        {
          "id": 2,
          "value": 0.680000007
        },
        {
          "id": 3,
          "value": 0.0
        }
      ],
      "leftModuleId": 12,
      "rightModuleId": 8,
      "pos": [
        21,
        0
      ]
    },
    {
      "id": 12,
      "plugin": "Fundamental",
      "version": "1.4.0",
      "model": "Delay",
      "params": [
        {
          "id": 0,
          "value": 0.702500045
        },
        {
          "id": 1,
          "value": 0.202999964
        },
        {
          "id": 2,
          "value": 0.5
        },
        {
          "id": 3,
          "value": 0.5
        }
      ],
      "leftModuleId": 13,
      "rightModuleId": 11,
      "pos": [
        13,
        0
      ]
    },
    {
      "id": 13,
      "plugin": "Bogaudio",
      "version": "1.1.35",
      "model": "Bogaudio-Walk",
      "params": [
        {
          "id": 0,
          "value": 0.100000001
        },
        {
          "id": 1,
          "value": 0.0
        },
        {
          "id": 2,
          "value": 1.0
        }
      ],
      "leftModuleId": 1,
      "rightModuleId": 12,
      "data": {
        "poly_input": 0,
        "jump_mode": "jump"
      },
      "pos": [
        10,
        0
      ]
    },
    {
      "id": 14,
      "plugin": "Core",
      "version": "1.1.6",
      "model": "Notes",
      "params": [],
      "leftModuleId": 6,
      "text": "frantume 007 - 2020-10-28\n\nDistorted cats in heat.",
      "pos": [
        70,
        0
      ]
    }
  ],
  "cables": [
    {
      "id": 0,
      "outputModuleId": 5,
      "outputId": 0,
      "inputModuleId": 6,
      "inputId": 4,
      "color": "#c9b70e"
    },
    {
      "id": 1,
      "outputModuleId": 6,
      "outputId": 0,
      "inputModuleId": 4,
      "inputId": 5,
      "color": "#0c8e15"
    },
    {
      "id": 4,
      "outputModuleId": 4,
      "outputId": 0,
      "inputModuleId": 7,
      "inputId": 2,
      "color": "#c91847"
    },
    {
      "id": 5,
      "outputModuleId": 7,
      "outputId": 1,
      "inputModuleId": 7,
      "inputId": 0,
      "color": "#0986ad"
    },
    {
      "id": 3,
      "outputModuleId": 7,
      "outputId": 0,
      "inputModuleId": 8,
      "inputId": 0,
      "color": "#0986ad"
    },
    {
      "id": 7,
      "outputModuleId": 8,
      "outputId": 0,
      "inputModuleId": 11,
      "inputId": 0,
      "color": "#c91847"
    },
    {
      "id": 11,
      "outputModuleId": 11,
      "outputId": 0,
      "inputModuleId": 12,
      "inputId": 4,
      "color": "#c91847"
    },
    {
      "id": 12,
      "outputModuleId": 12,
      "outputId": 0,
      "inputModuleId": 1,
      "inputId": 0,
      "color": "#0986ad"
    },
    {
      "id": 13,
      "outputModuleId": 12,
      "outputId": 0,
      "inputModuleId": 1,
      "inputId": 1,
      "color": "#c9b70e"
    },
    {
      "id": 9,
      "outputModuleId": 10,
      "outputId": 0,
      "inputModuleId": 7,
      "inputId": 3,
      "color": "#c9b70e"
    },
    {
      "id": 8,
      "outputModuleId": 9,
      "outputId": 0,
      "inputModuleId": 7,
      "inputId": 1,
      "color": "#0986ad"
    },
    {
      "id": 14,
      "outputModuleId": 13,
      "outputId": 0,
      "inputModuleId": 12,
      "inputId": 0,
      "color": "#0c8e15"
    }
  ]
}