{
  "version": "1.1.6",
  "modules": [
    {
      "id": 1,
      "plugin": "Core",
      "version": "1.1.6",
      "model": "AudioInterface",
      "params": [],
      "rightModuleId": 11,
      "data": {
        "audio": {
          "driver": 1,
          "deviceName": "hw:HDA Intel,0",
          "offset": 0,
          "maxChannels": 8,
          "sampleRate": 48000,
          "blockSize": 1024
        }
      },
      "pos": [
        0,
        0
      ]
    },
    {
      "id": 11,
      "plugin": "HetrickCV",
      "version": "1.0.0",
      "model": "Bitshift",
      "params": [
        {
          "id": 0,
          "value": -0.540000796
        },
        {
          "id": 1,
          "value": -0.26000005
        },
        {
          "id": 2,
          "value": 0.0
        }
      ],
      "leftModuleId": 1,
      "rightModuleId": 21,
      "pos": [
        10,
        0
      ]
    },
    {
      "id": 15,
      "plugin": "ESeries",
      "version": "1.0.2",
      "model": "E340",
      "params": [
        {
          "id": 0,
          "value": -19.1520081
        },
        {
          "id": 1,
          "value": 0.0
        },
        {
          "id": 2,
          "value": 0.353499949
        },
        {
          "id": 3,
          "value": 0.258000165
        },
        {
          "id": 4,
          "value": 0.0
        },
        {
          "id": 5,
          "value": 0.5
        },
        {
          "id": 6,
          "value": 0.0
        }
      ],
      "leftModuleId": 24,
      "rightModuleId": 22,
      "pos": [
        26,
        0
      ]
    },
    {
      "id": 21,
      "plugin": "NYSTHI",
      "version": "1.0.16",
      "model": "StereoChorus2",
      "params": [
        {
          "id": 0,
          "value": 0.450300425
        },
        {
          "id": 1,
          "value": 0.302000016
        },
        {
          "id": 2,
          "value": 0.215999901
        },
        {
          "id": 3,
          "value": 0.41749987
        },
        {
          "id": 4,
          "value": 0.5
        },
        {
          "id": 5,
          "value": 0.0
        },
        {
          "id": 6,
          "value": 0.340000153
        },
        {
          "id": 7,
          "value": 0.0
        },
        {
          "id": 8,
          "value": 0.432000071
        }
      ],
      "leftModuleId": 11,
      "rightModuleId": 24,
      "pos": [
        16,
        0
      ]
    },
    {
      "id": 22,
      "plugin": "RJModules",
      "version": "1.7.2",
      "model": "Noise",
      "params": [
        {
          "id": 0,
          "value": 0.0474999361
        },
        {
          "id": 1,
          "value": 2204.0
        },
        {
          "id": 2,
          "value": 41.9549751
        },
        {
          "id": 3,
          "value": 1.0
        }
      ],
      "leftModuleId": 15,
      "rightModuleId": 26,
      "pos": [
        40,
        0
      ]
    },
    {
      "id": 24,
      "plugin": "Bogaudio",
      "version": "1.1.34",
      "model": "Bogaudio-Walk",
      "params": [
        {
          "id": 0,
          "value": 0.100000001
        },
        {
          "id": 1,
          "value": -0.221999913
        },
        {
          "id": 2,
          "value": 0.505000174
        }
      ],
      "leftModuleId": 21,
      "rightModuleId": 15,
      "data": {
        "poly_input": 0,
        "jump_mode": "jump"
      },
      "pos": [
        23,
        0
      ]
    },
    {
      "id": 26,
      "plugin": "Core",
      "version": "1.1.6",
      "model": "Notes",
      "params": [],
      "leftModuleId": 22,
      "text": "frantume 004 - 2020-10-10\n\nA 340 Cloud Generator and an RJModules Noise passed through a NYSTHI StereoChorusTremolo. The rythmic pattern is generated by a Hetrick Bitshift modulated by BogAudio Walk.",
      "pos": [
        50,
        0
      ]
    }
  ],
  "cables": [
    {
      "id": 0,
      "outputModuleId": 15,
      "outputId": 0,
      "inputModuleId": 11,
      "inputId": 0,
      "color": "#c9b70e"
    },
    {
      "id": 3,
      "outputModuleId": 11,
      "outputId": 0,
      "inputModuleId": 21,
      "inputId": 0,
      "color": "#c9b70e"
    },
    {
      "id": 5,
      "outputModuleId": 21,
      "outputId": 0,
      "inputModuleId": 1,
      "inputId": 0,
      "color": "#c91847"
    },
    {
      "id": 6,
      "outputModuleId": 21,
      "outputId": 1,
      "inputModuleId": 1,
      "inputId": 1,
      "color": "#0986ad"
    },
    {
      "id": 8,
      "outputModuleId": 22,
      "outputId": 0,
      "inputModuleId": 21,
      "inputId": 1,
      "color": "#0c8e15"
    },
    {
      "id": 9,
      "outputModuleId": 22,
      "outputId": 0,
      "inputModuleId": 15,
      "inputId": 1,
      "color": "#c91847"
    },
    {
      "id": 10,
      "outputModuleId": 24,
      "outputId": 0,
      "inputModuleId": 11,
      "inputId": 1,
      "color": "#0986ad"
    }
  ]
}