{
  "version": "1.1.6",
  "modules": [
    {
      "id": 1,
      "plugin": "Core",
      "version": "1.1.6",
      "model": "AudioInterface",
      "params": [],
      "leftModuleId": 23,
      "rightModuleId": 25,
      "data": {
        "audio": {
          "driver": 1,
          "deviceName": "hw:HDA Intel,0",
          "offset": 0,
          "maxChannels": 8,
          "sampleRate": 44100,
          "blockSize": 1024
        }
      },
      "pos": [
        59,
        0
      ]
    },
    {
      "id": 8,
      "plugin": "Fundamental",
      "version": "1.4.0",
      "model": "Delay",
      "params": [
        {
          "id": 0,
          "value": 0.5
        },
        {
          "id": 1,
          "value": 0.0
        },
        {
          "id": 2,
          "value": 0.5
        },
        {
          "id": 3,
          "value": 1.0
        }
      ],
      "leftModuleId": 12,
      "rightModuleId": 21,
      "pos": [
        35,
        0
      ]
    },
    {
      "id": 12,
      "plugin": "Fundamental",
      "version": "1.4.0",
      "model": "SequentialSwitch2",
      "params": [
        {
          "id": 0,
          "value": 2.0
        }
      ],
      "leftModuleId": 14,
      "rightModuleId": 8,
      "pos": [
        32,
        0
      ]
    },
    {
      "id": 14,
      "plugin": "JW-Modules",
      "version": "1.0.11",
      "model": "SimpleClock",
      "params": [
        {
          "id": 0,
          "value": -0.403999925
        },
        {
          "id": 1,
          "value": 0.0
        },
        {
          "id": 2,
          "value": -2.0
        },
        {
          "id": 3,
          "value": 0.0
        }
      ],
      "rightModuleId": 12,
      "data": {
        "running": true
      },
      "pos": [
        28,
        0
      ]
    },
    {
      "id": 15,
      "plugin": "Bogaudio",
      "version": "1.1.31",
      "model": "Bogaudio-FMOp",
      "params": [
        {
          "id": 0,
          "value": -0.75
        },
        {
          "id": 1,
          "value": 0.0
        },
        {
          "id": 2,
          "value": 0.141421005
        },
        {
          "id": 3,
          "value": 0.316229999
        },
        {
          "id": 4,
          "value": 1.0
        },
        {
          "id": 5,
          "value": 0.316229999
        },
        {
          "id": 6,
          "value": 0.0
        },
        {
          "id": 7,
          "value": 0.504000068
        },
        {
          "id": 8,
          "value": 1.0
        },
        {
          "id": 9,
          "value": 1.0
        },
        {
          "id": 10,
          "value": 0.0
        },
        {
          "id": 11,
          "value": 0.0
        }
      ],
      "leftModuleId": 22,
      "data": {
        "linearLevel": false
      },
      "pos": [
        16,
        0
      ]
    },
    {
      "id": 20,
      "plugin": "Fundamental",
      "version": "1.4.0",
      "model": "LFO",
      "params": [
        {
          "id": 0,
          "value": 1.0
        },
        {
          "id": 1,
          "value": 1.0
        },
        {
          "id": 2,
          "value": 2.0
        },
        {
          "id": 3,
          "value": 0.0
        },
        {
          "id": 4,
          "value": 0.0
        },
        {
          "id": 5,
          "value": 0.723440289
        },
        {
          "id": 6,
          "value": 0.0
        }
      ],
      "rightModuleId": 22,
      "pos": [
        0,
        0
      ]
    },
    {
      "id": 21,
      "plugin": "Bogaudio",
      "version": "1.1.31",
      "model": "Bogaudio-SampleHold",
      "params": [
        {
          "id": 0,
          "value": 0.0
        },
        {
          "id": 1,
          "value": 0.0
        },
        {
          "id": 2,
          "value": 0.0
        },
        {
          "id": 3,
          "value": 0.0
        },
        {
          "id": 4,
          "value": 0.0
        },
        {
          "id": 5,
          "value": 0.0
        }
      ],
      "leftModuleId": 8,
      "rightModuleId": 24,
      "data": {
        "poly_input": 0,
        "noise_type": 0,
        "range_offset": 0.0,
        "range_scale": 1.0
      },
      "pos": [
        43,
        0
      ]
    },
    {
      "id": 22,
      "plugin": "Bogaudio",
      "version": "1.1.31",
      "model": "Bogaudio-AddrSeq",
      "params": [
        {
          "id": 0,
          "value": 4.0
        },
        {
          "id": 1,
          "value": 0.0
        },
        {
          "id": 2,
          "value": 0.0
        },
        {
          "id": 3,
          "value": 0.0
        },
        {
          "id": 4,
          "value": 0.0
        },
        {
          "id": 5,
          "value": 0.400000006
        },
        {
          "id": 6,
          "value": 0.600000024
        },
        {
          "id": 7,
          "value": -0.899473071
        },
        {
          "id": 8,
          "value": 0.269715309
        },
        {
          "id": 9,
          "value": 0.542425394
        },
        {
          "id": 10,
          "value": -0.135862947
        }
      ],
      "leftModuleId": 20,
      "rightModuleId": 15,
      "data": {
        "poly_input": 0,
        "select_on_clock": false,
        "triggered_select": false,
        "reverse_on_negative_clock": false,
        "range_offset": 0.0,
        "range_scale": 1.0
      },
      "pos": [
        10,
        0
      ]
    },
    {
      "id": 23,
      "plugin": "VultModulesFree",
      "version": "1.10.1",
      "model": "Stabile",
      "params": [
        {
          "id": 0,
          "value": 0.264499933
        },
        {
          "id": 1,
          "value": 0.0
        },
        {
          "id": 2,
          "value": 0.0
        },
        {
          "id": 3,
          "value": 0.0
        },
        {
          "id": 4,
          "value": 0.5
        },
        {
          "id": 5,
          "value": 0.0
        }
      ],
      "leftModuleId": 24,
      "rightModuleId": 1,
      "pos": [
        49,
        0
      ]
    },
    {
      "id": 24,
      "plugin": "Fundamental",
      "version": "1.4.0",
      "model": "VCA-1",
      "params": [
        {
          "id": 0,
          "value": 0.728500128
        },
        {
          "id": 1,
          "value": 1.0
        }
      ],
      "leftModuleId": 21,
      "rightModuleId": 23,
      "pos": [
        46,
        0
      ]
    },
    {
      "id": 25,
      "plugin": "Core",
      "version": "1.1.6",
      "model": "Notes",
      "params": [],
      "leftModuleId": 1,
      "text": "a minor arraign - 2020-06-15\n\nGlitch producing patch. LFO, ADDR-SEQ and FM-OP are the sound source, a simple 4 notes sequence. Audio input for DELAY is alternatingly switched between audio and feedback, full wet and with no internal feedback. The same clock changes the delay time with a S&H. Audio output is attenuated and filtered.",
      "pos": [
        69,
        0
      ]
    }
  ],
  "cables": [
    {
      "id": 18,
      "outputModuleId": 12,
      "outputId": 0,
      "inputModuleId": 8,
      "inputId": 4,
      "color": "#0c8e15"
    },
    {
      "id": 16,
      "outputModuleId": 8,
      "outputId": 0,
      "inputModuleId": 12,
      "inputId": 2,
      "color": "#0986ad"
    },
    {
      "id": 24,
      "outputModuleId": 14,
      "outputId": 0,
      "inputModuleId": 12,
      "inputId": 0,
      "color": "#0c8e15"
    },
    {
      "id": 26,
      "outputModuleId": 20,
      "outputId": 3,
      "inputModuleId": 15,
      "inputId": 5,
      "color": "#0986ad"
    },
    {
      "id": 21,
      "outputModuleId": 15,
      "outputId": 0,
      "inputModuleId": 12,
      "inputId": 3,
      "color": "#0c8e15"
    },
    {
      "id": 27,
      "outputModuleId": 14,
      "outputId": 0,
      "inputModuleId": 21,
      "inputId": 0,
      "color": "#c9b70e"
    },
    {
      "id": 32,
      "outputModuleId": 21,
      "outputId": 0,
      "inputModuleId": 8,
      "inputId": 0,
      "color": "#c91847"
    },
    {
      "id": 33,
      "outputModuleId": 22,
      "outputId": 0,
      "inputModuleId": 15,
      "inputId": 4,
      "color": "#0986ad"
    },
    {
      "id": 34,
      "outputModuleId": 20,
      "outputId": 3,
      "inputModuleId": 22,
      "inputId": 0,
      "color": "#c9b70e"
    },
    {
      "id": 19,
      "outputModuleId": 8,
      "outputId": 0,
      "inputModuleId": 24,
      "inputId": 1,
      "color": "#c91847"
    },
    {
      "id": 37,
      "outputModuleId": 24,
      "outputId": 0,
      "inputModuleId": 23,
      "inputId": 0,
      "color": "#0986ad"
    },
    {
      "id": 35,
      "outputModuleId": 23,
      "outputId": 0,
      "inputModuleId": 1,
      "inputId": 0,
      "color": "#0c8e15"
    },
    {
      "id": 36,
      "outputModuleId": 23,
      "outputId": 0,
      "inputModuleId": 1,
      "inputId": 1,
      "color": "#c91847"
    }
  ]
}