{
  "version": "1.1.6",
  "modules": [
    {
      "id": 1,
      "plugin": "Core",
      "version": "1.1.6",
      "model": "AudioInterface",
      "params": [],
      "leftModuleId": 33,
      "rightModuleId": 39,
      "data": {
        "audio": {
          "driver": 1,
          "deviceName": "hw:HDA Intel,0",
          "offset": 0,
          "maxChannels": 8,
          "sampleRate": 44100,
          "blockSize": 1024
        }
      },
      "pos": [
        24,
        0
      ]
    },
    {
      "id": 26,
      "plugin": "LabSeven",
      "version": "1.0.0",
      "model": "LS3340VCO",
      "params": [
        {
          "id": 0,
          "value": 0.847677886
        },
        {
          "id": 1,
          "value": 1.0
        },
        {
          "id": 2,
          "value": 0.462804377
        },
        {
          "id": 3,
          "value": 1.0
        },
        {
          "id": 4,
          "value": 0.847567022
        },
        {
          "id": 5,
          "value": 0.862319708
        },
        {
          "id": 6,
          "value": 0.167205274
        },
        {
          "id": 7,
          "value": 0.204162538
        },
        {
          "id": 8,
          "value": 1.0
        },
        {
          "id": 9,
          "value": 0.385990024
        }
      ],
      "leftModuleId": 38,
      "rightModuleId": 36,
      "pos": [
        11,
        1
      ]
    },
    {
      "id": 27,
      "plugin": "NYSTHI",
      "version": "1.0.13",
      "model": "AttackDecay",
      "params": [
        {
          "id": 0,
          "value": 0.0
        },
        {
          "id": 1,
          "value": 0.230500028
        },
        {
          "id": 2,
          "value": 0.0
        },
        {
          "id": 3,
          "value": 1.0
        },
        {
          "id": 4,
          "value": 0.5
        },
        {
          "id": 5,
          "value": 0.0
        }
      ],
      "leftModuleId": 32,
      "rightModuleId": 28,
      "data": {
        "m_looped": false
      },
      "pos": [
        13,
        0
      ]
    },
    {
      "id": 28,
      "plugin": "Fundamental",
      "version": "1.4.0",
      "model": "VCA-1",
      "params": [
        {
          "id": 0,
          "value": 0.514000177
        },
        {
          "id": 1,
          "value": 1.0
        }
      ],
      "leftModuleId": 27,
      "rightModuleId": 33,
      "pos": [
        15,
        0
      ]
    },
    {
      "id": 30,
      "plugin": "VultModulesFree",
      "version": "1.10.1",
      "model": "Bleak",
      "params": [
        {
          "id": 0,
          "value": -0.83348763
        },
        {
          "id": 1,
          "value": -0.0286363363
        },
        {
          "id": 2,
          "value": 0.984267652
        },
        {
          "id": 3,
          "value": -0.751587987
        },
        {
          "id": 4,
          "value": 0.479856312
        },
        {
          "id": 5,
          "value": -0.900658369
        }
      ],
      "rightModuleId": 37,
      "pos": [
        0,
        1
      ]
    },
    {
      "id": 31,
      "plugin": "NYSTHI",
      "version": "1.0.13",
      "model": "b208_5steps",
      "params": [
        {
          "id": 0,
          "value": 0.0
        },
        {
          "id": 1,
          "value": 0.0
        },
        {
          "id": 2,
          "value": 0.0
        },
        {
          "id": 3,
          "value": 0.0
        },
        {
          "id": 4,
          "value": 0.0
        },
        {
          "id": 5,
          "value": 0.0
        },
        {
          "id": 6,
          "value": 0.0
        },
        {
          "id": 7,
          "value": 0.0
        },
        {
          "id": 8,
          "value": 0.0
        },
        {
          "id": 9,
          "value": 4.11999798
        },
        {
          "id": 10,
          "value": 0.0
        },
        {
          "id": 11,
          "value": 3.89999986
        },
        {
          "id": 12,
          "value": 0.0
        },
        {
          "id": 13,
          "value": 0.0
        },
        {
          "id": 14,
          "value": 0.0
        },
        {
          "id": 15,
          "value": 0.0
        },
        {
          "id": 16,
          "value": 0.0
        },
        {
          "id": 17,
          "value": 0.0
        },
        {
          "id": 18,
          "value": 0.0
        },
        {
          "id": 19,
          "value": 0.0
        },
        {
          "id": 20,
          "value": 0.0
        },
        {
          "id": 21,
          "value": 1.0
        },
        {
          "id": 22,
          "value": 1.0
        },
        {
          "id": 23,
          "value": 1.0
        },
        {
          "id": 24,
          "value": 1.0
        },
        {
          "id": 25,
          "value": 1.0
        },
        {
          "id": 26,
          "value": 0.0
        },
        {
          "id": 27,
          "value": 0.0
        }
      ],
      "rightModuleId": 32,
      "data": {
        "m_max_steps1": 5,
        "m_max_steps2": 5,
        "m_trig_on_bitset": 0,
        "m_trig_on2_bitset": 0,
        "m_reset_is_immediate": true
      },
      "pos": [
        0,
        0
      ]
    },
    {
      "id": 32,
      "plugin": "JW-Modules",
      "version": "1.0.11",
      "model": "SimpleClock",
      "params": [
        {
          "id": 0,
          "value": 2.0
        },
        {
          "id": 1,
          "value": 0.0
        },
        {
          "id": 2,
          "value": -2.0
        },
        {
          "id": 3,
          "value": 0.0
        }
      ],
      "leftModuleId": 31,
      "rightModuleId": 27,
      "data": {
        "running": true
      },
      "pos": [
        9,
        0
      ]
    },
    {
      "id": 33,
      "plugin": "NYSTHI",
      "version": "1.0.13",
      "model": "MVerb",
      "params": [
        {
          "id": 0,
          "value": 0.5
        },
        {
          "id": 1,
          "value": 0.5
        },
        {
          "id": 2,
          "value": 0.5
        },
        {
          "id": 3,
          "value": 0.600000024
        },
        {
          "id": 4,
          "value": 0.5
        },
        {
          "id": 5,
          "value": 0.680000007
        },
        {
          "id": 6,
          "value": 0.600000024
        },
        {
          "id": 7,
          "value": 0.800000012
        },
        {
          "id": 8,
          "value": 0.5
        },
        {
          "id": 9,
          "value": 0.0
        }
      ],
      "leftModuleId": 28,
      "rightModuleId": 1,
      "pos": [
        18,
        0
      ]
    },
    {
      "id": 36,
      "plugin": "Stoermelder-P1",
      "version": "1.6.3",
      "model": "Strip",
      "params": [
        {
          "id": 0,
          "value": 0.0
        },
        {
          "id": 1,
          "value": 0.0
        },
        {
          "id": 2,
          "value": 0.0
        },
        {
          "id": 3,
          "value": 0.0
        },
        {
          "id": 4,
          "value": 0.0
        }
      ],
      "leftModuleId": 26,
      "data": {
        "panelTheme": 0,
        "mode": 2,
        "onMode": 0,
        "excludedParams": [],
        "randomExcl": 1
      },
      "pos": [
        28,
        1
      ]
    },
    {
      "id": 37,
      "plugin": "NYSTHI",
      "version": "1.0.13",
      "model": "AttackDecay",
      "params": [
        {
          "id": 0,
          "value": 0.658623517
        },
        {
          "id": 1,
          "value": 0.507535398
        },
        {
          "id": 2,
          "value": 0.0
        },
        {
          "id": 3,
          "value": 1.02524805
        },
        {
          "id": 4,
          "value": 0.485913455
        },
        {
          "id": 5,
          "value": 0.0
        }
      ],
      "leftModuleId": 30,
      "rightModuleId": 38,
      "data": {
        "m_looped": false
      },
      "pos": [
        6,
        1
      ]
    },
    {
      "id": 38,
      "plugin": "Fundamental",
      "version": "1.4.0",
      "model": "VCA-1",
      "params": [
        {
          "id": 0,
          "value": 0.286761582
        },
        {
          "id": 1,
          "value": 1.0
        }
      ],
      "leftModuleId": 37,
      "rightModuleId": 26,
      "pos": [
        8,
        1
      ]
    },
    {
      "id": 39,
      "plugin": "Core",
      "version": "1.1.6",
      "model": "Notes",
      "params": [],
      "leftModuleId": 1,
      "text": "overmorrow - 2020-06-21\n\nA generative fm drum patch. bleak is the modulator, vco-3340 is the carrier. the drum pattern in programmed with NYSTHI dual five step. Every 32 clock ticks, the oscillators and the modulator envelope are randomized with stoermelder STRIP.",
      "pos": [
        34,
        0
      ]
    }
  ],
  "cables": [
    {
      "id": 38,
      "outputModuleId": 26,
      "outputId": 4,
      "inputModuleId": 28,
      "inputId": 1,
      "color": "#0986ad"
    },
    {
      "id": 41,
      "outputModuleId": 27,
      "outputId": 0,
      "inputModuleId": 28,
      "inputId": 0,
      "color": "#c91847"
    },
    {
      "id": 44,
      "outputModuleId": 31,
      "outputId": 1,
      "inputModuleId": 27,
      "inputId": 3,
      "color": "#c91847"
    },
    {
      "id": 45,
      "outputModuleId": 32,
      "outputId": 0,
      "inputModuleId": 31,
      "inputId": 1,
      "color": "#c9b70e"
    },
    {
      "id": 46,
      "outputModuleId": 28,
      "outputId": 0,
      "inputModuleId": 33,
      "inputId": 0,
      "color": "#0c8e15"
    },
    {
      "id": 47,
      "outputModuleId": 33,
      "outputId": 0,
      "inputModuleId": 1,
      "inputId": 0,
      "color": "#c91847"
    },
    {
      "id": 48,
      "outputModuleId": 33,
      "outputId": 1,
      "inputModuleId": 1,
      "inputId": 1,
      "color": "#0986ad"
    },
    {
      "id": 51,
      "outputModuleId": 30,
      "outputId": 0,
      "inputModuleId": 38,
      "inputId": 1,
      "color": "#c91847"
    },
    {
      "id": 52,
      "outputModuleId": 38,
      "outputId": 0,
      "inputModuleId": 26,
      "inputId": 0,
      "color": "#0986ad"
    },
    {
      "id": 53,
      "outputModuleId": 37,
      "outputId": 0,
      "inputModuleId": 38,
      "inputId": 0,
      "color": "#c9b70e"
    },
    {
      "id": 54,
      "outputModuleId": 31,
      "outputId": 1,
      "inputModuleId": 37,
      "inputId": 3,
      "color": "#0c8e15"
    },
    {
      "id": 49,
      "outputModuleId": 32,
      "outputId": 5,
      "inputModuleId": 36,
      "inputId": 2,
      "color": "#c9b70e"
    }
  ]
}