{
  "version": "1.1.6",
  "modules": [
    {
      "id": 1,
      "plugin": "Core",
      "version": "1.1.6",
      "model": "AudioInterface",
      "params": [],
      "rightModuleId": 146,
      "data": {
        "audio": {
          "driver": 1,
          "deviceName": "hw:HDA Intel,0",
          "offset": 0,
          "maxChannels": 8,
          "sampleRate": 48000,
          "blockSize": 1024
        }
      },
      "pos": [
        0,
        0
      ]
    },
    {
      "id": 132,
      "plugin": "AudibleInstruments",
      "version": "1.3.1",
      "model": "Braids",
      "params": [
        {
          "id": 0,
          "value": 0.0
        },
        {
          "id": 1,
          "value": -2.45200014
        },
        {
          "id": 2,
          "value": 0.612000048
        },
        {
          "id": 3,
          "value": 0.5
        },
        {
          "id": 4,
          "value": 0.37499997
        },
        {
          "id": 5,
          "value": 0.5
        },
        {
          "id": 6,
          "value": 0.0
        }
      ],
      "leftModuleId": 146,
      "rightModuleId": 133,
      "data": {
        "settings": [
          0,
          0,
          0,
          0,
          0,
          0,
          0,
          0,
          0,
          0,
          0,
          0,
          0,
          0,
          0,
          0,
          0,
          0,
          0,
          0
        ],
        "lowCpu": false
      },
      "pos": [
        14,
        0
      ]
    },
    {
      "id": 133,
      "plugin": "AudibleInstruments",
      "version": "1.3.1",
      "model": "Rings",
      "params": [
        {
          "id": 0,
          "value": 0.0
        },
        {
          "id": 1,
          "value": 0.0
        },
        {
          "id": 2,
          "value": 30.0
        },
        {
          "id": 3,
          "value": 0.5
        },
        {
          "id": 4,
          "value": 0.5
        },
        {
          "id": 5,
          "value": 0.5
        },
        {
          "id": 6,
          "value": 0.5
        },
        {
          "id": 7,
          "value": 0.228
        },
        {
          "id": 8,
          "value": 0.300000012
        },
        {
          "id": 9,
          "value": 0.0
        },
        {
          "id": 10,
          "value": 0.314999908
        },
        {
          "id": 11,
          "value": 0.0
        }
      ],
      "leftModuleId": 132,
      "rightModuleId": 140,
      "data": {
        "polyphony": 0,
        "model": 1,
        "easterEgg": false
      },
      "pos": [
        30,
        0
      ]
    },
    {
      "id": 140,
      "plugin": "Core",
      "version": "1.1.6",
      "model": "Notes",
      "params": [],
      "leftModuleId": 133,
      "text": "grammatica 022 - 2020-09-18\n\nengagement, day six. braids+rings.",
      "pos": [
        44,
        0
      ]
    },
    {
      "id": 146,
      "plugin": "RJModules",
      "version": "1.7.2",
      "model": "Octo",
      "params": [
        {
          "id": 0,
          "value": 2.22500062
        },
        {
          "id": 1,
          "value": 1.0
        },
        {
          "id": 2,
          "value": 0.0
        }
      ],
      "leftModuleId": 1,
      "rightModuleId": 132,
      "wave": 3.0,
      "pos": [
        10,
        0
      ]
    }
  ],
  "cables": [
    {
      "id": 36,
      "outputModuleId": 133,
      "outputId": 0,
      "inputModuleId": 1,
      "inputId": 0,
      "color": "#c9b70e"
    },
    {
      "id": 90,
      "outputModuleId": 132,
      "outputId": 0,
      "inputModuleId": 133,
      "inputId": 7,
      "color": "#0986ad"
    },
    {
      "id": 91,
      "outputModuleId": 133,
      "outputId": 1,
      "inputModuleId": 132,
      "inputId": 2,
      "color": "#c9b70e"
    },
    {
      "id": 92,
      "outputModuleId": 133,
      "outputId": 0,
      "inputModuleId": 1,
      "inputId": 1,
      "color": "#0c8e15"
    },
    {
      "id": 93,
      "outputModuleId": 146,
      "outputId": 0,
      "inputModuleId": 132,
      "inputId": 4,
      "color": "#c91847"
    },
    {
      "id": 94,
      "outputModuleId": 146,
      "outputId": 5,
      "inputModuleId": 133,
      "inputId": 0,
      "color": "#0986ad"
    },
    {
      "id": 95,
      "outputModuleId": 146,
      "outputId": 4,
      "inputModuleId": 133,
      "inputId": 3,
      "color": "#c9b70e"
    },
    {
      "id": 96,
      "outputModuleId": 146,
      "outputId": 7,
      "inputModuleId": 133,
      "inputId": 1,
      "color": "#0986ad"
    }
  ]
}