{
  "version": "1.1.6",
  "modules": [
    {
      "id": 1,
      "plugin": "Core",
      "version": "1.1.6",
      "model": "AudioInterface",
      "params": [],
      "rightModuleId": 5,
      "data": {
        "audio": {
          "driver": 1,
          "deviceName": "hw:HDA Intel,0",
          "offset": 0,
          "maxChannels": 8,
          "sampleRate": 44100,
          "blockSize": 1024
        }
      },
      "pos": [
        0,
        0
      ]
    },
    {
      "id": 5,
      "plugin": "RJModules",
      "version": "1.7.2",
      "model": "RandomFilter",
      "params": [
        {
          "id": 0,
          "value": 0.0
        },
        {
          "id": 1,
          "value": 1.0
        }
      ],
      "leftModuleId": 1,
      "rightModuleId": 9,
      "pos": [
        10,
        0
      ]
    },
    {
      "id": 8,
      "plugin": "mscHack",
      "version": "1.0.2",
      "model": "Lorenz",
      "params": [
        {
          "id": 0,
          "value": 1.3099997
        },
        {
          "id": 1,
          "value": 1.68499994
        },
        {
          "id": 2,
          "value": 0.5
        },
        {
          "id": 3,
          "value": 0.0
        },
        {
          "id": 4,
          "value": 0.0
        },
        {
          "id": 5,
          "value": 0.0
        },
        {
          "id": 6,
          "value": 0.0
        },
        {
          "id": 7,
          "value": 0.25
        },
        {
          "id": 8,
          "value": 0.400000006
        },
        {
          "id": 9,
          "value": 0.146500066
        },
        {
          "id": 10,
          "value": 0.0
        },
        {
          "id": 11,
          "value": 0.0
        },
        {
          "id": 12,
          "value": 0.0
        },
        {
          "id": 13,
          "value": 0.0199999996
        },
        {
          "id": 14,
          "value": 0.0199999996
        },
        {
          "id": 15,
          "value": 0.19099997
        },
        {
          "id": 16,
          "value": 0.0
        },
        {
          "id": 17,
          "value": 0.0
        },
        {
          "id": 18,
          "value": 0.0
        }
      ],
      "leftModuleId": 9,
      "rightModuleId": 10,
      "data": {
        "m_FilterState": [
          0
        ]
      },
      "pos": [
        26,
        0
      ]
    },
    {
      "id": 9,
      "plugin": "AS",
      "version": "1.0.4",
      "model": "SuperDriveStereoFx",
      "params": [
        {
          "id": 0,
          "value": 0.622500062
        },
        {
          "id": 1,
          "value": 0.5
        },
        {
          "id": 2,
          "value": 0.5
        },
        {
          "id": 3,
          "value": 0.0
        }
      ],
      "leftModuleId": 5,
      "rightModuleId": 8,
      "data": {
        "as_FxBypass": [
          false
        ]
      },
      "pos": [
        20,
        0
      ]
    },
    {
      "id": 10,
      "plugin": "Bogaudio",
      "version": "1.1.34",
      "model": "Bogaudio-LLFO",
      "params": [
        {
          "id": 0,
          "value": 1.34549999
        },
        {
          "id": 1,
          "value": 1.0
        },
        {
          "id": 2,
          "value": 4.0
        },
        {
          "id": 3,
          "value": 0.0
        },
        {
          "id": 4,
          "value": 1.0
        }
      ],
      "leftModuleId": 8,
      "rightModuleId": 11,
      "data": {},
      "pos": [
        42,
        0
      ]
    },
    {
      "id": 11,
      "plugin": "Bogaudio",
      "version": "1.1.34",
      "model": "Bogaudio-LLFO",
      "params": [
        {
          "id": 0,
          "value": 0.0
        },
        {
          "id": 1,
          "value": 1.0
        },
        {
          "id": 2,
          "value": 4.0
        },
        {
          "id": 3,
          "value": 0.0
        },
        {
          "id": 4,
          "value": 1.0
        }
      ],
      "leftModuleId": 10,
      "rightModuleId": 12,
      "data": {},
      "pos": [
        45,
        0
      ]
    },
    {
      "id": 12,
      "plugin": "Core",
      "version": "1.1.6",
      "model": "Notes",
      "params": [],
      "leftModuleId": 11,
      "text": "grammatica 011 - 2020-08-25\n\nA study in minimal noise.",
      "pos": [
        48,
        0
      ]
    }
  ],
  "cables": [
    {
      "id": 5,
      "outputModuleId": 8,
      "outputId": 0,
      "inputModuleId": 5,
      "inputId": 0,
      "color": "#0986ad"
    },
    {
      "id": 7,
      "outputModuleId": 5,
      "outputId": 0,
      "inputModuleId": 9,
      "inputId": 0,
      "color": "#0c8e15"
    },
    {
      "id": 8,
      "outputModuleId": 9,
      "outputId": 0,
      "inputModuleId": 1,
      "inputId": 0,
      "color": "#c91847"
    },
    {
      "id": 9,
      "outputModuleId": 9,
      "outputId": 1,
      "inputModuleId": 1,
      "inputId": 1,
      "color": "#0986ad"
    },
    {
      "id": 10,
      "outputModuleId": 10,
      "outputId": 0,
      "inputModuleId": 9,
      "inputId": 5,
      "color": "#c91847"
    },
    {
      "id": 11,
      "outputModuleId": 11,
      "outputId": 0,
      "inputModuleId": 5,
      "inputId": 1,
      "color": "#0986ad"
    }
  ]
}