{
  "version": "1.1.6",
  "modules": [
    {
      "id": 1,
      "plugin": "Core",
      "version": "1.1.6",
      "model": "AudioInterface",
      "params": [],
      "rightModuleId": 14,
      "data": {
        "audio": {
          "driver": 1,
          "deviceName": "hw:HDA Intel,0",
          "offset": 0,
          "maxChannels": 8,
          "sampleRate": 44100,
          "blockSize": 1024
        }
      },
      "pos": [
        0,
        0
      ]
    },
    {
      "id": 4,
      "plugin": "Befaco",
      "version": "1.0.1",
      "model": "Rampage",
      "params": [
        {
          "id": 0,
          "value": 0.0
        },
        {
          "id": 1,
          "value": 0.0
        },
        {
          "id": 2,
          "value": 0.534000039
        },
        {
          "id": 3,
          "value": 0.366000056
        },
        {
          "id": 4,
          "value": 0.0
        },
        {
          "id": 5,
          "value": 0.0
        },
        {
          "id": 6,
          "value": 0.0
        },
        {
          "id": 7,
          "value": 0.0
        },
        {
          "id": 8,
          "value": 0.453000039
        },
        {
          "id": 9,
          "value": 0.435000002
        },
        {
          "id": 10,
          "value": 0.0
        },
        {
          "id": 11,
          "value": 0.0
        },
        {
          "id": 12,
          "value": 0.5
        }
      ],
      "leftModuleId": 7,
      "pos": [
        41,
        0
      ]
    },
    {
      "id": 5,
      "plugin": "VultModulesFree",
      "version": "1.10.1",
      "model": "Basal",
      "params": [
        {
          "id": 0,
          "value": -0.111000001
        },
        {
          "id": 1,
          "value": 0.0
        },
        {
          "id": 2,
          "value": 0.325500041
        },
        {
          "id": 3,
          "value": 0.0
        },
        {
          "id": 4,
          "value": 0.0
        },
        {
          "id": 5,
          "value": 0.0
        }
      ],
      "leftModuleId": 9,
      "rightModuleId": 8,
      "pos": [
        9,
        1
      ]
    },
    {
      "id": 6,
      "plugin": "HetrickCV",
      "version": "1.0.0",
      "model": "Scanner",
      "params": [
        {
          "id": 0,
          "value": 0.0
        },
        {
          "id": 1,
          "value": 6.0
        },
        {
          "id": 2,
          "value": 4.95750046
        },
        {
          "id": 3,
          "value": 0.0
        },
        {
          "id": 4,
          "value": 0.0
        },
        {
          "id": 5,
          "value": 0.125
        }
      ],
      "leftModuleId": 14,
      "rightModuleId": 7,
      "pos": [
        20,
        0
      ]
    },
    {
      "id": 7,
      "plugin": "Fundamental",
      "version": "1.4.0",
      "model": "VCA-1",
      "params": [
        {
          "id": 0,
          "value": 1.0
        },
        {
          "id": 1,
          "value": 1.0
        }
      ],
      "leftModuleId": 6,
      "rightModuleId": 4,
      "pos": [
        38,
        0
      ]
    },
    {
      "id": 8,
      "plugin": "VultModulesFree",
      "version": "1.10.1",
      "model": "Basal",
      "params": [
        {
          "id": 0,
          "value": 0.201000005
        },
        {
          "id": 1,
          "value": 0.0
        },
        {
          "id": 2,
          "value": 0.0
        },
        {
          "id": 3,
          "value": 0.0
        },
        {
          "id": 4,
          "value": 0.0
        },
        {
          "id": 5,
          "value": 0.0
        }
      ],
      "leftModuleId": 5,
      "rightModuleId": 10,
      "pos": [
        15,
        1
      ]
    },
    {
      "id": 9,
      "plugin": "VultModulesFree",
      "version": "1.10.1",
      "model": "Basal",
      "params": [
        {
          "id": 0,
          "value": 0.083999984
        },
        {
          "id": 1,
          "value": 0.0
        },
        {
          "id": 2,
          "value": 0.286500007
        },
        {
          "id": 3,
          "value": 0.0
        },
        {
          "id": 4,
          "value": 0.0
        },
        {
          "id": 5,
          "value": 0.0
        }
      ],
      "rightModuleId": 5,
      "pos": [
        3,
        1
      ]
    },
    {
      "id": 10,
      "plugin": "VultModulesFree",
      "version": "1.10.1",
      "model": "Basal",
      "params": [
        {
          "id": 0,
          "value": 0.308999985
        },
        {
          "id": 1,
          "value": 0.0
        },
        {
          "id": 2,
          "value": 0.0
        },
        {
          "id": 3,
          "value": 0.0
        },
        {
          "id": 4,
          "value": 0.0
        },
        {
          "id": 5,
          "value": 0.0
        }
      ],
      "leftModuleId": 8,
      "rightModuleId": 11,
      "pos": [
        21,
        1
      ]
    },
    {
      "id": 11,
      "plugin": "VultModulesFree",
      "version": "1.10.1",
      "model": "Basal",
      "params": [
        {
          "id": 0,
          "value": 0.0
        },
        {
          "id": 1,
          "value": 0.0
        },
        {
          "id": 2,
          "value": 0.0
        },
        {
          "id": 3,
          "value": 0.0
        },
        {
          "id": 4,
          "value": 0.0
        },
        {
          "id": 5,
          "value": 0.0
        }
      ],
      "leftModuleId": 10,
      "rightModuleId": 12,
      "pos": [
        27,
        1
      ]
    },
    {
      "id": 12,
      "plugin": "VultModulesFree",
      "version": "1.10.1",
      "model": "Basal",
      "params": [
        {
          "id": 0,
          "value": 0.0
        },
        {
          "id": 1,
          "value": 0.0
        },
        {
          "id": 2,
          "value": 0.608999968
        },
        {
          "id": 3,
          "value": 0.0
        },
        {
          "id": 4,
          "value": 0.0
        },
        {
          "id": 5,
          "value": 0.0
        }
      ],
      "leftModuleId": 11,
      "rightModuleId": 13,
      "pos": [
        33,
        1
      ]
    },
    {
      "id": 13,
      "plugin": "Befaco",
      "version": "1.0.1",
      "model": "DualAtenuverter",
      "params": [
        {
          "id": 0,
          "value": 0.107999995
        },
        {
          "id": 1,
          "value": -0.900000811
        },
        {
          "id": 2,
          "value": 0.0
        },
        {
          "id": 3,
          "value": 0.0
        }
      ],
      "leftModuleId": 12,
      "pos": [
        39,
        1
      ]
    },
    {
      "id": 14,
      "plugin": "VultModulesFree",
      "version": "1.10.1",
      "model": "Debriatus",
      "params": [
        {
          "id": 0,
          "value": 0.337500036
        },
        {
          "id": 1,
          "value": 0.0
        },
        {
          "id": 2,
          "value": 0.00150006264
        },
        {
          "id": 3,
          "value": 0.538500071
        },
        {
          "id": 4,
          "value": 0.0
        },
        {
          "id": 5,
          "value": 0.0
        },
        {
          "id": 6,
          "value": 0.0
        },
        {
          "id": 7,
          "value": 0.0
        }
      ],
      "leftModuleId": 1,
      "rightModuleId": 6,
      "pos": [
        10,
        0
      ]
    }
  ],
  "cables": [
    {
      "id": 0,
      "outputModuleId": 6,
      "outputId": 8,
      "inputModuleId": 7,
      "inputId": 1,
      "color": "#c9b70e"
    },
    {
      "id": 1,
      "outputModuleId": 4,
      "outputId": 6,
      "inputModuleId": 7,
      "inputId": 0,
      "color": "#0c8e15"
    },
    {
      "id": 3,
      "outputModuleId": 5,
      "outputId": 0,
      "inputModuleId": 6,
      "inputId": 0,
      "color": "#0986ad"
    },
    {
      "id": 4,
      "outputModuleId": 9,
      "outputId": 0,
      "inputModuleId": 6,
      "inputId": 1,
      "color": "#c9b70e"
    },
    {
      "id": 5,
      "outputModuleId": 8,
      "outputId": 0,
      "inputModuleId": 6,
      "inputId": 2,
      "color": "#0c8e15"
    },
    {
      "id": 6,
      "outputModuleId": 10,
      "outputId": 0,
      "inputModuleId": 6,
      "inputId": 3,
      "color": "#c91847"
    },
    {
      "id": 7,
      "outputModuleId": 11,
      "outputId": 0,
      "inputModuleId": 6,
      "inputId": 4,
      "color": "#0986ad"
    },
    {
      "id": 8,
      "outputModuleId": 12,
      "outputId": 0,
      "inputModuleId": 6,
      "inputId": 5,
      "color": "#c9b70e"
    },
    {
      "id": 16,
      "outputModuleId": 4,
      "outputId": 0,
      "inputModuleId": 4,
      "inputId": 3,
      "color": "#c9b70e"
    },
    {
      "id": 15,
      "outputModuleId": 13,
      "outputId": 0,
      "inputModuleId": 9,
      "inputId": 0,
      "color": "#0986ad"
    },
    {
      "id": 14,
      "outputModuleId": 13,
      "outputId": 0,
      "inputModuleId": 5,
      "inputId": 0,
      "color": "#c91847"
    },
    {
      "id": 13,
      "outputModuleId": 13,
      "outputId": 0,
      "inputModuleId": 8,
      "inputId": 0,
      "color": "#0c8e15"
    },
    {
      "id": 12,
      "outputModuleId": 13,
      "outputId": 0,
      "inputModuleId": 10,
      "inputId": 0,
      "color": "#c9b70e"
    },
    {
      "id": 11,
      "outputModuleId": 13,
      "outputId": 0,
      "inputModuleId": 11,
      "inputId": 0,
      "color": "#0986ad"
    },
    {
      "id": 10,
      "outputModuleId": 13,
      "outputId": 0,
      "inputModuleId": 12,
      "inputId": 0,
      "color": "#c91847"
    },
    {
      "id": 17,
      "outputModuleId": 4,
      "outputId": 7,
      "inputModuleId": 13,
      "inputId": 0,
      "color": "#0c8e15"
    },
    {
      "id": 9,
      "outputModuleId": 7,
      "outputId": 0,
      "inputModuleId": 14,
      "inputId": 0,
      "color": "#0c8e15"
    },
    {
      "id": 18,
      "outputModuleId": 14,
      "outputId": 0,
      "inputModuleId": 1,
      "inputId": 0,
      "color": "#c91847"
    },
    {
      "id": 19,
      "outputModuleId": 14,
      "outputId": 1,
      "inputModuleId": 1,
      "inputId": 1,
      "color": "#0986ad"
    }
  ]
}