{
  "version": "1.1.6",
  "modules": [
    {
      "id": 1,
      "plugin": "Core",
      "version": "1.1.6",
      "model": "AudioInterface",
      "params": [],
      "rightModuleId": 43,
      "data": {
        "audio": {
          "driver": 1,
          "deviceName": "hw:HDA Intel,0",
          "offset": 0,
          "maxChannels": 8,
          "sampleRate": 48000,
          "blockSize": 1024
        }
      },
      "pos": [
        0,
        0
      ]
    },
    {
      "id": 35,
      "plugin": "Befaco",
      "version": "1.0.1",
      "model": "EvenVCO",
      "params": [
        {
          "id": 0,
          "value": -3.0
        },
        {
          "id": 1,
          "value": -6.0
        },
        {
          "id": 2,
          "value": 0.0
        }
      ],
      "leftModuleId": 36,
      "rightModuleId": 45,
      "pos": [
        62,
        0
      ]
    },
    {
      "id": 36,
      "plugin": "Befaco",
      "version": "1.0.1",
      "model": "EvenVCO",
      "params": [
        {
          "id": 0,
          "value": 0.0
        },
        {
          "id": 1,
          "value": 0.0
        },
        {
          "id": 2,
          "value": 0.0
        }
      ],
      "leftModuleId": 44,
      "rightModuleId": 35,
      "pos": [
        54,
        0
      ]
    },
    {
      "id": 37,
      "plugin": "JW-Modules",
      "version": "1.0.12",
      "model": "SimpleClock",
      "params": [
        {
          "id": 0,
          "value": 3.0
        },
        {
          "id": 1,
          "value": 0.0
        },
        {
          "id": 2,
          "value": -2.0
        },
        {
          "id": 3,
          "value": 0.0
        }
      ],
      "leftModuleId": 43,
      "rightModuleId": 42,
      "data": {
        "running": true
      },
      "pos": [
        15,
        0
      ]
    },
    {
      "id": 38,
      "plugin": "Fundamental",
      "version": "1.4.0",
      "model": "SEQ3",
      "params": [
        {
          "id": 0,
          "value": 2.0
        },
        {
          "id": 1,
          "value": 0.0
        },
        {
          "id": 2,
          "value": 0.0
        },
        {
          "id": 3,
          "value": 4.0
        },
        {
          "id": 4,
          "value": 0.0
        },
        {
          "id": 5,
          "value": 0.0
        },
        {
          "id": 6,
          "value": 0.100000001
        },
        {
          "id": 7,
          "value": 0.300000012
        },
        {
          "id": 8,
          "value": 0.0
        },
        {
          "id": 9,
          "value": 0.0
        },
        {
          "id": 10,
          "value": 0.0
        },
        {
          "id": 11,
          "value": 0.0
        },
        {
          "id": 12,
          "value": 0.0
        },
        {
          "id": 13,
          "value": 0.0
        },
        {
          "id": 14,
          "value": 0.0
        },
        {
          "id": 15,
          "value": 0.0
        },
        {
          "id": 16,
          "value": 0.0
        },
        {
          "id": 17,
          "value": 0.0
        },
        {
          "id": 18,
          "value": 0.0
        },
        {
          "id": 19,
          "value": 0.0
        },
        {
          "id": 20,
          "value": 0.0
        },
        {
          "id": 21,
          "value": 0.0
        },
        {
          "id": 22,
          "value": 0.0
        },
        {
          "id": 23,
          "value": 0.0
        },
        {
          "id": 24,
          "value": 0.0
        },
        {
          "id": 25,
          "value": 0.0
        },
        {
          "id": 26,
          "value": 0.0
        },
        {
          "id": 27,
          "value": 0.0
        },
        {
          "id": 28,
          "value": 0.0
        },
        {
          "id": 29,
          "value": 0.0
        },
        {
          "id": 30,
          "value": 0.0
        },
        {
          "id": 31,
          "value": 0.0
        },
        {
          "id": 32,
          "value": 0.0
        },
        {
          "id": 33,
          "value": 0.0
        },
        {
          "id": 34,
          "value": 0.0
        },
        {
          "id": 35,
          "value": 0.0
        }
      ],
      "leftModuleId": 42,
      "rightModuleId": 41,
      "data": {
        "running": true,
        "gates": [
          1,
          1,
          1,
          1,
          1,
          1,
          1,
          1
        ]
      },
      "pos": [
        26,
        0
      ]
    },
    {
      "id": 41,
      "plugin": "Fundamental",
      "version": "1.4.0",
      "model": "SequentialSwitch2",
      "params": [
        {
          "id": 0,
          "value": 2.0
        }
      ],
      "leftModuleId": 38,
      "rightModuleId": 44,
      "pos": [
        48,
        0
      ]
    },
    {
      "id": 42,
      "plugin": "Bidoo",
      "version": "1.1.22",
      "model": "dFUZE",
      "params": [
        {
          "id": 0,
          "value": 4.95643139
        },
        {
          "id": 1,
          "value": 1.07450068
        },
        {
          "id": 2,
          "value": 0.276693016
        },
        {
          "id": 3,
          "value": 0.0
        },
        {
          "id": 4,
          "value": 0.595448911
        },
        {
          "id": 5,
          "value": 8.60501194
        },
        {
          "id": 6,
          "value": 0.729355812
        }
      ],
      "leftModuleId": 37,
      "rightModuleId": 38,
      "pos": [
        19,
        0
      ]
    },
    {
      "id": 43,
      "plugin": "Bogaudio",
      "version": "1.1.33",
      "model": "Bogaudio-Mix2",
      "params": [
        {
          "id": 0,
          "value": 0.816090941
        },
        {
          "id": 1,
          "value": 0.0
        }
      ],
      "leftModuleId": 1,
      "rightModuleId": 37,
      "pos": [
        10,
        0
      ]
    },
    {
      "id": 44,
      "plugin": "Bogaudio",
      "version": "1.1.33",
      "model": "Bogaudio-UMix",
      "params": [],
      "leftModuleId": 41,
      "rightModuleId": 36,
      "data": {
        "clipping_mode": 0,
        "input_gain_db": 0.0,
        "sum": true
      },
      "pos": [
        51,
        0
      ]
    },
    {
      "id": 45,
      "plugin": "Core",
      "version": "1.1.6",
      "model": "Notes",
      "params": [],
      "leftModuleId": 35,
      "text": "grammatica 006 - 2020-08-15\n\nFast lick followed by bass note, ad libitum.\n",
      "pos": [
        70,
        0
      ]
    }
  ],
  "cables": [
    {
      "id": 40,
      "outputModuleId": 37,
      "outputId": 0,
      "inputModuleId": 38,
      "inputId": 1,
      "color": "#0986ad"
    },
    {
      "id": 42,
      "outputModuleId": 37,
      "outputId": 5,
      "inputModuleId": 41,
      "inputId": 0,
      "color": "#0c8e15"
    },
    {
      "id": 37,
      "outputModuleId": 38,
      "outputId": 1,
      "inputModuleId": 36,
      "inputId": 1,
      "color": "#0986ad"
    },
    {
      "id": 47,
      "outputModuleId": 36,
      "outputId": 0,
      "inputModuleId": 41,
      "inputId": 2,
      "color": "#c9b70e"
    },
    {
      "id": 43,
      "outputModuleId": 41,
      "outputId": 0,
      "inputModuleId": 42,
      "inputId": 0,
      "color": "#c91847"
    },
    {
      "id": 48,
      "outputModuleId": 42,
      "outputId": 0,
      "inputModuleId": 43,
      "inputId": 2,
      "color": "#0c8e15"
    },
    {
      "id": 50,
      "outputModuleId": 42,
      "outputId": 1,
      "inputModuleId": 43,
      "inputId": 3,
      "color": "#0986ad"
    },
    {
      "id": 51,
      "outputModuleId": 43,
      "outputId": 0,
      "inputModuleId": 1,
      "inputId": 0,
      "color": "#c9b70e"
    },
    {
      "id": 52,
      "outputModuleId": 43,
      "outputId": 1,
      "inputModuleId": 1,
      "inputId": 1,
      "color": "#0c8e15"
    },
    {
      "id": 36,
      "outputModuleId": 35,
      "outputId": 4,
      "inputModuleId": 44,
      "inputId": 0,
      "color": "#c91847"
    },
    {
      "id": 53,
      "outputModuleId": 44,
      "outputId": 0,
      "inputModuleId": 41,
      "inputId": 3,
      "color": "#0c8e15"
    },
    {
      "id": 54,
      "outputModuleId": 35,
      "outputId": 1,
      "inputModuleId": 44,
      "inputId": 1,
      "color": "#c91847"
    }
  ]
}