{
  "version": "1.1.6",
  "modules": [
    {
      "id": 1,
      "plugin": "Core",
      "version": "1.1.6",
      "model": "AudioInterface",
      "params": [],
      "rightModuleId": 14,
      "data": {
        "audio": {
          "driver": 1,
          "deviceName": "hw:HDA Intel,0",
          "offset": 0,
          "maxChannels": 8,
          "sampleRate": 44100,
          "blockSize": 1024
        }
      },
      "pos": [
        0,
        0
      ]
    },
    {
      "id": 6,
      "plugin": "HetrickCV",
      "version": "1.0.0",
      "model": "Scanner",
      "params": [
        {
          "id": 0,
          "value": 0.0
        },
        {
          "id": 1,
          "value": 6.0
        },
        {
          "id": 2,
          "value": 0.109999932
        },
        {
          "id": 3,
          "value": 0.0
        },
        {
          "id": 4,
          "value": 0.0
        },
        {
          "id": 5,
          "value": 0.225499988
        }
      ],
      "leftModuleId": 14,
      "rightModuleId": 15,
      "pos": [
        20,
        0
      ]
    },
    {
      "id": 14,
      "plugin": "VultModulesFree",
      "version": "1.11",
      "model": "Debriatus",
      "params": [
        {
          "id": 0,
          "value": 0.150000021
        },
        {
          "id": 1,
          "value": 0.0
        },
        {
          "id": 2,
          "value": 0.00150006264
        },
        {
          "id": 3,
          "value": 0.601500034
        },
        {
          "id": 4,
          "value": 0.0
        },
        {
          "id": 5,
          "value": 0.0
        },
        {
          "id": 6,
          "value": 0.0
        },
        {
          "id": 7,
          "value": 0.0
        }
      ],
      "leftModuleId": 1,
      "rightModuleId": 6,
      "pos": [
        10,
        0
      ]
    },
    {
      "id": 15,
      "plugin": "VultModulesFree",
      "version": "1.11",
      "model": "Slap",
      "params": [
        {
          "id": 0,
          "value": 0.0269999988
        },
        {
          "id": 1,
          "value": 0.498000145
        },
        {
          "id": 2,
          "value": 0.0
        },
        {
          "id": 3,
          "value": 0.421499997
        },
        {
          "id": 4,
          "value": 0.0
        },
        {
          "id": 5,
          "value": 0.0
        },
        {
          "id": 6,
          "value": 0.0
        },
        {
          "id": 7,
          "value": 0.0
        },
        {
          "id": 8,
          "value": 0.0
        }
      ],
      "leftModuleId": 6,
      "rightModuleId": 18,
      "pos": [
        38,
        0
      ]
    },
    {
      "id": 18,
      "plugin": "AS",
      "version": "1.0.4",
      "model": "TriggersMKIII",
      "params": [
        {
          "id": 0,
          "value": 0.0
        },
        {
          "id": 1,
          "value": 0.0
        }
      ],
      "leftModuleId": 15,
      "data": {
        "label1": "TRIG",
        "label2": ""
      },
      "pos": [
        48,
        0
      ]
    },
    {
      "id": 19,
      "plugin": "Fundamental",
      "version": "1.4.0",
      "model": "VCO2",
      "params": [
        {
          "id": 0,
          "value": 1.0
        },
        {
          "id": 1,
          "value": 1.0
        },
        {
          "id": 2,
          "value": -34.5600128
        },
        {
          "id": 3,
          "value": 3.0
        },
        {
          "id": 4,
          "value": 1.0
        }
      ],
      "leftModuleId": 27,
      "rightModuleId": 26,
      "pos": [
        25,
        1
      ]
    },
    {
      "id": 26,
      "plugin": "Bogaudio",
      "version": "1.1.34",
      "model": "Bogaudio-PolyOff8",
      "params": [
        {
          "id": 0,
          "value": 0.0
        },
        {
          "id": 1,
          "value": 0.100000001
        },
        {
          "id": 2,
          "value": 0.100000001
        },
        {
          "id": 3,
          "value": 0.100000001
        },
        {
          "id": 4,
          "value": 0.200000003
        },
        {
          "id": 5,
          "value": 0.100000001
        },
        {
          "id": 6,
          "value": 0.300000012
        },
        {
          "id": 7,
          "value": 0.100000001
        },
        {
          "id": 8,
          "value": 0.400000006
        },
        {
          "id": 9,
          "value": 0.100000001
        },
        {
          "id": 10,
          "value": 0.5
        },
        {
          "id": 11,
          "value": 0.100000001
        },
        {
          "id": 12,
          "value": 0.0
        },
        {
          "id": 13,
          "value": 1.0
        },
        {
          "id": 14,
          "value": 0.0
        },
        {
          "id": 15,
          "value": 1.0
        },
        {
          "id": 16,
          "value": 6.0
        }
      ],
      "leftModuleId": 19,
      "data": {
        "range_offset": 0.0,
        "range_scale": 10.0
      },
      "pos": [
        31,
        1
      ]
    },
    {
      "id": 27,
      "plugin": "Fundamental",
      "version": "1.4.0",
      "model": "Split",
      "params": [],
      "rightModuleId": 19,
      "pos": [
        20,
        1
      ]
    }
  ],
  "cables": [
    {
      "id": 18,
      "outputModuleId": 14,
      "outputId": 0,
      "inputModuleId": 1,
      "inputId": 0,
      "color": "#c91847"
    },
    {
      "id": 19,
      "outputModuleId": 14,
      "outputId": 1,
      "inputModuleId": 1,
      "inputId": 1,
      "color": "#0986ad"
    },
    {
      "id": 20,
      "outputModuleId": 6,
      "outputId": 8,
      "inputModuleId": 15,
      "inputId": 5,
      "color": "#0986ad"
    },
    {
      "id": 21,
      "outputModuleId": 15,
      "outputId": 0,
      "inputModuleId": 14,
      "inputId": 0,
      "color": "#c9b70e"
    },
    {
      "id": 25,
      "outputModuleId": 18,
      "outputId": 0,
      "inputModuleId": 15,
      "inputId": 0,
      "color": "#0c8e15"
    },
    {
      "id": 26,
      "outputModuleId": 26,
      "outputId": 0,
      "inputModuleId": 19,
      "inputId": 0,
      "color": "#0c8e15"
    },
    {
      "id": 28,
      "outputModuleId": 19,
      "outputId": 0,
      "inputModuleId": 27,
      "inputId": 0,
      "color": "#c9b70e"
    },
    {
      "id": 30,
      "outputModuleId": 27,
      "outputId": 0,
      "inputModuleId": 6,
      "inputId": 0,
      "color": "#c9b70e"
    },
    {
      "id": 31,
      "outputModuleId": 27,
      "outputId": 1,
      "inputModuleId": 6,
      "inputId": 1,
      "color": "#0c8e15"
    },
    {
      "id": 32,
      "outputModuleId": 27,
      "outputId": 2,
      "inputModuleId": 6,
      "inputId": 2,
      "color": "#c91847"
    },
    {
      "id": 33,
      "outputModuleId": 27,
      "outputId": 3,
      "inputModuleId": 6,
      "inputId": 3,
      "color": "#0986ad"
    },
    {
      "id": 34,
      "outputModuleId": 27,
      "outputId": 4,
      "inputModuleId": 6,
      "inputId": 4,
      "color": "#c9b70e"
    },
    {
      "id": 35,
      "outputModuleId": 27,
      "outputId": 5,
      "inputModuleId": 6,
      "inputId": 5,
      "color": "#0c8e15"
    },
    {
      "id": 36,
      "outputModuleId": 15,
      "outputId": 1,
      "inputModuleId": 26,
      "inputId": 0,
      "color": "#0986ad"
    }
  ]
}