{
  "version": "1.1.6",
  "modules": [
    {
      "id": 1,
      "plugin": "Core",
      "version": "1.1.6",
      "model": "AudioInterface",
      "params": [],
      "rightModuleId": 11,
      "data": {
        "audio": {
          "driver": 1,
          "deviceName": "hw:HDA Intel,0",
          "offset": 0,
          "maxChannels": 8,
          "sampleRate": 44100,
          "blockSize": 1024
        }
      },
      "pos": [
        0,
        0
      ]
    },
    {
      "id": 8,
      "plugin": "squinkylabs-plug1",
      "version": "1.0.12",
      "model": "squinkylabs-vocalfilter",
      "params": [
        {
          "id": 0,
          "value": 0.0
        },
        {
          "id": 1,
          "value": 1.0
        },
        {
          "id": 2,
          "value": 0.0
        },
        {
          "id": 3,
          "value": 1.0
        },
        {
          "id": 4,
          "value": 0.0
        },
        {
          "id": 5,
          "value": 1.0
        },
        {
          "id": 6,
          "value": 3.0
        },
        {
          "id": 7,
          "value": -3.25499988
        },
        {
          "id": 8,
          "value": 1.0
        }
      ],
      "leftModuleId": 11,
      "rightModuleId": 12,
      "pos": [
        13,
        0
      ]
    },
    {
      "id": 9,
      "plugin": "NYSTHI",
      "version": "1.0.15",
      "model": "Ambuance",
      "params": [
        {
          "id": 0,
          "value": -6.62402391
        },
        {
          "id": 1,
          "value": 0.0
        },
        {
          "id": 2,
          "value": 0.75
        },
        {
          "id": 3,
          "value": 2.44948983
        },
        {
          "id": 4,
          "value": 3.87298346
        },
        {
          "id": 5,
          "value": 0.899999976
        },
        {
          "id": 6,
          "value": 0.100000001
        },
        {
          "id": 7,
          "value": -10.0
        },
        {
          "id": 8,
          "value": -10.0
        },
        {
          "id": 9,
          "value": 0.0
        },
        {
          "id": 10,
          "value": 0.0
        },
        {
          "id": 11,
          "value": -14.3341875
        },
        {
          "id": 12,
          "value": 0.0
        },
        {
          "id": 13,
          "value": 0.0850959718
        },
        {
          "id": 14,
          "value": 0.0286132228
        },
        {
          "id": 15,
          "value": 0.00344415312
        },
        {
          "id": 16,
          "value": 0.00828791875
        },
        {
          "id": 17,
          "value": 0.0496678315
        },
        {
          "id": 18,
          "value": 0.0194850992
        },
        {
          "id": 19,
          "value": 0.0861297697
        },
        {
          "id": 20,
          "value": 0.0
        }
      ],
      "leftModuleId": 12,
      "rightModuleId": 13,
      "data": {
        "m_revonrev": false,
        "m_bypass": false,
        "m_subtract_from_wet": false
      },
      "pos": [
        33,
        0
      ]
    },
    {
      "id": 11,
      "plugin": "TinyTricks",
      "version": "1.5.0",
      "model": "TTSAW",
      "params": [
        {
          "id": 0,
          "value": 0.0
        },
        {
          "id": 1,
          "value": 0.0
        },
        {
          "id": 2,
          "value": 0.00999999978
        }
      ],
      "leftModuleId": 1,
      "rightModuleId": 8,
      "data": {
        "skin": 0,
        "forcebright": false
      },
      "pos": [
        10,
        0
      ]
    },
    {
      "id": 12,
      "plugin": "TinyTricks",
      "version": "1.5.0",
      "model": "MG16",
      "params": [
        {
          "id": 0,
          "value": 0.0
        },
        {
          "id": 1,
          "value": 1.0
        },
        {
          "id": 2,
          "value": 0.0
        },
        {
          "id": 3,
          "value": 1.0
        }
      ],
      "leftModuleId": 8,
      "rightModuleId": 9,
      "data": {
        "skin": 0,
        "forcebright": false
      },
      "pos": [
        25,
        0
      ]
    },
    {
      "id": 13,
      "plugin": "JW-Modules",
      "version": "1.0.14",
      "model": "SimpleClock",
      "params": [
        {
          "id": 0,
          "value": 0.371999949
        },
        {
          "id": 1,
          "value": 0.0
        },
        {
          "id": 2,
          "value": -2.0
        },
        {
          "id": 3,
          "value": 0.0
        }
      ],
      "leftModuleId": 9,
      "rightModuleId": 14,
      "data": {
        "running": true
      },
      "pos": [
        43,
        0
      ]
    },
    {
      "id": 14,
      "plugin": "Core",
      "version": "1.1.6",
      "model": "Notes",
      "params": [],
      "leftModuleId": 13,
      "text": "grammatica 027 - 2020-09-25\n\nFinally we discover what an electric sheep sounds like.",
      "pos": [
        47,
        0
      ]
    }
  ],
  "cables": [
    {
      "id": 2,
      "outputModuleId": 11,
      "outputId": 0,
      "inputModuleId": 8,
      "inputId": 0,
      "color": "#c9b70e"
    },
    {
      "id": 4,
      "outputModuleId": 9,
      "outputId": 1,
      "inputModuleId": 1,
      "inputId": 1,
      "color": "#c91847"
    },
    {
      "id": 0,
      "outputModuleId": 8,
      "outputId": 0,
      "inputModuleId": 9,
      "inputId": 0,
      "color": "#0c8e15"
    },
    {
      "id": 3,
      "outputModuleId": 9,
      "outputId": 0,
      "inputModuleId": 1,
      "inputId": 0,
      "color": "#0c8e15"
    },
    {
      "id": 5,
      "outputModuleId": 12,
      "outputId": 0,
      "inputModuleId": 8,
      "inputId": 3,
      "color": "#c9b70e"
    },
    {
      "id": 6,
      "outputModuleId": 13,
      "outputId": 0,
      "inputModuleId": 12,
      "inputId": 0,
      "color": "#c91847"
    },
    {
      "id": 7,
      "outputModuleId": 12,
      "outputId": 8,
      "inputModuleId": 11,
      "inputId": 1,
      "color": "#0986ad"
    },
    {
      "id": 8,
      "outputModuleId": 12,
      "outputId": 1,
      "inputModuleId": 8,
      "inputId": 1,
      "color": "#c9b70e"
    },
    {
      "id": 9,
      "outputModuleId": 12,
      "outputId": 9,
      "inputModuleId": 11,
      "inputId": 2,
      "color": "#0c8e15"
    },
    {
      "id": 10,
      "outputModuleId": 12,
      "outputId": 2,
      "inputModuleId": 11,
      "inputId": 3,
      "color": "#c91847"
    },
    {
      "id": 11,
      "outputModuleId": 12,
      "outputId": 10,
      "inputModuleId": 8,
      "inputId": 2,
      "color": "#0986ad"
    },
    {
      "id": 12,
      "outputModuleId": 12,
      "outputId": 3,
      "inputModuleId": 8,
      "inputId": 4,
      "color": "#c9b70e"
    },
    {
      "id": 13,
      "outputModuleId": 12,
      "outputId": 11,
      "inputModuleId": 9,
      "inputId": 7,
      "color": "#0c8e15"
    },
    {
      "id": 14,
      "outputModuleId": 12,
      "outputId": 4,
      "inputModuleId": 9,
      "inputId": 8,
      "color": "#c91847"
    },
    {
      "id": 15,
      "outputModuleId": 12,
      "outputId": 12,
      "inputModuleId": 9,
      "inputId": 9,
      "color": "#0986ad"
    },
    {
      "id": 16,
      "outputModuleId": 12,
      "outputId": 5,
      "inputModuleId": 9,
      "inputId": 10,
      "color": "#c9b70e"
    },
    {
      "id": 17,
      "outputModuleId": 12,
      "outputId": 13,
      "inputModuleId": 9,
      "inputId": 6,
      "color": "#0c8e15"
    }
  ]
}