{
  "version": "1.1.6",
  "modules": [
    {
      "id": 1,
      "plugin": "Core",
      "version": "1.1.6",
      "model": "AudioInterface",
      "params": [],
      "rightModuleId": 2,
      "data": {
        "audio": {
          "driver": 1,
          "deviceName": "hw:HDA Intel,0",
          "offset": 0,
          "maxChannels": 8,
          "sampleRate": 44100,
          "blockSize": 1024
        }
      },
      "pos": [
        0,
        0
      ]
    },
    {
      "id": 2,
      "plugin": "Valley",
      "version": "1.0.1",
      "model": "Topograph",
      "params": [
        {
          "id": 0,
          "value": 0.0
        },
        {
          "id": 1,
          "value": 0.0
        },
        {
          "id": 2,
          "value": 0.801999986
        },
        {
          "id": 3,
          "value": 0.202500001
        },
        {
          "id": 4,
          "value": 0.405000031
        },
        {
          "id": 5,
          "value": 0.0
        },
        {
          "id": 6,
          "value": 0.5
        },
        {
          "id": 7,
          "value": 0.5
        },
        {
          "id": 8,
          "value": 0.342500001
        },
        {
          "id": 9,
          "value": 0.464399844
        }
      ],
      "leftModuleId": 1,
      "rightModuleId": 10,
      "data": {
        "sequencerMode": 0,
        "triggerOutputMode": 0,
        "accOutputMode": 0,
        "extClockResolution": 2,
        "chaosKnobMode": 0,
        "runMode": 0,
        "panelStyle": 0,
        "running": 1
      },
      "pos": [
        10,
        0
      ]
    },
    {
      "id": 3,
      "plugin": "KautenjaDSP-PotatoChips",
      "version": "1.6.2",
      "model": "GBS",
      "params": [
        {
          "id": 0,
          "value": 0.0
        },
        {
          "id": 1,
          "value": 0.0
        },
        {
          "id": 2,
          "value": 0.0
        },
        {
          "id": 3,
          "value": 0.0
        },
        {
          "id": 4,
          "value": 2.0
        },
        {
          "id": 5,
          "value": 2.0
        },
        {
          "id": 6,
          "value": 0.0
        },
        {
          "id": 7,
          "value": 0.0
        },
        {
          "id": 8,
          "value": 1.0
        },
        {
          "id": 9,
          "value": 1.0
        },
        {
          "id": 10,
          "value": 1.0
        },
        {
          "id": 11,
          "value": 0.165999934
        }
      ],
      "leftModuleId": 5,
      "rightModuleId": 14,
      "data": {
        "wavetable0": [
          8,
          9,
          10,
          12,
          13,
          14,
          14,
          15,
          15,
          15,
          14,
          14,
          13,
          12,
          10,
          9,
          8,
          6,
          5,
          3,
          2,
          1,
          1,
          0,
          0,
          0,
          1,
          1,
          2,
          3,
          5,
          6
        ],
        "wavetable1": [
          15,
          15,
          15,
          15,
          15,
          15,
          15,
          15,
          15,
          15,
          15,
          15,
          15,
          0,
          0,
          0,
          0,
          0,
          0,
          0,
          0,
          0,
          0,
          0,
          0,
          0,
          0,
          0,
          0,
          0,
          0,
          0
        ],
        "wavetable2": [
          0,
          0,
          1,
          1,
          2,
          2,
          3,
          3,
          4,
          4,
          5,
          5,
          6,
          6,
          7,
          7,
          8,
          8,
          8,
          9,
          9,
          10,
          10,
          11,
          11,
          12,
          12,
          13,
          13,
          14,
          14,
          15
        ],
        "wavetable3": [
          5,
          4,
          7,
          7,
          10,
          9,
          12,
          12,
          15,
          12,
          12,
          9,
          10,
          7,
          7,
          4,
          5,
          2,
          3,
          0,
          1,
          0,
          0,
          0,
          0,
          0,
          0,
          0,
          1,
          0,
          3,
          2
        ],
        "wavetable4": [
          15,
          15,
          14,
          14,
          13,
          13,
          12,
          12,
          11,
          11,
          10,
          10,
          9,
          9,
          8,
          8,
          7,
          7,
          7,
          6,
          6,
          5,
          5,
          4,
          4,
          3,
          3,
          2,
          2,
          1,
          1,
          0
        ]
      },
      "pos": [
        10,
        1
      ]
    },
    {
      "id": 4,
      "plugin": "Bogaudio",
      "version": "1.1.34",
      "model": "Bogaudio-RGate",
      "params": [
        {
          "id": 0,
          "value": 0.5
        },
        {
          "id": 1,
          "value": 0.0
        },
        {
          "id": 2,
          "value": 0.0
        }
      ],
      "leftModuleId": 10,
      "rightModuleId": 9,
      "data": {
        "reset_mode": 0,
        "initial_clock_seconds": 0.5,
        "poly_input": 4
      },
      "pos": [
        31,
        0
      ]
    },
    {
      "id": 5,
      "plugin": "Fundamental",
      "version": "1.4.0",
      "model": "VCMixer",
      "params": [
        {
          "id": 0,
          "value": 0.275999993
        },
        {
          "id": 1,
          "value": 1.0
        },
        {
          "id": 2,
          "value": 1.0
        },
        {
          "id": 3,
          "value": 1.0
        },
        {
          "id": 4,
          "value": 0.359361261
        }
      ],
      "rightModuleId": 3,
      "pos": [
        0,
        1
      ]
    },
    {
      "id": 9,
      "plugin": "Bogaudio",
      "version": "1.1.34",
      "model": "Bogaudio-AddrSeq",
      "params": [
        {
          "id": 0,
          "value": 4.0
        },
        {
          "id": 1,
          "value": 1.0
        },
        {
          "id": 2,
          "value": 0.0
        },
        {
          "id": 3,
          "value": 0.0
        },
        {
          "id": 4,
          "value": -0.251843184
        },
        {
          "id": 5,
          "value": 0.316099107
        },
        {
          "id": 6,
          "value": 0.501952469
        },
        {
          "id": 7,
          "value": 0.233347774
        },
        {
          "id": 8,
          "value": -0.623005867
        },
        {
          "id": 9,
          "value": 0.10264957
        },
        {
          "id": 10,
          "value": 0.49404943
        }
      ],
      "leftModuleId": 4,
      "rightModuleId": 13,
      "data": {
        "poly_input": 0,
        "select_on_clock": false,
        "triggered_select": false,
        "reverse_on_negative_clock": false,
        "range_offset": 0.0,
        "range_scale": 1.0
      },
      "pos": [
        36,
        0
      ]
    },
    {
      "id": 10,
      "plugin": "Fundamental",
      "version": "1.4.0",
      "model": "Merge",
      "params": [],
      "leftModuleId": 2,
      "rightModuleId": 4,
      "data": {
        "channels": -1
      },
      "pos": [
        26,
        0
      ]
    },
    {
      "id": 12,
      "plugin": "Fundamental",
      "version": "1.4.0",
      "model": "Split",
      "params": [],
      "leftModuleId": 13,
      "pos": [
        46,
        0
      ]
    },
    {
      "id": 13,
      "plugin": "JW-Modules",
      "version": "1.0.12",
      "model": "Quantizer",
      "params": [
        {
          "id": 0,
          "value": 0.0
        },
        {
          "id": 1,
          "value": 14.0
        }
      ],
      "leftModuleId": 9,
      "rightModuleId": 12,
      "data": {},
      "pos": [
        42,
        0
      ]
    },
    {
      "id": 14,
      "plugin": "Fundamental",
      "version": "1.4.0",
      "model": "Split",
      "params": [],
      "leftModuleId": 3,
      "rightModuleId": 15,
      "pos": [
        36,
        1
      ]
    },
    {
      "id": 15,
      "plugin": "Core",
      "version": "1.1.6",
      "model": "Notes",
      "params": [],
      "leftModuleId": 14,
      "text": "grammatica 010 - 2020-08-21\n\nTopograph  for once is used for sequencing a melody, not drums! And the melody is pure gameboy nostalgia.",
      "pos": [
        41,
        1
      ]
    }
  ],
  "cables": [
    {
      "id": 3,
      "outputModuleId": 3,
      "outputId": 0,
      "inputModuleId": 5,
      "inputId": 1,
      "color": "#0986ad"
    },
    {
      "id": 4,
      "outputModuleId": 5,
      "outputId": 0,
      "inputModuleId": 1,
      "inputId": 0,
      "color": "#c9b70e"
    },
    {
      "id": 5,
      "outputModuleId": 3,
      "outputId": 1,
      "inputModuleId": 5,
      "inputId": 2,
      "color": "#0c8e15"
    },
    {
      "id": 14,
      "outputModuleId": 5,
      "outputId": 0,
      "inputModuleId": 1,
      "inputId": 1,
      "color": "#c91847"
    },
    {
      "id": 15,
      "outputModuleId": 2,
      "outputId": 0,
      "inputModuleId": 10,
      "inputId": 0,
      "color": "#0986ad"
    },
    {
      "id": 16,
      "outputModuleId": 2,
      "outputId": 1,
      "inputModuleId": 10,
      "inputId": 1,
      "color": "#c9b70e"
    },
    {
      "id": 17,
      "outputModuleId": 2,
      "outputId": 2,
      "inputModuleId": 10,
      "inputId": 2,
      "color": "#0c8e15"
    },
    {
      "id": 18,
      "outputModuleId": 2,
      "outputId": 3,
      "inputModuleId": 10,
      "inputId": 3,
      "color": "#c91847"
    },
    {
      "id": 19,
      "outputModuleId": 10,
      "outputId": 0,
      "inputModuleId": 4,
      "inputId": 4,
      "color": "#0986ad"
    },
    {
      "id": 20,
      "outputModuleId": 4,
      "outputId": 0,
      "inputModuleId": 9,
      "inputId": 0,
      "color": "#c9b70e"
    },
    {
      "id": 22,
      "outputModuleId": 12,
      "outputId": 0,
      "inputModuleId": 3,
      "inputId": 0,
      "color": "#c91847"
    },
    {
      "id": 23,
      "outputModuleId": 12,
      "outputId": 1,
      "inputModuleId": 3,
      "inputId": 1,
      "color": "#0986ad"
    },
    {
      "id": 24,
      "outputModuleId": 12,
      "outputId": 2,
      "inputModuleId": 3,
      "inputId": 2,
      "color": "#c9b70e"
    },
    {
      "id": 25,
      "outputModuleId": 12,
      "outputId": 3,
      "inputModuleId": 3,
      "inputId": 3,
      "color": "#0c8e15"
    },
    {
      "id": 21,
      "outputModuleId": 9,
      "outputId": 0,
      "inputModuleId": 13,
      "inputId": 2,
      "color": "#0c8e15"
    },
    {
      "id": 26,
      "outputModuleId": 13,
      "outputId": 0,
      "inputModuleId": 12,
      "inputId": 0,
      "color": "#c91847"
    },
    {
      "id": 27,
      "outputModuleId": 4,
      "outputId": 0,
      "inputModuleId": 14,
      "inputId": 0,
      "color": "#0986ad"
    },
    {
      "id": 28,
      "outputModuleId": 14,
      "outputId": 0,
      "inputModuleId": 3,
      "inputId": 11,
      "color": "#c9b70e"
    },
    {
      "id": 29,
      "outputModuleId": 14,
      "outputId": 1,
      "inputModuleId": 3,
      "inputId": 12,
      "color": "#0c8e15"
    },
    {
      "id": 30,
      "outputModuleId": 14,
      "outputId": 2,
      "inputModuleId": 3,
      "inputId": 13,
      "color": "#c91847"
    },
    {
      "id": 31,
      "outputModuleId": 14,
      "outputId": 3,
      "inputModuleId": 3,
      "inputId": 14,
      "color": "#0986ad"
    },
    {
      "id": 32,
      "outputModuleId": 3,
      "outputId": 2,
      "inputModuleId": 5,
      "inputId": 3,
      "color": "#c9b70e"
    },
    {
      "id": 7,
      "outputModuleId": 3,
      "outputId": 3,
      "inputModuleId": 5,
      "inputId": 4,
      "color": "#0986ad"
    }
  ]
}