{
  "version": "1.1.6",
  "modules": [
    {
      "id": 1,
      "plugin": "Core",
      "version": "1.1.6",
      "model": "AudioInterface",
      "params": [],
      "rightModuleId": 146,
      "data": {
        "audio": {
          "driver": 1,
          "deviceName": "hw:HDA Intel,0",
          "offset": 0,
          "maxChannels": 8,
          "sampleRate": 48000,
          "blockSize": 1024
        }
      },
      "pos": [
        0,
        0
      ]
    },
    {
      "id": 132,
      "plugin": "AudibleInstruments",
      "version": "1.3.1",
      "model": "Braids",
      "params": [
        {
          "id": 0,
          "value": 0.0
        },
        {
          "id": 1,
          "value": -0.284908295
        },
        {
          "id": 2,
          "value": 0.0291521866
        },
        {
          "id": 3,
          "value": 0.759503543
        },
        {
          "id": 4,
          "value": 0.955858111
        },
        {
          "id": 5,
          "value": 0.385802627
        },
        {
          "id": 6,
          "value": 0.140960574
        }
      ],
      "leftModuleId": 146,
      "rightModuleId": 133,
      "data": {
        "settings": [
          6,
          0,
          0,
          0,
          0,
          0,
          0,
          0,
          0,
          0,
          0,
          0,
          0,
          0,
          0,
          0,
          0,
          0,
          0,
          0
        ],
        "lowCpu": false
      },
      "pos": [
        14,
        0
      ]
    },
    {
      "id": 133,
      "plugin": "AudibleInstruments",
      "version": "1.3.1",
      "model": "Rings",
      "params": [
        {
          "id": 0,
          "value": 0.0
        },
        {
          "id": 1,
          "value": 0.0
        },
        {
          "id": 2,
          "value": 48.7388115
        },
        {
          "id": 3,
          "value": 0.645539939
        },
        {
          "id": 4,
          "value": 0.976244569
        },
        {
          "id": 5,
          "value": 0.551990032
        },
        {
          "id": 6,
          "value": 0.883166075
        },
        {
          "id": 7,
          "value": -0.801588297
        },
        {
          "id": 8,
          "value": -0.371175647
        },
        {
          "id": 9,
          "value": -0.318209767
        },
        {
          "id": 10,
          "value": -0.813459516
        },
        {
          "id": 11,
          "value": -0.982556701
        }
      ],
      "leftModuleId": 132,
      "rightModuleId": 140,
      "data": {
        "polyphony": 0,
        "model": 1,
        "easterEgg": false
      },
      "pos": [
        30,
        0
      ]
    },
    {
      "id": 140,
      "plugin": "Core",
      "version": "1.1.6",
      "model": "Notes",
      "params": [],
      "leftModuleId": 133,
      "text": "grammatica 020 - 2020-09-16\n\nengagement, day four. braids+rings.",
      "pos": [
        44,
        0
      ]
    },
    {
      "id": 146,
      "plugin": "RJModules",
      "version": "1.7.2",
      "model": "Octo",
      "params": [
        {
          "id": 0,
          "value": 6.0800004
        },
        {
          "id": 1,
          "value": 1.0
        },
        {
          "id": 2,
          "value": 0.0
        }
      ],
      "leftModuleId": 1,
      "rightModuleId": 132,
      "wave": 0.0,
      "pos": [
        10,
        0
      ]
    }
  ],
  "cables": [
    {
      "id": 23,
      "outputModuleId": 132,
      "outputId": 0,
      "inputModuleId": 133,
      "inputId": 7,
      "color": "#0986ad"
    },
    {
      "id": 36,
      "outputModuleId": 133,
      "outputId": 0,
      "inputModuleId": 1,
      "inputId": 0,
      "color": "#c9b70e"
    },
    {
      "id": 68,
      "outputModuleId": 133,
      "outputId": 1,
      "inputModuleId": 1,
      "inputId": 1,
      "color": "#0986ad"
    },
    {
      "id": 71,
      "outputModuleId": 146,
      "outputId": 3,
      "inputModuleId": 146,
      "inputId": 0,
      "color": "#0c8e15"
    },
    {
      "id": 72,
      "outputModuleId": 146,
      "outputId": 5,
      "inputModuleId": 132,
      "inputId": 2,
      "color": "#c91847"
    },
    {
      "id": 74,
      "outputModuleId": 146,
      "outputId": 6,
      "inputModuleId": 133,
      "inputId": 3,
      "color": "#c9b70e"
    },
    {
      "id": 70,
      "outputModuleId": 146,
      "outputId": 0,
      "inputModuleId": 132,
      "inputId": 4,
      "color": "#c9b70e"
    },
    {
      "id": 75,
      "outputModuleId": 146,
      "outputId": 0,
      "inputModuleId": 132,
      "inputId": 3,
      "color": "#0c8e15"
    }
  ]
}