{
  "version": "1.1.6",
  "modules": [
    {
      "id": 1,
      "plugin": "Core",
      "version": "1.1.6",
      "model": "AudioInterface",
      "params": [],
      "rightModuleId": 146,
      "data": {
        "audio": {
          "driver": 1,
          "deviceName": "hw:HDA Intel,0",
          "offset": 0,
          "maxChannels": 8,
          "sampleRate": 48000,
          "blockSize": 1024
        }
      },
      "pos": [
        0,
        0
      ]
    },
    {
      "id": 132,
      "plugin": "AudibleInstruments",
      "version": "1.3.1",
      "model": "Braids",
      "params": [
        {
          "id": 0,
          "value": 0.0256989002
        },
        {
          "id": 1,
          "value": 1.37485719
        },
        {
          "id": 2,
          "value": -0.147983432
        },
        {
          "id": 3,
          "value": 0.0861964822
        },
        {
          "id": 4,
          "value": 0.1478827
        },
        {
          "id": 5,
          "value": 0.583090425
        },
        {
          "id": 6,
          "value": 0.38652122
        }
      ],
      "leftModuleId": 146,
      "rightModuleId": 133,
      "data": {
        "settings": [
          18,
          0,
          0,
          0,
          0,
          0,
          0,
          0,
          0,
          0,
          0,
          0,
          0,
          0,
          0,
          0,
          0,
          0,
          0,
          0
        ],
        "lowCpu": false
      },
      "pos": [
        14,
        0
      ]
    },
    {
      "id": 133,
      "plugin": "AudibleInstruments",
      "version": "1.3.1",
      "model": "Rings",
      "params": [
        {
          "id": 0,
          "value": 0.0
        },
        {
          "id": 1,
          "value": 0.0
        },
        {
          "id": 2,
          "value": 8.19170189
        },
        {
          "id": 3,
          "value": 0.748414338
        },
        {
          "id": 4,
          "value": 0.338019073
        },
        {
          "id": 5,
          "value": 0.358935237
        },
        {
          "id": 6,
          "value": 0.90905863
        },
        {
          "id": 7,
          "value": 0.758761525
        },
        {
          "id": 8,
          "value": -0.292063117
        },
        {
          "id": 9,
          "value": 0.383042097
        },
        {
          "id": 10,
          "value": -0.851339221
        },
        {
          "id": 11,
          "value": 0.388864279
        }
      ],
      "leftModuleId": 132,
      "rightModuleId": 140,
      "data": {
        "polyphony": 2,
        "model": 1,
        "easterEgg": false
      },
      "pos": [
        30,
        0
      ]
    },
    {
      "id": 140,
      "plugin": "Core",
      "version": "1.1.6",
      "model": "Notes",
      "params": [],
      "leftModuleId": 133,
      "text": "grammatica 019 - 2020-09-15\n\nengagement, day three. braids+rings.",
      "pos": [
        44,
        0
      ]
    },
    {
      "id": 146,
      "plugin": "RJModules",
      "version": "1.7.2",
      "model": "Octo",
      "params": [
        {
          "id": 0,
          "value": 6.0800004
        },
        {
          "id": 1,
          "value": 1.0
        },
        {
          "id": 2,
          "value": 0.0
        }
      ],
      "leftModuleId": 1,
      "rightModuleId": 132,
      "wave": 1.0,
      "pos": [
        10,
        0
      ]
    }
  ],
  "cables": [
    {
      "id": 23,
      "outputModuleId": 132,
      "outputId": 0,
      "inputModuleId": 133,
      "inputId": 7,
      "color": "#0986ad"
    },
    {
      "id": 36,
      "outputModuleId": 133,
      "outputId": 0,
      "inputModuleId": 1,
      "inputId": 0,
      "color": "#c9b70e"
    },
    {
      "id": 60,
      "outputModuleId": 146,
      "outputId": 0,
      "inputModuleId": 132,
      "inputId": 4,
      "color": "#0986ad"
    },
    {
      "id": 61,
      "outputModuleId": 146,
      "outputId": 1,
      "inputModuleId": 132,
      "inputId": 3,
      "color": "#c9b70e"
    },
    {
      "id": 62,
      "outputModuleId": 146,
      "outputId": 2,
      "inputModuleId": 133,
      "inputId": 0,
      "color": "#0c8e15"
    },
    {
      "id": 63,
      "outputModuleId": 146,
      "outputId": 3,
      "inputModuleId": 133,
      "inputId": 1,
      "color": "#c91847"
    },
    {
      "id": 64,
      "outputModuleId": 146,
      "outputId": 4,
      "inputModuleId": 133,
      "inputId": 2,
      "color": "#0986ad"
    },
    {
      "id": 65,
      "outputModuleId": 146,
      "outputId": 5,
      "inputModuleId": 133,
      "inputId": 3,
      "color": "#c9b70e"
    },
    {
      "id": 66,
      "outputModuleId": 146,
      "outputId": 6,
      "inputModuleId": 133,
      "inputId": 4,
      "color": "#0c8e15"
    },
    {
      "id": 67,
      "outputModuleId": 146,
      "outputId": 7,
      "inputModuleId": 132,
      "inputId": 2,
      "color": "#c91847"
    },
    {
      "id": 68,
      "outputModuleId": 133,
      "outputId": 1,
      "inputModuleId": 1,
      "inputId": 1,
      "color": "#0986ad"
    },
    {
      "id": 69,
      "outputModuleId": 146,
      "outputId": 0,
      "inputModuleId": 132,
      "inputId": 1,
      "color": "#c9b70e"
    }
  ]
}