{
  "version": "1.1.6",
  "modules": [
    {
      "id": 1,
      "plugin": "Core",
      "version": "1.1.6",
      "model": "AudioInterface",
      "params": [],
      "rightModuleId": 13,
      "data": {
        "audio": {
          "driver": 1,
          "deviceName": "hw:HDA Intel,0",
          "offset": 0,
          "maxChannels": 8,
          "sampleRate": 48000,
          "blockSize": 1024
        }
      },
      "pos": [
        0,
        0
      ]
    },
    {
      "id": 9,
      "plugin": "MSM",
      "version": "1.0.0",
      "model": "Rogue",
      "params": [
        {
          "id": 0,
          "value": -37.4936295
        },
        {
          "id": 1,
          "value": 0.0
        },
        {
          "id": 2,
          "value": 0.0
        },
        {
          "id": 3,
          "value": 0.0
        },
        {
          "id": 4,
          "value": 1.0
        },
        {
          "id": 5,
          "value": 0.5
        },
        {
          "id": 6,
          "value": 1.0
        }
      ],
      "leftModuleId": 15,
      "rightModuleId": 10,
      "data": {
        "Theme": 0
      },
      "pos": [
        18,
        0
      ]
    },
    {
      "id": 10,
      "plugin": "FrozenWasteland",
      "version": "1.15.7",
      "model": "JustAPhaser",
      "params": [
        {
          "id": 0,
          "value": 0.0
        },
        {
          "id": 1,
          "value": 0.0
        },
        {
          "id": 2,
          "value": 0.0
        },
        {
          "id": 3,
          "value": -4.75964928
        },
        {
          "id": 4,
          "value": 0.366791904
        },
        {
          "id": 5,
          "value": 0.0
        },
        {
          "id": 6,
          "value": -0.926822305
        },
        {
          "id": 7,
          "value": 8.92720699
        },
        {
          "id": 8,
          "value": 0.85120219
        },
        {
          "id": 9,
          "value": 0.866523325
        },
        {
          "id": 10,
          "value": 0.679297566
        },
        {
          "id": 11,
          "value": 0.5
        }
      ],
      "leftModuleId": 9,
      "rightModuleId": 11,
      "data": {
        "nunberOfStagesIndex": 0,
        "numberOfStages": 4,
        "filterMode": 0,
        "waveShape": 0,
        "frequencyModType": 0
      },
      "pos": [
        27,
        0
      ]
    },
    {
      "id": 11,
      "plugin": "FrozenWasteland",
      "version": "1.15.7",
      "model": "JustAPhaser",
      "params": [
        {
          "id": 0,
          "value": 0.0
        },
        {
          "id": 1,
          "value": 0.0
        },
        {
          "id": 2,
          "value": 0.0
        },
        {
          "id": 3,
          "value": -4.1188674
        },
        {
          "id": 4,
          "value": 0.497410953
        },
        {
          "id": 5,
          "value": 0.0
        },
        {
          "id": 6,
          "value": 0.460309029
        },
        {
          "id": 7,
          "value": 7.35962248
        },
        {
          "id": 8,
          "value": 0.905591846
        },
        {
          "id": 9,
          "value": 3.84268641
        },
        {
          "id": 10,
          "value": 0.98079294
        },
        {
          "id": 11,
          "value": 0.5
        }
      ],
      "leftModuleId": 10,
      "rightModuleId": 12,
      "data": {
        "nunberOfStagesIndex": 0,
        "numberOfStages": 4,
        "filterMode": 0,
        "waveShape": 0,
        "frequencyModType": 0
      },
      "pos": [
        37,
        0
      ]
    },
    {
      "id": 12,
      "plugin": "VultModulesFree",
      "version": "1.12",
      "model": "Debriatus",
      "params": [
        {
          "id": 0,
          "value": 0.497999966
        },
        {
          "id": 1,
          "value": 0.0
        },
        {
          "id": 2,
          "value": 0.0
        },
        {
          "id": 3,
          "value": 0.499499887
        },
        {
          "id": 4,
          "value": -0.100000001
        },
        {
          "id": 5,
          "value": 0.0
        },
        {
          "id": 6,
          "value": 0.0
        },
        {
          "id": 7,
          "value": 0.0
        }
      ],
      "leftModuleId": 11,
      "rightModuleId": 16,
      "pos": [
        47,
        0
      ]
    },
    {
      "id": 13,
      "plugin": "Fundamental",
      "version": "1.4.0",
      "model": "Random",
      "params": [
        {
          "id": 0,
          "value": 0.0
        },
        {
          "id": 1,
          "value": 0.5
        },
        {
          "id": 2,
          "value": 1.0
        },
        {
          "id": 3,
          "value": 1.0
        }
      ],
      "leftModuleId": 1,
      "rightModuleId": 15,
      "pos": [
        10,
        0
      ]
    },
    {
      "id": 15,
      "plugin": "Fundamental",
      "version": "1.4.0",
      "model": "VCA-1",
      "params": [
        {
          "id": 0,
          "value": 0.200000003
        },
        {
          "id": 1,
          "value": 1.0
        }
      ],
      "leftModuleId": 13,
      "rightModuleId": 9,
      "pos": [
        15,
        0
      ]
    },
    {
      "id": 16,
      "plugin": "Core",
      "version": "1.1.6",
      "model": "Notes",
      "params": [],
      "leftModuleId": 12,
      "text": "grammatica 030 - 2020-09-29\n\nA grungy drone made with two phaser and a distortion. boring.",
      "pos": [
        57,
        0
      ]
    }
  ],
  "cables": [
    {
      "id": 2,
      "outputModuleId": 9,
      "outputId": 5,
      "inputModuleId": 10,
      "inputId": 0,
      "color": "#0986ad"
    },
    {
      "id": 3,
      "outputModuleId": 9,
      "outputId": 6,
      "inputModuleId": 10,
      "inputId": 1,
      "color": "#0c8e15"
    },
    {
      "id": 6,
      "outputModuleId": 10,
      "outputId": 2,
      "inputModuleId": 11,
      "inputId": 0,
      "color": "#c9b70e"
    },
    {
      "id": 7,
      "outputModuleId": 10,
      "outputId": 3,
      "inputModuleId": 11,
      "inputId": 1,
      "color": "#0c8e15"
    },
    {
      "id": 5,
      "outputModuleId": 12,
      "outputId": 1,
      "inputModuleId": 1,
      "inputId": 1,
      "color": "#0986ad"
    },
    {
      "id": 4,
      "outputModuleId": 12,
      "outputId": 0,
      "inputModuleId": 1,
      "inputId": 0,
      "color": "#c91847"
    },
    {
      "id": 8,
      "outputModuleId": 11,
      "outputId": 2,
      "inputModuleId": 12,
      "inputId": 0,
      "color": "#c91847"
    },
    {
      "id": 9,
      "outputModuleId": 11,
      "outputId": 3,
      "inputModuleId": 12,
      "inputId": 5,
      "color": "#0986ad"
    },
    {
      "id": 10,
      "outputModuleId": 15,
      "outputId": 0,
      "inputModuleId": 9,
      "inputId": 1,
      "color": "#c9b70e"
    },
    {
      "id": 11,
      "outputModuleId": 13,
      "outputId": 2,
      "inputModuleId": 15,
      "inputId": 0,
      "color": "#0c8e15"
    },
    {
      "id": 12,
      "outputModuleId": 13,
      "outputId": 1,
      "inputModuleId": 12,
      "inputId": 1,
      "color": "#c91847"
    }
  ]
}