{
  "version": "1.1.6",
  "modules": [
    {
      "id": 1,
      "plugin": "Core",
      "version": "1.1.6",
      "model": "AudioInterface",
      "params": [],
      "leftModuleId": 131,
      "data": {
        "audio": {
          "driver": 1,
          "deviceName": "hw:HDA Intel,0",
          "offset": 0,
          "maxChannels": 8,
          "sampleRate": 48000,
          "blockSize": 1024
        }
      },
      "pos": [
        44,
        1
      ]
    },
    {
      "id": 121,
      "plugin": "Valley",
      "version": "1.1.0",
      "model": "Plateau",
      "params": [
        {
          "id": 0,
          "value": 0.439692259
        },
        {
          "id": 1,
          "value": 0.346435726
        },
        {
          "id": 2,
          "value": 0.226634085
        },
        {
          "id": 3,
          "value": 7.99262619
        },
        {
          "id": 4,
          "value": 5.75703907
        },
        {
          "id": 5,
          "value": 0.192867458
        },
        {
          "id": 6,
          "value": 8.13019371
        },
        {
          "id": 7,
          "value": 0.604878962
        },
        {
          "id": 8,
          "value": 8.10965347
        },
        {
          "id": 9,
          "value": 8.19684696
        },
        {
          "id": 10,
          "value": 0.458716393
        },
        {
          "id": 11,
          "value": 0.0698681474
        },
        {
          "id": 12,
          "value": 8.00226212
        },
        {
          "id": 13,
          "value": 0.0
        },
        {
          "id": 14,
          "value": 0.0
        },
        {
          "id": 15,
          "value": 1.0
        },
        {
          "id": 16,
          "value": 0.0
        },
        {
          "id": 17,
          "value": 0.119172812
        },
        {
          "id": 18,
          "value": -0.19522357
        },
        {
          "id": 19,
          "value": 0.375299096
        },
        {
          "id": 20,
          "value": 0.596572757
        },
        {
          "id": 21,
          "value": -0.901123285
        },
        {
          "id": 22,
          "value": -0.121700406
        },
        {
          "id": 23,
          "value": 0.495902896
        },
        {
          "id": 24,
          "value": -0.0694317818
        },
        {
          "id": 25,
          "value": -0.20540607
        },
        {
          "id": 26,
          "value": 0.486257434
        },
        {
          "id": 27,
          "value": -0.755190849
        },
        {
          "id": 28,
          "value": -0.581632853
        },
        {
          "id": 29,
          "value": 0.0
        },
        {
          "id": 30,
          "value": 1.0
        }
      ],
      "leftModuleId": 122,
      "rightModuleId": 123,
      "data": {
        "frozen": false,
        "freezeToggle": true,
        "panelStyle": 0,
        "tuned": 0,
        "diffuseInput": 1,
        "preDelayCVSens": 0,
        "inputSensitivity": 0,
        "outputSaturation": 0
      },
      "pos": [
        18,
        0
      ]
    },
    {
      "id": 122,
      "plugin": "Bogaudio",
      "version": "1.1.34",
      "model": "Bogaudio-Additator",
      "params": [
        {
          "id": 0,
          "value": -0.952131271
        },
        {
          "id": 1,
          "value": 87.0
        },
        {
          "id": 2,
          "value": 0.633134127
        },
        {
          "id": 3,
          "value": -0.640581667
        },
        {
          "id": 4,
          "value": 0.9590801
        },
        {
          "id": 5,
          "value": 3.43552113
        },
        {
          "id": 6,
          "value": -0.0906276703
        },
        {
          "id": 7,
          "value": 0.0309494734
        },
        {
          "id": 8,
          "value": 0.147898242
        },
        {
          "id": 9,
          "value": 1.0
        },
        {
          "id": 10,
          "value": -0.376899242
        }
      ],
      "leftModuleId": 127,
      "rightModuleId": 121,
      "data": {},
      "pos": [
        3,
        0
      ]
    },
    {
      "id": 123,
      "plugin": "Valley",
      "version": "1.1.0",
      "model": "Plateau",
      "params": [
        {
          "id": 0,
          "value": 0.592421293
        },
        {
          "id": 1,
          "value": 0.249425054
        },
        {
          "id": 2,
          "value": 0.213499963
        },
        {
          "id": 3,
          "value": 6.31748772
        },
        {
          "id": 4,
          "value": 6.91403437
        },
        {
          "id": 5,
          "value": 0.976726651
        },
        {
          "id": 6,
          "value": 9.82595444
        },
        {
          "id": 7,
          "value": 0.25919041
        },
        {
          "id": 8,
          "value": 1.24120891
        },
        {
          "id": 9,
          "value": 2.95638561
        },
        {
          "id": 10,
          "value": 0.78027761
        },
        {
          "id": 11,
          "value": 0.458652675
        },
        {
          "id": 12,
          "value": 12.5982332
        },
        {
          "id": 13,
          "value": 0.0
        },
        {
          "id": 14,
          "value": 0.0
        },
        {
          "id": 15,
          "value": 1.0
        },
        {
          "id": 16,
          "value": 0.0
        },
        {
          "id": 17,
          "value": 0.119253993
        },
        {
          "id": 18,
          "value": 0.616782069
        },
        {
          "id": 19,
          "value": 0.429642439
        },
        {
          "id": 20,
          "value": -0.168616891
        },
        {
          "id": 21,
          "value": 0.864618778
        },
        {
          "id": 22,
          "value": 0.617361426
        },
        {
          "id": 23,
          "value": -0.914899349
        },
        {
          "id": 24,
          "value": -0.774066448
        },
        {
          "id": 25,
          "value": 0.0523604155
        },
        {
          "id": 26,
          "value": 0.000560045242
        },
        {
          "id": 27,
          "value": -0.435969353
        },
        {
          "id": 28,
          "value": -0.452832699
        },
        {
          "id": 29,
          "value": 1.0
        },
        {
          "id": 30,
          "value": 0.0
        }
      ],
      "leftModuleId": 121,
      "rightModuleId": 124,
      "data": {
        "frozen": false,
        "freezeToggle": true,
        "panelStyle": 0,
        "tuned": 1,
        "diffuseInput": 0,
        "preDelayCVSens": 0,
        "inputSensitivity": 0,
        "outputSaturation": 0
      },
      "pos": [
        30,
        0
      ]
    },
    {
      "id": 124,
      "plugin": "Valley",
      "version": "1.1.0",
      "model": "Plateau",
      "params": [
        {
          "id": 0,
          "value": 0.44220835
        },
        {
          "id": 1,
          "value": 0.84279871
        },
        {
          "id": 2,
          "value": 0.4315027
        },
        {
          "id": 3,
          "value": 9.73534966
        },
        {
          "id": 4,
          "value": 0.414735079
        },
        {
          "id": 5,
          "value": 0.234816611
        },
        {
          "id": 6,
          "value": 2.30432224
        },
        {
          "id": 7,
          "value": 0.868655205
        },
        {
          "id": 8,
          "value": 5.00141859
        },
        {
          "id": 9,
          "value": 5.01580429
        },
        {
          "id": 10,
          "value": 0.363832831
        },
        {
          "id": 11,
          "value": 0.241660297
        },
        {
          "id": 12,
          "value": 8.1943903
        },
        {
          "id": 13,
          "value": 0.0
        },
        {
          "id": 14,
          "value": 0.0
        },
        {
          "id": 15,
          "value": 0.0
        },
        {
          "id": 16,
          "value": 0.0
        },
        {
          "id": 17,
          "value": 0.400915027
        },
        {
          "id": 18,
          "value": 0.959378123
        },
        {
          "id": 19,
          "value": 0.052716136
        },
        {
          "id": 20,
          "value": -0.922416806
        },
        {
          "id": 21,
          "value": 0.620243907
        },
        {
          "id": 22,
          "value": -0.483759284
        },
        {
          "id": 23,
          "value": -0.750906467
        },
        {
          "id": 24,
          "value": -0.854284644
        },
        {
          "id": 25,
          "value": 0.283487439
        },
        {
          "id": 26,
          "value": -0.75150466
        },
        {
          "id": 27,
          "value": -0.255747199
        },
        {
          "id": 28,
          "value": -0.412385941
        },
        {
          "id": 29,
          "value": 0.0
        },
        {
          "id": 30,
          "value": 1.0
        }
      ],
      "leftModuleId": 123,
      "data": {
        "frozen": false,
        "freezeToggle": false,
        "panelStyle": 0,
        "tuned": 0,
        "diffuseInput": 1,
        "preDelayCVSens": 0,
        "inputSensitivity": 0,
        "outputSaturation": 0
      },
      "pos": [
        42,
        0
      ]
    },
    {
      "id": 127,
      "plugin": "Stoermelder-P1",
      "version": "1.7.1",
      "model": "Strip",
      "params": [
        {
          "id": 0,
          "value": 0.0
        },
        {
          "id": 1,
          "value": 0.0
        },
        {
          "id": 2,
          "value": 0.0
        },
        {
          "id": 3,
          "value": 0.0
        },
        {
          "id": 4,
          "value": 0.0
        }
      ],
      "rightModuleId": 122,
      "data": {
        "panelTheme": 0,
        "mode": 1,
        "onMode": 0,
        "excludedParams": [],
        "randomExcl": 1,
        "randomParamsOnly": false
      },
      "pos": [
        0,
        0
      ]
    },
    {
      "id": 128,
      "plugin": "HetrickCV",
      "version": "1.0.0",
      "model": "Dust",
      "params": [
        {
          "id": 0,
          "value": 0.0500000007
        },
        {
          "id": 1,
          "value": 0.0
        }
      ],
      "pos": [
        0,
        1
      ]
    },
    {
      "id": 129,
      "plugin": "TinyTricks",
      "version": "1.5.0",
      "model": "SH16",
      "params": [],
      "rightModuleId": 130,
      "data": {
        "skin": 0,
        "forcebright": false
      },
      "pos": [
        7,
        1
      ]
    },
    {
      "id": 130,
      "plugin": "HetrickCV",
      "version": "1.0.0",
      "model": "Dust",
      "params": [
        {
          "id": 0,
          "value": 0.100000001
        },
        {
          "id": 1,
          "value": 0.0
        }
      ],
      "leftModuleId": 129,
      "pos": [
        12,
        1
      ]
    },
    {
      "id": 131,
      "plugin": "Core",
      "version": "1.1.6",
      "model": "Notes",
      "params": [],
      "rightModuleId": 1,
      "text": "grammatica 016 - 2020-09-12\n\nAnother experiment in sound design. The parameters of one Additator and three Plateaus are asyncronously altered.",
      "pos": [
        28,
        1
      ]
    }
  ],
  "cables": [
    {
      "id": 0,
      "outputModuleId": 122,
      "outputId": 0,
      "inputModuleId": 121,
      "inputId": 0,
      "color": "#c9b70e"
    },
    {
      "id": 3,
      "outputModuleId": 121,
      "outputId": 0,
      "inputModuleId": 123,
      "inputId": 0,
      "color": "#0986ad"
    },
    {
      "id": 4,
      "outputModuleId": 121,
      "outputId": 1,
      "inputModuleId": 123,
      "inputId": 1,
      "color": "#c9b70e"
    },
    {
      "id": 5,
      "outputModuleId": 123,
      "outputId": 0,
      "inputModuleId": 124,
      "inputId": 0,
      "color": "#0c8e15"
    },
    {
      "id": 6,
      "outputModuleId": 123,
      "outputId": 1,
      "inputModuleId": 124,
      "inputId": 1,
      "color": "#c91847"
    },
    {
      "id": 7,
      "outputModuleId": 124,
      "outputId": 0,
      "inputModuleId": 1,
      "inputId": 0,
      "color": "#0986ad"
    },
    {
      "id": 8,
      "outputModuleId": 124,
      "outputId": 1,
      "inputModuleId": 1,
      "inputId": 1,
      "color": "#c9b70e"
    },
    {
      "id": 11,
      "outputModuleId": 128,
      "outputId": 0,
      "inputModuleId": 127,
      "inputId": 2,
      "color": "#c9b70e"
    },
    {
      "id": 12,
      "outputModuleId": 130,
      "outputId": 0,
      "inputModuleId": 129,
      "inputId": 0,
      "color": "#c91847"
    },
    {
      "id": 13,
      "outputModuleId": 129,
      "outputId": 0,
      "inputModuleId": 122,
      "inputId": 1,
      "color": "#0986ad"
    },
    {
      "id": 14,
      "outputModuleId": 129,
      "outputId": 8,
      "inputModuleId": 122,
      "inputId": 2,
      "color": "#c9b70e"
    },
    {
      "id": 15,
      "outputModuleId": 129,
      "outputId": 1,
      "inputModuleId": 122,
      "inputId": 3,
      "color": "#0c8e15"
    },
    {
      "id": 16,
      "outputModuleId": 129,
      "outputId": 9,
      "inputModuleId": 122,
      "inputId": 4,
      "color": "#c91847"
    },
    {
      "id": 17,
      "outputModuleId": 129,
      "outputId": 2,
      "inputModuleId": 122,
      "inputId": 5,
      "color": "#0986ad"
    },
    {
      "id": 18,
      "outputModuleId": 129,
      "outputId": 10,
      "inputModuleId": 122,
      "inputId": 0,
      "color": "#c9b70e"
    },
    {
      "id": 19,
      "outputModuleId": 129,
      "outputId": 3,
      "inputModuleId": 122,
      "inputId": 6,
      "color": "#0c8e15"
    },
    {
      "id": 20,
      "outputModuleId": 129,
      "outputId": 11,
      "inputModuleId": 122,
      "inputId": 7,
      "color": "#c91847"
    },
    {
      "id": 21,
      "outputModuleId": 129,
      "outputId": 4,
      "inputModuleId": 122,
      "inputId": 8,
      "color": "#0986ad"
    },
    {
      "id": 22,
      "outputModuleId": 129,
      "outputId": 12,
      "inputModuleId": 122,
      "inputId": 9,
      "color": "#c9b70e"
    }
  ]
}