{
  "version": "1.1.6",
  "modules": [
    {
      "id": 1,
      "plugin": "Core",
      "version": "1.1.6",
      "model": "AudioInterface",
      "params": [],
      "rightModuleId": 4,
      "data": {
        "audio": {
          "driver": 1,
          "deviceName": "hw:HDA Intel,0",
          "offset": 0,
          "maxChannels": 8,
          "sampleRate": 44100,
          "blockSize": 1024
        }
      },
      "pos": [
        0,
        0
      ]
    },
    {
      "id": 4,
      "plugin": "ESeries",
      "version": "1.0.2",
      "model": "E340",
      "params": [
        {
          "id": 0,
          "value": -28.6559715
        },
        {
          "id": 1,
          "value": 0.0
        },
        {
          "id": 2,
          "value": 0.0
        },
        {
          "id": 3,
          "value": 0.312002093
        },
        {
          "id": 4,
          "value": 0.0
        },
        {
          "id": 5,
          "value": 0.5
        },
        {
          "id": 6,
          "value": 0.0
        }
      ],
      "leftModuleId": 1,
      "rightModuleId": 5,
      "pos": [
        10,
        0
      ]
    },
    {
      "id": 5,
      "plugin": "rackwindows",
      "version": "1.1.2",
      "model": "holt",
      "params": [
        {
          "id": 0,
          "value": 0.34899956
        },
        {
          "id": 1,
          "value": 0.258999974
        },
        {
          "id": 2,
          "value": 0.977500439
        }
      ],
      "leftModuleId": 4,
      "rightModuleId": 6,
      "data": {
        "quality": 0
      },
      "pos": [
        24,
        0
      ]
    },
    {
      "id": 6,
      "plugin": "Bogaudio",
      "version": "1.1.34",
      "model": "Bogaudio-LLFO",
      "params": [
        {
          "id": 0,
          "value": -3.08100057
        },
        {
          "id": 1,
          "value": 0.0
        },
        {
          "id": 2,
          "value": 0.0
        },
        {
          "id": 3,
          "value": 0.0199999996
        },
        {
          "id": 4,
          "value": 0.100000001
        }
      ],
      "leftModuleId": 5,
      "rightModuleId": 7,
      "data": {},
      "pos": [
        30,
        0
      ]
    },
    {
      "id": 7,
      "plugin": "Bogaudio",
      "version": "1.1.34",
      "model": "Bogaudio-LLFO",
      "params": [
        {
          "id": 0,
          "value": -3.08100057
        },
        {
          "id": 1,
          "value": 1.0
        },
        {
          "id": 2,
          "value": 0.0
        },
        {
          "id": 3,
          "value": 0.0
        },
        {
          "id": 4,
          "value": 0.100000001
        }
      ],
      "leftModuleId": 6,
      "rightModuleId": 8,
      "data": {},
      "pos": [
        33,
        0
      ]
    },
    {
      "id": 8,
      "plugin": "Core",
      "version": "1.1.6",
      "model": "Notes",
      "params": [],
      "leftModuleId": 7,
      "text": "grammatica 024 - 2020-09-20\n\nOne E340 Cloud Generator through Rackwindows Holt filter. Spread and filter freq modulated by two BogAudio LLFO.",
      "pos": [
        36,
        0
      ]
    }
  ],
  "cables": [
    {
      "id": 3,
      "outputModuleId": 4,
      "outputId": 0,
      "inputModuleId": 5,
      "inputId": 3,
      "color": "#0986ad"
    },
    {
      "id": 4,
      "outputModuleId": 5,
      "outputId": 0,
      "inputModuleId": 1,
      "inputId": 0,
      "color": "#c9b70e"
    },
    {
      "id": 7,
      "outputModuleId": 5,
      "outputId": 0,
      "inputModuleId": 1,
      "inputId": 1,
      "color": "#0986ad"
    },
    {
      "id": 8,
      "outputModuleId": 6,
      "outputId": 0,
      "inputModuleId": 4,
      "inputId": 3,
      "color": "#c9b70e"
    },
    {
      "id": 9,
      "outputModuleId": 7,
      "outputId": 0,
      "inputModuleId": 5,
      "inputId": 0,
      "color": "#0c8e15"
    }
  ]
}