{
  "version": "1.1.6",
  "modules": [
    {
      "id": 1,
      "plugin": "Core",
      "version": "1.1.6",
      "model": "AudioInterface",
      "params": [],
      "rightModuleId": 33,
      "data": {
        "audio": {
          "driver": 1,
          "deviceName": "hw:HDA Intel,0",
          "offset": 0,
          "maxChannels": 8,
          "sampleRate": 44100,
          "blockSize": 1024
        }
      },
      "pos": [
        0,
        1
      ]
    },
    {
      "id": 19,
      "plugin": "21kHz",
      "version": "1.0.1",
      "model": "kHzTachyonEntangler",
      "params": [
        {
          "id": 0,
          "value": 8.0
        },
        {
          "id": 1,
          "value": 0.0
        },
        {
          "id": 2,
          "value": 0.0
        },
        {
          "id": 3,
          "value": 1.12500012
        },
        {
          "id": 4,
          "value": 0.0
        },
        {
          "id": 5,
          "value": 0.0
        },
        {
          "id": 6,
          "value": 0.127500087
        },
        {
          "id": 7,
          "value": 0.0
        },
        {
          "id": 8,
          "value": 0.0
        },
        {
          "id": 9,
          "value": 0.0
        },
        {
          "id": 10,
          "value": 0.421500027
        },
        {
          "id": 11,
          "value": 0.590500116
        },
        {
          "id": 12,
          "value": 0.100000001
        },
        {
          "id": 13,
          "value": 0.0464999974
        },
        {
          "id": 14,
          "value": 0.0
        },
        {
          "id": 15,
          "value": 0.0
        }
      ],
      "leftModuleId": 24,
      "rightModuleId": 20,
      "pos": [
        22,
        0
      ]
    },
    {
      "id": 20,
      "plugin": "Bogaudio",
      "version": "1.1.33",
      "model": "Bogaudio-LLFO",
      "params": [
        {
          "id": 0,
          "value": -2.09025574
        },
        {
          "id": 1,
          "value": 1.0
        },
        {
          "id": 2,
          "value": 4.0
        },
        {
          "id": 3,
          "value": -0.171000019
        },
        {
          "id": 4,
          "value": 0.163000047
        }
      ],
      "leftModuleId": 19,
      "rightModuleId": 26,
      "pos": [
        42,
        0
      ]
    },
    {
      "id": 24,
      "plugin": "Fundamental",
      "version": "1.4.0",
      "model": "VCA-1",
      "params": [
        {
          "id": 0,
          "value": 0.536500096
        },
        {
          "id": 1,
          "value": 1.0
        }
      ],
      "leftModuleId": 25,
      "rightModuleId": 19,
      "pos": [
        19,
        0
      ]
    },
    {
      "id": 25,
      "plugin": "Fundamental",
      "version": "1.4.0",
      "model": "VCA-1",
      "params": [
        {
          "id": 0,
          "value": 0.538000107
        },
        {
          "id": 1,
          "value": 1.0
        }
      ],
      "leftModuleId": 30,
      "rightModuleId": 24,
      "pos": [
        16,
        0
      ]
    },
    {
      "id": 26,
      "plugin": "Bogaudio",
      "version": "1.1.33",
      "model": "Bogaudio-LLFO",
      "params": [
        {
          "id": 0,
          "value": -1.67521858
        },
        {
          "id": 1,
          "value": 1.0
        },
        {
          "id": 2,
          "value": 4.0
        },
        {
          "id": 3,
          "value": 0.138000011
        },
        {
          "id": 4,
          "value": 0.296500057
        }
      ],
      "leftModuleId": 20,
      "rightModuleId": 27,
      "pos": [
        45,
        0
      ]
    },
    {
      "id": 27,
      "plugin": "Bogaudio",
      "version": "1.1.33",
      "model": "Bogaudio-LLFO",
      "params": [
        {
          "id": 0,
          "value": -1.35329056
        },
        {
          "id": 1,
          "value": 1.0
        },
        {
          "id": 2,
          "value": 4.0
        },
        {
          "id": 3,
          "value": 0.197999984
        },
        {
          "id": 4,
          "value": 0.280000061
        }
      ],
      "leftModuleId": 26,
      "rightModuleId": 28,
      "pos": [
        48,
        0
      ]
    },
    {
      "id": 28,
      "plugin": "Bogaudio",
      "version": "1.1.33",
      "model": "Bogaudio-LLFO",
      "params": [
        {
          "id": 0,
          "value": -4.3767848
        },
        {
          "id": 1,
          "value": 0.0
        },
        {
          "id": 2,
          "value": 4.0
        },
        {
          "id": 3,
          "value": 0.613919258
        },
        {
          "id": 4,
          "value": 0.5943892
        }
      ],
      "leftModuleId": 27,
      "rightModuleId": 31,
      "pos": [
        51,
        0
      ]
    },
    {
      "id": 29,
      "plugin": "AudibleInstruments",
      "version": "1.3.1",
      "model": "Ripples",
      "params": [
        {
          "id": 0,
          "value": 0.265500009
        },
        {
          "id": 1,
          "value": 10.6103373
        },
        {
          "id": 2,
          "value": 0.0
        }
      ],
      "rightModuleId": 30,
      "pos": [
        0,
        0
      ]
    },
    {
      "id": 30,
      "plugin": "AudibleInstruments",
      "version": "1.3.1",
      "model": "Ripples",
      "params": [
        {
          "id": 0,
          "value": 0.313499957
        },
        {
          "id": 1,
          "value": 10.4608517
        },
        {
          "id": 2,
          "value": 0.0
        }
      ],
      "leftModuleId": 29,
      "rightModuleId": 25,
      "pos": [
        8,
        0
      ]
    },
    {
      "id": 31,
      "plugin": "Bogaudio",
      "version": "1.1.33",
      "model": "Bogaudio-LLFO",
      "params": [
        {
          "id": 0,
          "value": 0.145590782
        },
        {
          "id": 1,
          "value": 1.0
        },
        {
          "id": 2,
          "value": 4.0
        },
        {
          "id": 3,
          "value": 0.276041865
        },
        {
          "id": 4,
          "value": 0.692560911
        }
      ],
      "leftModuleId": 28,
      "pos": [
        54,
        0
      ]
    },
    {
      "id": 33,
      "plugin": "Blamsoft-XFXReverb",
      "version": "1.0.0",
      "model": "Blamsoft-XFXReverb",
      "params": [
        {
          "id": 0,
          "value": 1.0
        },
        {
          "id": 1,
          "value": 0.400000006
        },
        {
          "id": 2,
          "value": 0.400000006
        },
        {
          "id": 3,
          "value": 0.5
        },
        {
          "id": 4,
          "value": 0.5
        },
        {
          "id": 5,
          "value": 0.25
        },
        {
          "id": 6,
          "value": 0.25
        },
        {
          "id": 7,
          "value": 0.5
        },
        {
          "id": 8,
          "value": 0.25
        }
      ],
      "leftModuleId": 1,
      "rightModuleId": 34,
      "pos": [
        10,
        1
      ]
    },
    {
      "id": 34,
      "plugin": "Core",
      "version": "1.1.6",
      "model": "Notes",
      "params": [],
      "leftModuleId": 33,
      "text": "grammatica 005 - 2020-08-14\n\nAnother study in basic pulse wave modulation.",
      "pos": [
        24,
        1
      ]
    }
  ],
  "cables": [
    {
      "id": 20,
      "outputModuleId": 20,
      "outputId": 0,
      "inputModuleId": 19,
      "inputId": 10,
      "color": "#c9b70e"
    },
    {
      "id": 22,
      "outputModuleId": 19,
      "outputId": 1,
      "inputModuleId": 24,
      "inputId": 1,
      "color": "#c91847"
    },
    {
      "id": 24,
      "outputModuleId": 19,
      "outputId": 0,
      "inputModuleId": 25,
      "inputId": 1,
      "color": "#c9b70e"
    },
    {
      "id": 26,
      "outputModuleId": 26,
      "outputId": 0,
      "inputModuleId": 19,
      "inputId": 1,
      "color": "#c91847"
    },
    {
      "id": 27,
      "outputModuleId": 27,
      "outputId": 0,
      "inputModuleId": 19,
      "inputId": 4,
      "color": "#0986ad"
    },
    {
      "id": 25,
      "outputModuleId": 25,
      "outputId": 0,
      "inputModuleId": 30,
      "inputId": 3,
      "color": "#0c8e15"
    },
    {
      "id": 23,
      "outputModuleId": 24,
      "outputId": 0,
      "inputModuleId": 29,
      "inputId": 3,
      "color": "#0986ad"
    },
    {
      "id": 31,
      "outputModuleId": 28,
      "outputId": 0,
      "inputModuleId": 29,
      "inputId": 1,
      "color": "#c9b70e"
    },
    {
      "id": 32,
      "outputModuleId": 31,
      "outputId": 0,
      "inputModuleId": 30,
      "inputId": 1,
      "color": "#0c8e15"
    },
    {
      "id": 29,
      "outputModuleId": 30,
      "outputId": 1,
      "inputModuleId": 33,
      "inputId": 5,
      "color": "#0c8e15"
    },
    {
      "id": 30,
      "outputModuleId": 29,
      "outputId": 1,
      "inputModuleId": 33,
      "inputId": 6,
      "color": "#0986ad"
    },
    {
      "id": 33,
      "outputModuleId": 33,
      "outputId": 0,
      "inputModuleId": 1,
      "inputId": 0,
      "color": "#c91847"
    },
    {
      "id": 34,
      "outputModuleId": 33,
      "outputId": 1,
      "inputModuleId": 1,
      "inputId": 1,
      "color": "#0986ad"
    }
  ]
}