{
  "version": "1.1.6",
  "modules": [
    {
      "id": 1,
      "plugin": "Core",
      "version": "1.1.6",
      "model": "AudioInterface",
      "params": [],
      "rightModuleId": 58,
      "data": {
        "audio": {
          "driver": 1,
          "deviceName": "hw:HDA Intel,0",
          "offset": 0,
          "maxChannels": 8,
          "sampleRate": 44100,
          "blockSize": 256
        }
      },
      "pos": [
        0,
        0
      ]
    },
    {
      "id": 58,
      "plugin": "Bogaudio",
      "version": "1.1.33",
      "model": "Bogaudio-Noise",
      "params": [],
      "leftModuleId": 1,
      "rightModuleId": 59,
      "data": {
        "poly_channels": 1
      },
      "pos": [
        10,
        0
      ]
    },
    {
      "id": 59,
      "plugin": "ML_modules",
      "version": "1.1.2",
      "model": "ShiftRegister",
      "params": [
        {
          "id": 0,
          "value": 0.0
        },
        {
          "id": 1,
          "value": 0.0
        },
        {
          "id": 2,
          "value": 0.0
        },
        {
          "id": 3,
          "value": 0.0
        },
        {
          "id": 4,
          "value": 0.0
        },
        {
          "id": 5,
          "value": 0.0
        },
        {
          "id": 6,
          "value": 0.0
        },
        {
          "id": 7,
          "value": 0.0
        },
        {
          "id": 8,
          "value": 0.0
        }
      ],
      "leftModuleId": 58,
      "rightModuleId": 64,
      "pos": [
        13,
        0
      ]
    },
    {
      "id": 64,
      "plugin": "mscHack",
      "version": "1.0.2",
      "model": "StepDelay",
      "params": [
        {
          "id": 0,
          "value": 4.0
        },
        {
          "id": 1,
          "value": 0.053999994
        },
        {
          "id": 2,
          "value": 0.118499979
        },
        {
          "id": 3,
          "value": 0.5
        },
        {
          "id": 4,
          "value": 0.5
        },
        {
          "id": 5,
          "value": 0.5
        },
        {
          "id": 6,
          "value": 0.5
        },
        {
          "id": 7,
          "value": -0.567000031
        },
        {
          "id": 8,
          "value": 0.477000058
        },
        {
          "id": 9,
          "value": 0.257999986
        },
        {
          "id": 10,
          "value": -0.243000001
        },
        {
          "id": 11,
          "value": 0.48750028
        },
        {
          "id": 12,
          "value": 0.131999999
        },
        {
          "id": 13,
          "value": 0.424500018
        },
        {
          "id": 14,
          "value": 0.233999982
        },
        {
          "id": 15,
          "value": 1.0
        },
        {
          "id": 16,
          "value": 1.0
        },
        {
          "id": 17,
          "value": 1.0
        },
        {
          "id": 18,
          "value": 1.0
        },
        {
          "id": 19,
          "value": 1.0
        }
      ],
      "leftModuleId": 59,
      "rightModuleId": 67,
      "data": {
        "m_lenmod": [
          0,
          2,
          1,
          1
        ]
      },
      "pos": [
        17,
        0
      ]
    },
    {
      "id": 67,
      "plugin": "Bogaudio",
      "version": "1.1.33",
      "model": "Bogaudio-Sine",
      "params": [
        {
          "id": 0,
          "value": 2.28150034
        },
        {
          "id": 1,
          "value": 0.0
        },
        {
          "id": 2,
          "value": 0.0
        },
        {
          "id": 3,
          "value": 0.0
        }
      ],
      "leftModuleId": 64,
      "rightModuleId": 68,
      "data": {
        "poly_input": 0,
        "wave": 0,
        "fm_mode": false,
        "linear_mode": false
      },
      "pos": [
        31,
        0
      ]
    },
    {
      "id": 68,
      "plugin": "Bogaudio",
      "version": "1.1.33",
      "model": "Bogaudio-LLFO",
      "params": [
        {
          "id": 0,
          "value": -1.59900022
        },
        {
          "id": 1,
          "value": 1.0
        },
        {
          "id": 2,
          "value": 0.0
        },
        {
          "id": 3,
          "value": 0.0
        },
        {
          "id": 4,
          "value": 1.0
        }
      ],
      "leftModuleId": 67,
      "rightModuleId": 70,
      "pos": [
        34,
        0
      ]
    },
    {
      "id": 70,
      "plugin": "Core",
      "version": "1.1.6",
      "model": "Notes",
      "params": [],
      "leftModuleId": 68,
      "text": "semenza - 2020-08-08\n\nseeding some noise from the ground, up.",
      "pos": [
        37,
        0
      ]
    }
  ],
  "cables": [
    {
      "id": 38,
      "outputModuleId": 58,
      "outputId": 2,
      "inputModuleId": 59,
      "inputId": 0,
      "color": "#0986ad"
    },
    {
      "id": 44,
      "outputModuleId": 59,
      "outputId": 1,
      "inputModuleId": 64,
      "inputId": 3,
      "color": "#c91847"
    },
    {
      "id": 45,
      "outputModuleId": 64,
      "outputId": 0,
      "inputModuleId": 1,
      "inputId": 0,
      "color": "#0986ad"
    },
    {
      "id": 46,
      "outputModuleId": 64,
      "outputId": 1,
      "inputModuleId": 1,
      "inputId": 1,
      "color": "#c9b70e"
    },
    {
      "id": 48,
      "outputModuleId": 58,
      "outputId": 3,
      "inputModuleId": 59,
      "inputId": 1,
      "color": "#c91847"
    },
    {
      "id": 62,
      "outputModuleId": 67,
      "outputId": 0,
      "inputModuleId": 64,
      "inputId": 0,
      "color": "#0c8e15"
    },
    {
      "id": 43,
      "outputModuleId": 59,
      "outputId": 0,
      "inputModuleId": 64,
      "inputId": 2,
      "color": "#0c8e15"
    },
    {
      "id": 63,
      "outputModuleId": 68,
      "outputId": 0,
      "inputModuleId": 67,
      "inputId": 0,
      "color": "#c91847"
    }
  ]
}