{
  "version": "1.1.6",
  "modules": [
    {
      "id": 1,
      "plugin": "Core",
      "version": "1.1.6",
      "model": "AudioInterface",
      "params": [],
      "rightModuleId": 33,
      "data": {
        "audio": {
          "driver": 1,
          "deviceName": "hw:HDA Intel,0",
          "offset": 0,
          "maxChannels": 8,
          "sampleRate": 48000,
          "blockSize": 1024
        }
      },
      "pos": [
        0,
        0
      ]
    },
    {
      "id": 25,
      "plugin": "FrozenWasteland",
      "version": "1.15.5",
      "model": "StringTheory",
      "params": [
        {
          "id": 0,
          "value": 0.587000191
        },
        {
          "id": 1,
          "value": 0.00999999978
        },
        {
          "id": 2,
          "value": 0.0
        },
        {
          "id": 3,
          "value": 1.0
        },
        {
          "id": 4,
          "value": 0.0
        },
        {
          "id": 5,
          "value": 0.427500069
        },
        {
          "id": 6,
          "value": 0.0
        },
        {
          "id": 7,
          "value": 0.0
        },
        {
          "id": 8,
          "value": 4.0
        },
        {
          "id": 9,
          "value": 0.0
        },
        {
          "id": 10,
          "value": 0.412500024
        },
        {
          "id": 11,
          "value": 0.0
        },
        {
          "id": 12,
          "value": 0.0
        },
        {
          "id": 13,
          "value": 0.0
        }
      ],
      "leftModuleId": 33,
      "rightModuleId": 40,
      "data": {
        "noiseType": 1,
        "windowFunction": 0
      },
      "pos": [
        13,
        0
      ]
    },
    {
      "id": 26,
      "plugin": "Skylights",
      "version": "1.0.2",
      "model": "SkTuringV2",
      "params": [
        {
          "id": 0,
          "value": 0.0
        },
        {
          "id": 1,
          "value": 7.0
        },
        {
          "id": 2,
          "value": 0.814000249
        },
        {
          "id": 3,
          "value": 0.0
        },
        {
          "id": 4,
          "value": 1.13000023
        }
      ],
      "leftModuleId": 40,
      "rightModuleId": 29,
      "data": {
        "sequence": 225
      },
      "pos": [
        23,
        0
      ]
    },
    {
      "id": 28,
      "plugin": "Bogaudio",
      "version": "1.1.34",
      "model": "Bogaudio-LLFO",
      "params": [
        {
          "id": 0,
          "value": 0.968637943
        },
        {
          "id": 1,
          "value": 0.0
        },
        {
          "id": 2,
          "value": 4.0
        },
        {
          "id": 3,
          "value": 0.0
        },
        {
          "id": 4,
          "value": 1.0
        }
      ],
      "leftModuleId": 29,
      "rightModuleId": 30,
      "data": {},
      "pos": [
        37,
        0
      ]
    },
    {
      "id": 29,
      "plugin": "JW-Modules",
      "version": "1.0.14",
      "model": "Quantizer",
      "params": [
        {
          "id": 0,
          "value": 0.0
        },
        {
          "id": 1,
          "value": 14.0
        }
      ],
      "leftModuleId": 26,
      "rightModuleId": 28,
      "data": {},
      "pos": [
        33,
        0
      ]
    },
    {
      "id": 30,
      "plugin": "CountModula",
      "version": "1.12.1",
      "model": "Rectifier",
      "params": [
        {
          "id": 0,
          "value": 0.0
        },
        {
          "id": 1,
          "value": 0.0
        }
      ],
      "leftModuleId": 28,
      "rightModuleId": 34,
      "data": {
        "moduleVersion": 1,
        "theme": 0
      },
      "pos": [
        40,
        0
      ]
    },
    {
      "id": 32,
      "plugin": "NYSTHI",
      "version": "1.0.15",
      "model": "4DCBlock",
      "params": [
        {
          "id": 0,
          "value": 0.0
        }
      ],
      "leftModuleId": 36,
      "rightModuleId": 39,
      "data": {
        "m_current_dc_block_frequency": 10.0
      },
      "pos": [
        64,
        0
      ]
    },
    {
      "id": 33,
      "plugin": "Bogaudio",
      "version": "1.1.34",
      "model": "Bogaudio-XFade",
      "params": [
        {
          "id": 0,
          "value": -0.286999941
        },
        {
          "id": 1,
          "value": 0.5
        },
        {
          "id": 2,
          "value": 0.0
        }
      ],
      "leftModuleId": 1,
      "rightModuleId": 25,
      "data": {},
      "pos": [
        10,
        0
      ]
    },
    {
      "id": 34,
      "plugin": "CountModula",
      "version": "1.12.1",
      "model": "Rectifier",
      "params": [
        {
          "id": 0,
          "value": 0.0
        },
        {
          "id": 1,
          "value": 0.0
        }
      ],
      "leftModuleId": 30,
      "rightModuleId": 36,
      "data": {
        "moduleVersion": 1,
        "theme": 0
      },
      "pos": [
        48,
        0
      ]
    },
    {
      "id": 36,
      "plugin": "CountModula",
      "version": "1.12.1",
      "model": "Rectifier",
      "params": [
        {
          "id": 0,
          "value": 0.0
        },
        {
          "id": 1,
          "value": 0.0
        }
      ],
      "leftModuleId": 34,
      "rightModuleId": 32,
      "data": {
        "moduleVersion": 1,
        "theme": 0
      },
      "pos": [
        56,
        0
      ]
    },
    {
      "id": 39,
      "plugin": "RJModules",
      "version": "1.7.2",
      "model": "Brickwall",
      "params": [
        {
          "id": 0,
          "value": 0.0
        },
        {
          "id": 1,
          "value": 0.0
        },
        {
          "id": 2,
          "value": 0.0
        },
        {
          "id": 3,
          "value": 0.0
        },
        {
          "id": 4,
          "value": 0.5
        },
        {
          "id": 5,
          "value": 4.0
        },
        {
          "id": 6,
          "value": 0.31600067
        },
        {
          "id": 7,
          "value": 2.5
        },
        {
          "id": 8,
          "value": 2.41974974
        }
      ],
      "leftModuleId": 32,
      "rightModuleId": 41,
      "pos": [
        66,
        0
      ]
    },
    {
      "id": 40,
      "plugin": "Bogaudio",
      "version": "1.1.34",
      "model": "Bogaudio-LVCF",
      "params": [
        {
          "id": 0,
          "value": 0.172610119
        },
        {
          "id": 1,
          "value": 0.0
        },
        {
          "id": 2,
          "value": 0.402000189
        },
        {
          "id": 3,
          "value": 0.0
        }
      ],
      "leftModuleId": 25,
      "rightModuleId": 26,
      "data": {
        "poles": 4,
        "bandwidthMode": "pitched"
      },
      "pos": [
        20,
        0
      ]
    },
    {
      "id": 41,
      "plugin": "Core",
      "version": "1.1.6",
      "model": "Notes",
      "params": [],
      "leftModuleId": 39,
      "text": "grammatica 029 - 2020-09-27\n\nString Theory + Alan + Quantizer (with a pentatonic scale) make a lousy guitarist. A full-wave rectifier + DC Block (x3) and a BrickWall rock-and-rolls it.",
      "pos": [
        69,
        0
      ]
    }
  ],
  "cables": [
    {
      "id": 31,
      "outputModuleId": 28,
      "outputId": 0,
      "inputModuleId": 26,
      "inputId": 0,
      "color": "#0986ad"
    },
    {
      "id": 34,
      "outputModuleId": 26,
      "outputId": 2,
      "inputModuleId": 25,
      "inputId": 8,
      "color": "#c91847"
    },
    {
      "id": 33,
      "outputModuleId": 29,
      "outputId": 0,
      "inputModuleId": 25,
      "inputId": 3,
      "color": "#0c8e15"
    },
    {
      "id": 35,
      "outputModuleId": 26,
      "outputId": 0,
      "inputModuleId": 29,
      "inputId": 2,
      "color": "#0986ad"
    },
    {
      "id": 41,
      "outputModuleId": 33,
      "outputId": 0,
      "inputModuleId": 1,
      "inputId": 0,
      "color": "#0c8e15"
    },
    {
      "id": 42,
      "outputModuleId": 33,
      "outputId": 0,
      "inputModuleId": 1,
      "inputId": 1,
      "color": "#c91847"
    },
    {
      "id": 43,
      "outputModuleId": 32,
      "outputId": 0,
      "inputModuleId": 34,
      "inputId": 0,
      "color": "#0986ad"
    },
    {
      "id": 45,
      "outputModuleId": 32,
      "outputId": 1,
      "inputModuleId": 36,
      "inputId": 0,
      "color": "#0c8e15"
    },
    {
      "id": 36,
      "outputModuleId": 30,
      "outputId": 0,
      "inputModuleId": 32,
      "inputId": 0,
      "color": "#c9b70e"
    },
    {
      "id": 48,
      "outputModuleId": 34,
      "outputId": 0,
      "inputModuleId": 32,
      "inputId": 1,
      "color": "#c9b70e"
    },
    {
      "id": 46,
      "outputModuleId": 36,
      "outputId": 0,
      "inputModuleId": 32,
      "inputId": 2,
      "color": "#c91847"
    },
    {
      "id": 49,
      "outputModuleId": 39,
      "outputId": 0,
      "inputModuleId": 33,
      "inputId": 1,
      "color": "#0c8e15"
    },
    {
      "id": 50,
      "outputModuleId": 32,
      "outputId": 2,
      "inputModuleId": 39,
      "inputId": 1,
      "color": "#c91847"
    },
    {
      "id": 37,
      "outputModuleId": 40,
      "outputId": 0,
      "inputModuleId": 33,
      "inputId": 2,
      "color": "#0c8e15"
    },
    {
      "id": 29,
      "outputModuleId": 40,
      "outputId": 0,
      "inputModuleId": 30,
      "inputId": 0,
      "color": "#0c8e15"
    },
    {
      "id": 52,
      "outputModuleId": 25,
      "outputId": 0,
      "inputModuleId": 40,
      "inputId": 0,
      "color": "#c9b70e"
    }
  ]
}