{
  "version": "1.1.6",
  "modules": [
    {
      "id": 1,
      "plugin": "Core",
      "version": "1.1.6",
      "model": "AudioInterface",
      "params": [],
      "rightModuleId": 146,
      "data": {
        "audio": {
          "driver": 1,
          "deviceName": "hw:HDA Intel,0",
          "offset": 0,
          "maxChannels": 8,
          "sampleRate": 48000,
          "blockSize": 1024
        }
      },
      "pos": [
        0,
        0
      ]
    },
    {
      "id": 132,
      "plugin": "AudibleInstruments",
      "version": "1.3.1",
      "model": "Braids",
      "params": [
        {
          "id": 0,
          "value": 0.0
        },
        {
          "id": 1,
          "value": -3.0
        },
        {
          "id": 2,
          "value": 0.627000093
        },
        {
          "id": 3,
          "value": 0.5
        },
        {
          "id": 4,
          "value": 0.0
        },
        {
          "id": 5,
          "value": 0.5
        },
        {
          "id": 6,
          "value": 0.0465000011
        }
      ],
      "leftModuleId": 146,
      "rightModuleId": 133,
      "data": {
        "settings": [
          12,
          0,
          0,
          0,
          0,
          0,
          1,
          0,
          0,
          0,
          0,
          0,
          0,
          0,
          0,
          0,
          0,
          0,
          0,
          0
        ],
        "lowCpu": false
      },
      "pos": [
        14,
        0
      ]
    },
    {
      "id": 133,
      "plugin": "AudibleInstruments",
      "version": "1.3.1",
      "model": "Rings",
      "params": [
        {
          "id": 0,
          "value": 0.0
        },
        {
          "id": 1,
          "value": 0.0
        },
        {
          "id": 2,
          "value": 15.0
        },
        {
          "id": 3,
          "value": 0.5
        },
        {
          "id": 4,
          "value": 0.5
        },
        {
          "id": 5,
          "value": 0.5
        },
        {
          "id": 6,
          "value": 0.5
        },
        {
          "id": 7,
          "value": 0.0
        },
        {
          "id": 8,
          "value": -0.100000001
        },
        {
          "id": 9,
          "value": 0.0
        },
        {
          "id": 10,
          "value": 0.879000127
        },
        {
          "id": 11,
          "value": -0.822000086
        }
      ],
      "leftModuleId": 132,
      "rightModuleId": 140,
      "data": {
        "polyphony": 1,
        "model": 1,
        "easterEgg": false
      },
      "pos": [
        30,
        0
      ]
    },
    {
      "id": 140,
      "plugin": "Core",
      "version": "1.1.6",
      "model": "Notes",
      "params": [],
      "leftModuleId": 133,
      "text": "grammatica 023 - 2020-09-19\n\nengagement, day seven. braids+rings.",
      "pos": [
        44,
        0
      ]
    },
    {
      "id": 146,
      "plugin": "RJModules",
      "version": "1.7.2",
      "model": "Octo",
      "params": [
        {
          "id": 0,
          "value": 3.25999856
        },
        {
          "id": 1,
          "value": 0.621999919
        },
        {
          "id": 2,
          "value": 0.0
        }
      ],
      "leftModuleId": 1,
      "rightModuleId": 132,
      "wave": 3.0,
      "pos": [
        10,
        0
      ]
    }
  ],
  "cables": [
    {
      "id": 36,
      "outputModuleId": 133,
      "outputId": 0,
      "inputModuleId": 1,
      "inputId": 0,
      "color": "#c9b70e"
    },
    {
      "id": 99,
      "outputModuleId": 146,
      "outputId": 1,
      "inputModuleId": 146,
      "inputId": 0,
      "color": "#c91847"
    },
    {
      "id": 101,
      "outputModuleId": 132,
      "outputId": 0,
      "inputModuleId": 133,
      "inputId": 7,
      "color": "#c9b70e"
    },
    {
      "id": 100,
      "outputModuleId": 146,
      "outputId": 2,
      "inputModuleId": 132,
      "inputId": 2,
      "color": "#0986ad"
    },
    {
      "id": 103,
      "outputModuleId": 133,
      "outputId": 1,
      "inputModuleId": 1,
      "inputId": 1,
      "color": "#0986ad"
    },
    {
      "id": 102,
      "outputModuleId": 146,
      "outputId": 5,
      "inputModuleId": 132,
      "inputId": 4,
      "color": "#0c8e15"
    },
    {
      "id": 106,
      "outputModuleId": 132,
      "outputId": 0,
      "inputModuleId": 133,
      "inputId": 1,
      "color": "#c91847"
    },
    {
      "id": 105,
      "outputModuleId": 146,
      "outputId": 5,
      "inputModuleId": 133,
      "inputId": 4,
      "color": "#0c8e15"
    },
    {
      "id": 104,
      "outputModuleId": 146,
      "outputId": 4,
      "inputModuleId": 133,
      "inputId": 3,
      "color": "#c9b70e"
    }
  ]
}