{
  "version": "1.1.6",
  "modules": [
    {
      "id": 1,
      "plugin": "Core",
      "version": "1.1.6",
      "model": "AudioInterface",
      "params": [],
      "rightModuleId": 15,
      "data": {
        "audio": {
          "driver": 1,
          "offset": 0,
          "maxChannels": 8,
          "sampleRate": 44100,
          "blockSize": 1024
        }
      },
      "pos": [
        0,
        0
      ]
    },
    {
      "id": 4,
      "plugin": "JW-Modules",
      "version": "1.0.11",
      "model": "Quantizer",
      "params": [
        {
          "id": 0,
          "value": 0.0
        },
        {
          "id": 1,
          "value": 11.0
        }
      ],
      "leftModuleId": 5,
      "rightModuleId": 11,
      "data": {},
      "pos": [
        36,
        0
      ]
    },
    {
      "id": 5,
      "plugin": "Bogaudio",
      "version": "1.1.33",
      "model": "Bogaudio-LLFO",
      "params": [
        {
          "id": 0,
          "value": -0.446399689
        },
        {
          "id": 1,
          "value": 0.0
        },
        {
          "id": 2,
          "value": 2.0
        },
        {
          "id": 3,
          "value": 0.200000003
        },
        {
          "id": 4,
          "value": 0.0599999987
        }
      ],
      "leftModuleId": 6,
      "rightModuleId": 4,
      "pos": [
        33,
        0
      ]
    },
    {
      "id": 6,
      "plugin": "IggyLabsModules",
      "version": "1.1.0",
      "model": "table",
      "params": [
        {
          "id": 0,
          "value": 0.0
        },
        {
          "id": 1,
          "value": 0.846000135
        },
        {
          "id": 2,
          "value": 0.0
        }
      ],
      "leftModuleId": 7,
      "rightModuleId": 5,
      "data": {
        "lastPath": "/home/gg/.Rack/plugins-v1/IggyLabsModules/res/audio/Harmonic.wav",
        "lastCycleLength": 2048
      },
      "pos": [
        31,
        0
      ]
    },
    {
      "id": 7,
      "plugin": "Bogaudio",
      "version": "1.1.33",
      "model": "Bogaudio-Mix4",
      "params": [
        {
          "id": 0,
          "value": 0.822091043
        },
        {
          "id": 1,
          "value": 0.0
        },
        {
          "id": 2,
          "value": 0.0
        },
        {
          "id": 3,
          "value": 0.86409086
        },
        {
          "id": 4,
          "value": 0.0
        },
        {
          "id": 5,
          "value": 0.0
        },
        {
          "id": 6,
          "value": 0.909090936
        },
        {
          "id": 7,
          "value": 0.0
        },
        {
          "id": 8,
          "value": 0.0
        },
        {
          "id": 9,
          "value": 0.909090936
        },
        {
          "id": 10,
          "value": 0.0
        },
        {
          "id": 11,
          "value": 0.0
        },
        {
          "id": 12,
          "value": 0.909090936
        },
        {
          "id": 13,
          "value": 0.0
        },
        {
          "id": 14,
          "value": 0.0
        }
      ],
      "leftModuleId": 15,
      "rightModuleId": 6,
      "data": {
        "dim_decibels": 12.0,
        "poly_channel_offset": -1
      },
      "pos": [
        16,
        0
      ]
    },
    {
      "id": 9,
      "plugin": "IggyLabsModules",
      "version": "1.1.0",
      "model": "table",
      "params": [
        {
          "id": 0,
          "value": 0.0
        },
        {
          "id": 1,
          "value": 0.361500621
        },
        {
          "id": 2,
          "value": 0.0
        }
      ],
      "leftModuleId": 13,
      "rightModuleId": 14,
      "data": {
        "lastPath": "/home/gg/.Rack/plugins-v1/IggyLabsModules/res/audio/Chebyshev.wav",
        "lastCycleLength": 2048
      },
      "pos": [
        56,
        0
      ]
    },
    {
      "id": 10,
      "plugin": "Bogaudio",
      "version": "1.1.33",
      "model": "Bogaudio-AddrSeq",
      "params": [
        {
          "id": 0,
          "value": 4.0
        },
        {
          "id": 1,
          "value": 1.0
        },
        {
          "id": 2,
          "value": 0.0
        },
        {
          "id": 3,
          "value": 0.0
        },
        {
          "id": 4,
          "value": -0.30221352
        },
        {
          "id": 5,
          "value": -0.0945844874
        },
        {
          "id": 6,
          "value": 0.262158275
        },
        {
          "id": 7,
          "value": -0.922145486
        },
        {
          "id": 8,
          "value": 0.435471892
        },
        {
          "id": 9,
          "value": 0.815281391
        },
        {
          "id": 10,
          "value": -0.527714133
        }
      ],
      "leftModuleId": 11,
      "rightModuleId": 12,
      "data": {
        "poly_input": 0,
        "select_on_clock": false,
        "triggered_select": false,
        "reverse_on_negative_clock": false,
        "range_offset": 0.0,
        "range_scale": 1.0
      },
      "pos": [
        43,
        0
      ]
    },
    {
      "id": 11,
      "plugin": "Bogaudio",
      "version": "1.1.33",
      "model": "Bogaudio-LLFO",
      "params": [
        {
          "id": 0,
          "value": -0.309900492
        },
        {
          "id": 1,
          "value": 1.0
        },
        {
          "id": 2,
          "value": 4.0
        },
        {
          "id": 3,
          "value": 0.0
        },
        {
          "id": 4,
          "value": 1.0
        }
      ],
      "leftModuleId": 4,
      "rightModuleId": 10,
      "pos": [
        40,
        0
      ]
    },
    {
      "id": 12,
      "plugin": "JW-Modules",
      "version": "1.0.11",
      "model": "Quantizer",
      "params": [
        {
          "id": 0,
          "value": 0.0
        },
        {
          "id": 1,
          "value": 11.0
        }
      ],
      "leftModuleId": 10,
      "rightModuleId": 13,
      "data": {},
      "pos": [
        49,
        0
      ]
    },
    {
      "id": 13,
      "plugin": "Fundamental",
      "version": "1.4.0",
      "model": "Octave",
      "params": [
        {
          "id": 0,
          "value": -2.0
        }
      ],
      "leftModuleId": 12,
      "rightModuleId": 9,
      "pos": [
        53,
        0
      ]
    },
    {
      "id": 14,
      "plugin": "Bogaudio",
      "version": "1.1.33",
      "model": "Bogaudio-LVCF",
      "params": [
        {
          "id": 0,
          "value": 0.336109877
        },
        {
          "id": 1,
          "value": 0.0
        },
        {
          "id": 2,
          "value": 0.17550002
        },
        {
          "id": 3,
          "value": 0.0
        }
      ],
      "leftModuleId": 9,
      "rightModuleId": 16,
      "data": {
        "poles": 4,
        "bandwidthMode": "pitched"
      },
      "pos": [
        58,
        0
      ]
    },
    {
      "id": 15,
      "plugin": "AS",
      "version": "1.0.4",
      "model": "ReverbStereoFx",
      "params": [
        {
          "id": 0,
          "value": 0.384500116
        },
        {
          "id": 1,
          "value": 0.398000181
        },
        {
          "id": 2,
          "value": 0.610999942
        },
        {
          "id": 3,
          "value": 0.0
        }
      ],
      "leftModuleId": 1,
      "rightModuleId": 7,
      "data": {
        "as_FxBypass": [
          false
        ]
      },
      "pos": [
        10,
        0
      ]
    },
    {
      "id": 16,
      "plugin": "Bogaudio",
      "version": "1.1.33",
      "model": "Bogaudio-LLFO",
      "params": [
        {
          "id": 0,
          "value": -3.67521858
        },
        {
          "id": 1,
          "value": 1.0
        },
        {
          "id": 2,
          "value": 0.0
        },
        {
          "id": 3,
          "value": 0.0
        },
        {
          "id": 4,
          "value": 0.5
        }
      ],
      "leftModuleId": 14,
      "rightModuleId": 17,
      "pos": [
        61,
        0
      ]
    },
    {
      "id": 17,
      "plugin": "Core",
      "version": "1.1.6",
      "model": "Notes",
      "params": [],
      "leftModuleId": 16,
      "text": "grammatica 003 - 2020-08-10\n\nA high frequency arpeggio drones under a four note bass carpet.",
      "pos": [
        64,
        0
      ]
    }
  ],
  "cables": [
    {
      "id": 0,
      "outputModuleId": 6,
      "outputId": 0,
      "inputModuleId": 7,
      "inputId": 2,
      "color": "#0c8e15"
    },
    {
      "id": 1,
      "outputModuleId": 4,
      "outputId": 0,
      "inputModuleId": 6,
      "inputId": 2,
      "color": "#c91847"
    },
    {
      "id": 2,
      "outputModuleId": 5,
      "outputId": 0,
      "inputModuleId": 4,
      "inputId": 2,
      "color": "#0986ad"
    },
    {
      "id": 6,
      "outputModuleId": 10,
      "outputId": 0,
      "inputModuleId": 12,
      "inputId": 2,
      "color": "#c9b70e"
    },
    {
      "id": 5,
      "outputModuleId": 11,
      "outputId": 0,
      "inputModuleId": 10,
      "inputId": 0,
      "color": "#0986ad"
    },
    {
      "id": 8,
      "outputModuleId": 13,
      "outputId": 0,
      "inputModuleId": 9,
      "inputId": 2,
      "color": "#c91847"
    },
    {
      "id": 9,
      "outputModuleId": 12,
      "outputId": 0,
      "inputModuleId": 13,
      "inputId": 0,
      "color": "#0986ad"
    },
    {
      "id": 7,
      "outputModuleId": 9,
      "outputId": 0,
      "inputModuleId": 14,
      "inputId": 0,
      "color": "#0c8e15"
    },
    {
      "id": 10,
      "outputModuleId": 14,
      "outputId": 0,
      "inputModuleId": 7,
      "inputId": 5,
      "color": "#c9b70e"
    },
    {
      "id": 4,
      "outputModuleId": 7,
      "outputId": 1,
      "inputModuleId": 15,
      "inputId": 0,
      "color": "#c91847"
    },
    {
      "id": 3,
      "outputModuleId": 7,
      "outputId": 0,
      "inputModuleId": 15,
      "inputId": 1,
      "color": "#0c8e15"
    },
    {
      "id": 11,
      "outputModuleId": 15,
      "outputId": 0,
      "inputModuleId": 1,
      "inputId": 0,
      "color": "#0c8e15"
    },
    {
      "id": 12,
      "outputModuleId": 15,
      "outputId": 1,
      "inputModuleId": 1,
      "inputId": 1,
      "color": "#c91847"
    },
    {
      "id": 13,
      "outputModuleId": 16,
      "outputId": 0,
      "inputModuleId": 9,
      "inputId": 1,
      "color": "#0986ad"
    }
  ]
}